<svg width="381" height="232" viewBox="0 0 381 232" fill="none" xmlns="http://www.w3.org/2000/svg">
<g clip-path="url(#clip0)">
<path d="M380.825 231.556H0V230.589H381L380.825 231.556Z" fill="#3F3D56"/>
<path d="M332.535 77.7543L322.898 96.8324L294.084 109.932C291.007 115.132 281.229 115.53 280.517 112.167C279.72 108.395 292.391 102.322 292.391 102.322L316.492 86.0208L318.601 71.9874L332.535 77.7543Z" fill="#A0616A"/>
<path d="M331.398 205.784L333.175 220.001L322.868 220.712L321.801 205.784H331.398Z" fill="#A0616A"/>
<path d="M329.976 217.869C330.898 216.894 331.748 215.855 332.52 214.758C333.997 212.714 335.308 223.2 335.308 223.2C335.308 223.2 336.73 227.466 336.374 229.598C336.019 231.731 327.844 231.731 326.422 231.376C325 231.02 317.891 231.376 317.891 231.376H307.228C297.987 227.11 307.228 224.267 307.228 224.267C310.072 223.911 319.669 215.025 319.669 215.025L321.801 211.115C323.223 210.76 324.645 216.092 324.645 216.092L329.976 217.869Z" fill="#2F2E41"/>
<path d="M358.056 205.961L359.834 220.179L349.526 220.89L348.459 205.961H358.056Z" fill="#A0616A"/>
<path d="M356.635 218.047C357.556 217.072 358.406 216.033 359.178 214.936C360.655 212.892 361.966 223.378 361.966 223.378C361.966 223.378 363.388 227.288 363.033 229.421C362.677 231.553 354.502 231.553 353.08 231.198C351.658 230.843 344.55 231.553 344.55 231.553H333.886C324.645 227.288 333.886 224.445 333.886 224.445C336.73 224.089 346.327 215.203 346.327 215.203L348.459 211.293C349.881 210.938 351.303 216.269 351.303 216.269L356.635 218.047Z" fill="#2F2E41"/>
<path d="M346.327 114.257C347.748 116.035 347.038 122.077 347.038 122.077C347.038 122.077 349.526 141.627 348.459 143.404C347.393 145.181 349.17 146.603 350.237 149.091C351.303 151.579 352.369 157.621 352.369 157.621C358.412 162.598 358.056 185.346 358.056 185.346L360.189 205.606C359.478 207.739 349.526 208.094 348.104 207.739C346.682 207.383 342.417 175.394 342.417 175.394L332.82 157.266C332.82 157.266 333.531 205.606 333.531 207.739C333.531 209.871 323.934 208.805 321.801 208.805C319.669 208.805 319.669 173.261 319.669 173.261L317.536 164.019L306.162 121.722V116.746L307.939 114.257C307.939 114.257 344.905 112.48 346.327 114.257Z" fill="#2F2E41"/>
<path d="M330.687 33.572C336.773 33.572 341.706 28.6388 341.706 22.5533C341.706 16.4679 336.773 11.5346 330.687 11.5346C324.602 11.5346 319.669 16.4679 319.669 22.5533C319.669 28.6388 324.602 33.572 330.687 33.572Z" fill="#A0616A"/>
<path d="M325.178 27.7072C327.411 32.6807 326.089 39.6275 321.624 47.2565L339.751 38.726L336.908 36.2379L337.618 29.129L325.178 27.7072Z" fill="#A0616A"/>
<path d="M325.178 39.0814C322.804 40.4927 321.384 43.0857 320.569 45.7243C319.06 50.6093 318.151 55.66 317.864 60.7647L317.003 76.0474L306.34 116.568C315.581 124.388 320.913 122.61 333.353 116.212C345.794 109.814 347.215 118.345 347.215 118.345C347.215 118.345 348.282 117.99 347.215 116.923C346.149 115.857 347.215 116.923 348.282 115.857C349.348 114.791 348.282 115.857 347.926 114.791C347.571 113.724 347.926 114.435 348.282 114.08C348.637 113.724 346.86 110.525 346.86 110.525L349.704 83.8671L353.258 46.1902C348.993 40.8586 336.908 36.2379 336.908 36.2379L325.889 44.0576C322.334 45.4793 325.178 39.7923 325.178 39.7923V39.0814Z" fill="#F37335"/>
<path d="M359.123 68.7608L360.545 90.0874L342.417 116.035C342.417 122.077 339.218 123.499 339.218 123.499C338.006 121.565 336.937 119.546 336.019 117.456C334.242 113.547 337.085 110.348 337.085 110.348L349.526 84.0448L344.194 70.8935L359.123 68.7608Z" fill="#A0616A"/>
<path d="M353.08 46.3679C359.123 48.5006 360.189 71.6043 360.189 71.6043C353.08 67.6945 344.55 74.0924 344.55 74.0924C344.55 74.0924 342.772 68.0499 340.64 60.2302C339.996 58.0306 339.919 55.7039 340.416 53.4666C340.913 51.2292 341.968 49.1541 343.483 47.4343C343.483 47.4343 347.038 44.2353 353.08 46.3679Z" fill="#F37335"/>
<path d="M340.817 25.93C339.415 24.8078 337.501 26.8476 337.501 26.8476L336.379 16.748C336.379 16.748 329.365 17.5896 324.876 16.4674C320.388 15.3452 319.686 20.5353 319.686 20.5353C319.455 18.4394 319.408 16.3272 319.546 14.223C319.827 11.6981 323.474 9.1732 329.926 7.48992C336.379 5.80665 339.745 13.1009 339.745 13.1009C344.234 15.3452 342.22 27.0522 340.817 25.93Z" fill="#2F2E41"/>
<path d="M17.9103 174.242C19.1218 179.051 29.4517 189.866 40.1107 200.021C23.6737 159.422 33.0401 114.989 33.0401 114.989C29.9881 132.44 71.8165 220.258 71.8165 220.258L62.2895 225.875L59.0711 230.404C26.8087 215.587 17.9103 174.242 17.9103 174.242Z" fill="#E6E6E6"/>
<path d="M295.88 84.2134H161.132V110.818H295.88V84.2134Z" fill="#E6E6E6"/>
<path d="M295.88 42.1759H161.132V68.7801H295.88V42.1759Z" fill="#E6E6E6"/>
<path d="M295.88 0H161.132V26.6041H295.88V0Z" fill="#E6E6E6"/>
<path d="M164.004 23.7314H293.007V2.87262H164.004V23.7314Z" fill="white"/>
<path d="M164.004 66.0001H293.007V45.1413H164.004V66.0001Z" fill="white"/>
<path d="M164.004 107.945H293.007V87.0861H164.004V107.945Z" fill="white"/>
<path d="M175.298 21.076C179.686 21.076 183.244 17.5181 183.244 13.1293C183.244 8.74047 179.686 5.18262 175.298 5.18262C170.909 5.18262 167.351 8.74047 167.351 13.1293C167.351 17.5181 170.909 21.076 175.298 21.076Z" fill="#F37335"/>
<path d="M272.731 10.0197H194.3V11.7473H272.731V10.0197Z" fill="#F37335"/>
<path d="M272.731 14.5114H194.3V16.2389H272.731V14.5114Z" fill="#F37335"/>
<path d="M175.298 63.5974C179.686 63.5974 183.244 60.0396 183.244 55.6507C183.244 51.2619 179.686 47.704 175.298 47.704C170.909 47.704 167.351 51.2619 167.351 55.6507C167.351 60.0396 170.909 63.5974 175.298 63.5974Z" fill="#CCCCCC"/>
<path d="M272.731 52.5411H194.3V54.2687H272.731V52.5411Z" fill="#CCCCCC"/>
<path d="M272.731 57.0328H194.3V58.7603H272.731V57.0328Z" fill="#CCCCCC"/>
<path d="M175.297 105.635C179.686 105.635 183.244 102.077 183.244 97.6883C183.244 93.2994 179.686 89.7416 175.297 89.7416C170.909 89.7416 167.351 93.2994 167.351 97.6883C167.351 102.077 170.909 105.635 175.297 105.635Z" fill="#CCCCCC"/>
<path d="M272.731 94.5787H194.3V96.3062H272.731V94.5787Z" fill="#CCCCCC"/>
<path d="M272.731 99.0703H194.3V100.798H272.731V99.0703Z" fill="#CCCCCC"/>
<path d="M61.7858 76.7421C61.7858 76.7421 59.9278 88.4204 67.6249 87.3588C67.6249 87.3588 98.148 80.4579 99.7405 82.0504C101.333 83.6429 111.233 84.185 110.717 77.4711C110.199 70.7346 100.271 74.6187 100.271 74.6187C100.271 74.6187 84.8771 76.742 81.6921 75.1495C78.5071 73.557 69.4829 74.0878 69.4829 74.0878L61.7858 76.7421Z" fill="#A0616A"/>
<path d="M85.0785 114.826L80.8461 154.983C80.8461 154.983 79.5191 170.908 75.5378 174.358C75.5378 174.358 75.5378 179.401 74.2107 180.994L72.3528 201.962C72.3528 201.962 75.0069 209.659 74.7415 210.986C74.4761 212.313 75.8032 216.56 75.5378 217.091C75.2724 217.621 62.7977 217.091 62.7977 217.091L65.4519 174.358L73.6799 114.905L85.0785 114.826Z" fill="#2F2E41"/>
<path d="M61.8254 214.92C61.8254 214.92 56.2591 228.957 59.1632 230.651C62.0674 232.345 92.5611 231.135 92.5611 231.135C92.5611 231.135 97.6433 227.988 91.835 225.81C91.835 225.81 86.9947 225.568 83.8486 223.632C80.7025 221.696 77.0723 218.066 77.0723 218.066C77.0723 218.066 76.8303 212.742 74.8941 213.952C74.3149 214.333 73.8219 214.832 73.4467 215.415C73.0716 215.999 72.8227 216.655 72.716 217.34L61.8254 214.92Z" fill="#2F2E41"/>
<path d="M53.2426 213.016C53.2426 213.016 47.138 228.411 50.323 230.269C53.5081 232.127 86.9507 230.799 86.9507 230.799C86.9507 230.799 92.5245 227.349 86.1545 224.96C86.1545 224.96 80.8461 224.695 77.3957 222.572C73.9452 220.448 69.964 216.467 69.964 216.467C69.964 216.467 69.6986 210.628 67.5752 211.955C66.94 212.373 66.3993 212.92 65.9879 213.56C65.5765 214.2 65.3035 214.919 65.1865 215.671L53.2426 213.016Z" fill="#2F2E41"/>
<path d="M77.9265 114.281C77.9265 114.281 75.0069 141.619 73.6799 147.458C72.8455 151.304 72.313 155.208 72.0873 159.137C72.0873 159.137 71.8219 167.63 69.4332 170.019C68.7342 170.711 68.1851 171.539 67.8198 172.452C67.4545 173.365 67.2809 174.344 67.3098 175.327C67.3098 175.327 64.921 202.134 66.2481 205.319C67.5752 208.504 69.3768 212.642 68.0497 214.766C66.7227 216.889 51.6501 215.405 51.6501 213.813C51.6501 212.22 51.6501 210.893 50.8539 210.097C50.0576 209.301 50.8539 204.258 50.8539 204.258C50.8539 204.258 47.6689 180.636 50.5885 173.735C53.5081 166.834 54.8352 147.989 54.8352 147.989C54.8352 147.989 52.7118 126.49 50.0576 123.04C47.4034 119.589 50.5885 107.38 50.5885 107.38L77.9265 114.281Z" fill="#2F2E41"/>
<path d="M70.454 29.3846C70.7625 30.0875 71.5011 30.4789 72.1735 30.8493C76.0703 32.9962 79.3322 36.1088 82.5459 39.1855C81.744 36.468 81.9149 33.5559 83.0291 30.9508C83.4128 30.0622 83.9157 29.1071 83.6414 28.1789C83.3709 27.5154 82.9005 26.9526 82.2955 26.5686C80.9842 25.5545 79.6136 24.6194 78.191 23.7683C77.1972 23.1737 75.154 21.5909 74.0135 21.7631C73.9537 23.304 73.9224 24.6817 73.2476 26.1218C73.0875 26.4634 70.5719 29.6534 70.454 29.3846Z" fill="#A0616A"/>
<path d="M84.0312 32.7977C90.0412 32.7977 94.9133 27.9256 94.9133 21.9156C94.9133 15.9055 90.0412 11.0334 84.0312 11.0334C78.0211 11.0334 73.149 15.9055 73.149 21.9156C73.149 27.9256 78.0211 32.7977 84.0312 32.7977Z" fill="#A0616A"/>
<path d="M84.562 47.6612C84.562 47.6612 86.4199 38.3715 81.1116 35.1865C75.8032 32.0015 69.6986 28.2857 69.6986 28.2857C69.6986 28.2857 67.8406 28.0202 67.0444 32.0015C67.0444 32.0015 51.9156 34.9211 50.3231 49.2537C48.7305 63.5863 51.3847 84.5543 51.3847 84.5543C51.3847 84.5543 48.996 102.868 46.0764 112.689C46.0764 112.689 43.6876 114.812 54.3044 111.627C64.9211 108.442 83.5003 120.651 83.5003 120.651C83.5003 120.651 85.3582 118.793 85.3582 117.466C85.3582 116.139 89.3395 75.7955 90.1357 72.0796C90.932 68.3638 86.9507 48.192 84.562 47.6612Z" fill="#E6E6E6"/>
<path d="M81.4665 23.0366C82.1203 22.6743 82.8534 22.4791 83.6007 22.4683C84.349 22.4571 85.0796 22.2394 85.712 21.8392C86.7399 21.05 86.8153 19.5249 87.5673 18.4695C88.656 16.9414 90.828 16.7575 92.7026 16.834C93.8492 16.8807 95.0841 16.9492 96.0496 16.3291C97.0408 15.6924 97.4901 14.4928 97.8244 13.3632C98.2196 12.0272 98.4753 10.3936 97.4958 9.40277C96.8157 8.71478 95.7422 8.57869 94.9866 7.97448C94.5777 7.64746 89.1726 6.33434 84.0984 5.15364C81.5723 4.56675 78.9187 4.92578 76.6394 6.16282C74.3601 7.39986 72.613 9.42918 71.7285 11.8671C70.5568 15.0888 69.5527 18.116 69.6564 18.7699C70.1524 21.8993 72.9199 24.3867 73.1106 27.5494C73.2924 26.6761 73.6881 25.8616 74.2622 25.1788C74.8364 24.4961 75.571 23.9666 76.4002 23.6377C76.6082 23.5361 76.8443 23.5074 77.0705 23.5564C77.3454 23.6443 77.5062 23.919 77.6797 24.1497C78.1343 24.7541 79.5626 25.6712 80.3722 25.2424C81.0965 24.8587 80.5558 23.6543 81.4665 23.0366Z" fill="#3F3D56"/>
<path d="M86.4427 80.2497C86.215 80.473 86.0847 80.7773 86.08 81.0962C86.0754 81.4152 86.1969 81.7231 86.418 81.953L94.0701 89.8729C94.1814 89.9881 94.3145 90.08 94.4616 90.1432C94.6087 90.2065 94.7669 90.2399 94.9271 90.2414C95.0872 90.2429 95.246 90.2126 95.3943 90.1522C95.5427 90.0918 95.6775 90.0025 95.791 89.8895L119.141 66.6406C119.269 66.5136 119.366 66.3596 119.427 66.1901C119.487 66.0205 119.509 65.8396 119.49 65.6605C119.472 65.4815 119.413 65.3088 119.32 65.1552C119.226 65.0016 119.099 64.8708 118.948 64.7726L109.766 58.7923C109.537 58.6411 109.262 58.5734 108.989 58.6003C108.715 58.6272 108.459 58.7472 108.263 58.9402L86.4427 80.2497Z" fill="#3F3D56"/>
<path d="M119.301 65.1258C119.255 65.1969 119.201 65.263 119.141 65.323L95.8459 89.0112C95.7324 89.1241 95.5976 89.2134 95.4493 89.2738C95.3009 89.3343 95.1421 89.3646 94.982 89.363C94.8218 89.3615 94.6636 89.3281 94.5165 89.2648C94.3694 89.2016 94.2363 89.1097 94.1251 88.9945L86.3082 80.7452C86.255 80.6899 86.2071 80.6295 86.1654 80.5651C86.0349 80.7885 85.9886 81.0512 86.035 81.3058C86.0813 81.5603 86.2172 81.7899 86.418 81.953L94.0701 89.873C94.1814 89.9881 94.3145 90.08 94.4616 90.1433C94.6087 90.2065 94.7669 90.2399 94.9271 90.2415C95.0872 90.243 95.246 90.2127 95.3943 90.1523C95.5427 90.0919 95.6775 90.0026 95.791 89.8896L119.141 66.6406C119.338 66.4448 119.461 66.1874 119.49 65.9116C119.519 65.6358 119.452 65.3583 119.301 65.1258H119.301Z" fill="#F37335"/>
<path d="M117.139 65.4123L116.189 64.8065C116.289 64.9848 116.326 65.1918 116.293 65.3937C116.261 65.5956 116.161 65.7806 116.01 65.9184C115.859 66.0562 115.665 66.1389 115.461 66.1528C115.257 66.1667 115.054 66.1112 114.886 65.9952L108.737 61.7678C108.597 61.6719 108.487 61.5386 108.42 61.3832C108.352 61.2277 108.329 61.0564 108.354 60.8887C108.379 60.721 108.451 60.5637 108.561 60.4347C108.671 60.3057 108.815 60.2102 108.976 60.1591L108.487 59.847C108.423 59.8065 108.348 59.789 108.273 59.7974C108.198 59.8058 108.128 59.8396 108.075 59.8932L87.3898 80.2214C87.359 80.2526 87.3347 80.2897 87.3183 80.3305C87.302 80.3713 87.294 80.4149 87.2948 80.4588C87.2956 80.5027 87.3051 80.546 87.3229 80.5861C87.3406 80.6263 87.3662 80.6625 87.3982 80.6926L94.9106 88.0127C94.9729 88.0714 95.0556 88.1036 95.1412 88.1024C95.2268 88.1012 95.3085 88.0667 95.3692 88.0063L117.195 65.9234C117.23 65.8886 117.256 65.8463 117.273 65.7998C117.289 65.7532 117.295 65.7036 117.29 65.6546C117.284 65.6055 117.268 65.5583 117.242 65.5163C117.216 65.4744 117.181 65.4389 117.139 65.4123Z" fill="white"/>
<path d="M93.265 75.7327L99.6108 81.7159L114.704 66.8035L107.044 61.8177L93.265 75.7327Z" fill="#E6E6E6"/>
<path d="M114.118 70.4837C114.159 70.5237 114.215 70.5459 114.273 70.5459C114.331 70.5459 114.386 70.5237 114.428 70.4837L115.748 69.1638C115.789 69.1226 115.812 69.0668 115.812 69.0086C115.812 68.9503 115.789 68.8945 115.748 68.8533C115.706 68.8134 115.651 68.7911 115.593 68.7911C115.535 68.7911 115.479 68.8134 115.437 68.8533L114.118 70.1732C114.076 70.2144 114.053 70.2703 114.053 70.3285C114.053 70.3867 114.076 70.4425 114.118 70.4837Z" fill="#3F3D56"/>
<path d="M111.894 72.7073C111.935 72.7484 111.991 72.7715 112.049 72.7715C112.107 72.7715 112.163 72.7484 112.205 72.7073L113.524 71.3873C113.565 71.3461 113.588 71.2903 113.588 71.2322C113.588 71.1741 113.565 71.1184 113.524 71.0773C113.483 71.0362 113.427 71.013 113.369 71.0129C113.311 71.0128 113.255 71.0358 113.214 71.0768L111.894 72.3967C111.853 72.4379 111.83 72.4938 111.83 72.552C111.83 72.6102 111.853 72.666 111.894 72.7073Z" fill="#3F3D56"/>
<path d="M93.4115 82.3506C94.2302 82.3506 94.8939 81.687 94.8939 80.8683C94.8939 80.0496 94.2302 79.386 93.4115 79.386C92.5929 79.386 91.9292 80.0496 91.9292 80.8683C91.9292 81.687 92.5929 82.3506 93.4115 82.3506Z" fill="#F37335"/>
<path d="M54.0389 72.6105C54.0389 72.6105 52.181 84.2889 59.8781 83.2272C59.8781 83.2272 90.4012 76.3263 91.9937 77.9188C93.5862 79.5113 103.487 80.0534 102.97 73.3396C102.452 66.603 92.5245 70.4871 92.5245 70.4871C92.5245 70.4871 77.1303 72.6105 73.9453 71.0179C70.7603 69.4254 61.7361 69.9563 61.7361 69.9563L54.0389 72.6105Z" fill="#A0616A"/>
<path d="M64.9211 35.7173C64.9211 35.7173 52.9773 37.0444 52.9773 54.2966V76.3263L67.5753 70.2217C67.5753 70.2217 73.6799 55.8891 73.1491 51.9078C72.6183 47.9266 72.8836 36.2482 64.9211 35.7173Z" fill="#E6E6E6"/>
</g>
<defs>
<clipPath id="clip0">
<rect width="381" height="231.556" fill="white"/>
</clipPath>
</defs>
</svg>
