<svg width="341" height="276" viewBox="0 0 341 276" fill="none" xmlns="http://www.w3.org/2000/svg">
<g clip-path="url(#clip0)">
<path d="M158.359 0H20.3257V243.805H158.359V0Z" fill="#3F3D56"/>
<path d="M170.5 248.958C264.665 248.958 341 247.185 341 244.998C341 242.811 264.665 241.038 170.5 241.038C76.3354 241.038 0 242.811 0 244.998C0 247.185 76.3354 248.958 170.5 248.958Z" fill="#3F3D56"/>
<path d="M170.5 260.839C235.691 260.839 288.538 259.611 288.538 258.097C288.538 256.583 235.691 255.355 170.5 255.355C105.309 255.355 52.4615 256.583 52.4615 258.097C52.4615 259.611 105.309 260.839 170.5 260.839Z" fill="#3F3D56"/>
<path d="M170.554 272.214C223.733 272.214 266.843 271.213 266.843 269.978C266.843 268.743 223.733 267.741 170.554 267.741C117.375 267.741 74.265 268.743 74.265 269.978C74.265 271.213 117.375 272.214 170.554 272.214Z" fill="#3F3D56"/>
<path d="M158.359 46.7599H20.3257V47.5767H158.359V46.7599Z" fill="#D0CDE1"/>
<path d="M158.359 96.5826H20.3257V97.3994H158.359V96.5826Z" fill="#D0CDE1"/>
<path d="M158.359 146.405H20.3257V147.222H158.359V146.405Z" fill="#D0CDE1"/>
<path d="M158.359 196.228H20.3257V197.045H158.359V196.228Z" fill="#D0CDE1"/>
<path d="M83.6368 108.673L83.6367 108.673L81.203 101.106L80.735 101.521C79.3733 102.767 77.7584 103.706 76.0007 104.271C74.243 104.836 72.384 105.015 70.5507 104.796L69.9286 104.731L72.3622 112.299L72.3621 112.299L74.0326 117.493L74.0326 117.493L79.6531 134.971L79.653 134.971L81.3234 140.165L83.1683 145.902L83.623 145.578C86.6111 143.426 90.2022 142.271 93.8848 142.278L94.4428 142.276L92.598 136.54L92.5981 136.54L90.9276 131.345L90.9276 131.345L85.307 113.868L85.3072 113.868L83.6368 108.673ZM71.0851 105.66C74.6093 105.931 78.0993 104.809 80.8046 102.534L82.8592 108.923L73.1398 112.049L71.0851 105.66ZM73.3899 112.827L83.1091 109.701L84.2794 113.34L74.5602 116.466L73.3899 112.827ZM93.3261 141.472C89.8547 141.566 86.4826 142.651 83.6066 144.597L82.1009 139.915L91.8204 136.79L93.3261 141.472ZM91.5703 136.012L81.8511 139.137L80.6808 135.498L90.4 132.373L91.5703 136.012ZM90.1501 131.595L80.4306 134.721L74.8102 117.243L84.5295 114.118L90.1501 131.595Z" fill="#D0CDE1"/>
<path d="M35.4467 58.8507L35.4466 58.8507L33.013 51.283L32.545 51.6978C31.1833 52.9447 29.5684 53.8829 27.8107 54.4481C26.053 55.0134 24.194 55.1924 22.3607 54.9728L21.7386 54.9086L24.1722 62.4762L24.1721 62.4763L25.8426 67.6706L25.8426 67.6706L31.4631 85.1481L31.463 85.1481L33.1334 90.3424L33.1335 90.3424L34.9783 96.0791L35.433 95.7557C38.421 93.6031 42.0121 92.4483 45.6948 92.4557L46.2527 92.4535L44.4079 86.7169L44.408 86.7168L42.7376 81.5225L42.7375 81.5225L37.117 64.0448L37.1172 64.0448L35.4467 58.8507ZM22.8951 55.837C26.4193 56.1092 29.9095 54.9868 32.6146 52.7115L34.6692 59.1007L24.9498 62.2262L22.8951 55.837ZM25.1999 63.0039L34.9191 59.8784L36.0894 63.5172L26.3702 66.6428L25.1999 63.0039ZM45.1361 91.6489C41.6647 91.7438 38.2926 92.8281 35.4166 94.7744L33.911 90.0924L43.6304 86.9669L45.1361 91.6489ZM43.3803 86.1892L33.6611 89.3147L32.4907 85.6757L42.21 82.5502L43.3803 86.1892ZM41.96 81.7726L32.2406 84.898L26.6202 67.4205L36.3395 64.2949L41.96 81.7726Z" fill="#D0CDE1"/>
<path d="M319.639 47.9766C318.532 47.9766 317.449 47.6483 316.529 47.0332C315.608 46.4181 314.891 45.5439 314.467 44.5211C314.043 43.4982 313.933 42.3727 314.149 41.2869C314.365 40.2011 314.898 39.2037 315.681 38.4209C316.463 37.638 317.461 37.1049 318.547 36.8889C319.632 36.6729 320.758 36.7838 321.781 37.2075C322.804 37.6311 323.678 38.3486 324.293 39.2691C324.908 40.1896 325.236 41.2719 325.236 42.379C325.235 43.863 324.644 45.2858 323.595 46.3352C322.545 47.3846 321.123 47.9749 319.639 47.9766ZM319.639 37.7143C318.716 37.7143 317.814 37.9879 317.047 38.5004C316.28 39.013 315.682 39.7415 315.329 40.5939C314.976 41.4462 314.884 42.3841 315.064 43.289C315.244 44.1939 315.688 45.025 316.34 45.6774C316.993 46.3297 317.824 46.774 318.729 46.954C319.633 47.134 320.571 47.0416 321.424 46.6885C322.276 46.3355 323.005 45.7376 323.517 44.9705C324.03 44.2034 324.303 43.3015 324.303 42.379C324.302 41.1422 323.81 39.9566 322.936 39.0821C322.061 38.2076 320.875 37.7157 319.639 37.7143Z" fill="#3F3D56"/>
<path d="M329.747 210.335H320.538V201.126H329.747V210.335ZM321.247 209.627H329.039V201.835H321.247V209.627Z" fill="#3F3D56"/>
<path d="M181.4 65.9842L175.119 59.2503L181.853 52.9692L188.134 59.7032L181.4 65.9842ZM176.12 59.2851L181.435 64.9831L187.133 59.6684L181.818 53.9704L176.12 59.2851Z" fill="#3F3D56"/>
<path d="M280.93 148.714L267.976 164.431L287.148 187.057L299.929 172.031L280.93 148.714Z" fill="#F37335"/>
<path opacity="0.1" d="M280.93 148.714L267.976 164.431L287.148 187.057L299.929 172.031L280.93 148.714Z" fill="black"/>
<path d="M268.494 164.604C268.781 164.088 269.136 163.614 269.55 163.194L281.448 151.132C281.448 151.132 285.593 150.441 286.457 152.514L271.258 164.95L268.494 164.604Z" fill="#F2F2F2"/>
<path d="M267.89 164.345L285.507 191.289C285.507 191.289 287.234 192.498 288.962 191.807L307.011 179.631L287.839 150.614L270.567 164.086L267.89 164.345Z" fill="#F37335"/>
<path d="M290.194 161.347L278.347 169.323L281.304 173.715L293.151 165.739L290.194 161.347Z" fill="#3F3D56"/>
<path d="M282.712 142.322C282.712 142.322 284.345 154.573 278.628 154.165C272.911 153.756 275.769 143.138 275.769 143.138L282.712 142.322Z" fill="#FFB8B8"/>
<path d="M237.79 98.2162L230.847 97.3994V96.5826L224.313 95.7659C224.313 95.7659 210.019 122.719 210.836 139.871C211.653 157.023 222.679 232.166 222.679 232.166C222.679 232.166 239.831 230.532 242.282 225.632L239.423 208.888L237.79 188.877C237.79 188.877 248.816 244.826 253.716 244.826C258.617 244.826 272.91 241.967 271.685 239.925C270.46 237.883 255.758 174.992 255.758 174.992L254.125 144.363L250.449 99.4413L237.79 98.2162Z" fill="#2F2E41"/>
<path d="M243.507 57.3778C249.822 57.3778 254.942 52.2583 254.942 45.9431C254.942 39.6279 249.822 34.5084 243.507 34.5084C237.192 34.5084 232.072 39.6279 232.072 45.9431C232.072 52.2583 237.192 57.3778 243.507 57.3778Z" fill="#FFB8B8"/>
<path d="M243.915 53.7024C243.915 53.7024 248.408 63.912 245.141 68.4042C241.873 72.8964 262.701 61.0533 262.701 61.0533C262.701 61.0533 252.491 51.2521 252.083 46.7599L243.915 53.7024Z" fill="#FFB8B8"/>
<path d="M262.701 59.4198C262.701 59.4198 252.083 65.9539 243.507 63.5036L222.271 98.2162L257.392 104.75L265.151 60.6449L262.701 59.4198Z" fill="#D0CDE1"/>
<path d="M257.8 58.1946C257.8 58.1946 259.434 56.1527 261.476 57.3779C263.518 58.603 276.586 59.0114 277.403 64.3204C278.219 69.6294 257.8 150.489 257.8 150.489L254.533 149.672C254.533 149.672 258.209 148.447 243.915 144.772C229.622 141.096 227.58 128.845 230.847 114.143C234.114 99.4413 235.339 90.4569 235.339 90.4569L257.8 58.1946Z" fill="#575A89"/>
<path d="M246.078 61.0155C246.078 61.0155 231.664 67.179 231.255 69.221C230.847 71.2629 215.328 108.017 215.328 108.017L212.061 110.876L213.695 112.101L201.852 138.238C201.852 138.238 202.26 141.505 208.386 141.505H212.061C212.061 141.505 218.187 110.468 222.271 104.75C226.355 99.0329 252.732 66.2866 246.078 61.0155Z" fill="#575A89"/>
<path d="M272.094 62.2784C272.094 62.2784 277.403 60.6449 278.628 71.2629C279.853 81.8808 279.445 88.8233 279.445 88.8233L284.754 144.363L273.319 145.589L263.109 83.106L272.094 62.2784Z" fill="#575A89"/>
<path d="M225.946 229.307C225.946 229.307 225.946 237.475 222.271 238.7C218.596 239.925 207.569 249.726 220.637 249.318C233.706 248.91 232.481 242.784 232.481 242.784V241.15L235.748 242.784L242.282 241.15C242.282 241.15 244.324 226.857 242.282 225.632C240.24 224.407 225.946 229.307 225.946 229.307Z" fill="#2F2E41"/>
<path d="M256.575 242.784C256.575 242.784 256.984 255.035 252.083 260.753C247.182 266.47 241.873 274.229 248.408 275.046C254.942 275.863 266.785 270.962 266.376 268.104C265.968 265.245 266.376 264.428 266.376 264.428H268.418L271.685 261.978C271.685 261.978 273.727 241.967 270.052 240.334C266.376 238.7 256.575 242.784 256.575 242.784Z" fill="#2F2E41"/>
<path d="M221.454 88.415L224.313 84.3311C224.313 84.3311 229.622 79.4305 233.298 81.8808C236.973 84.3311 226.418 91.4384 226.418 91.4384H223.468L222.271 92.256L221.454 88.415Z" fill="#FFB8B8"/>
<path d="M237.177 98.012C238.079 98.012 238.811 97.2806 238.811 96.3784C238.811 95.4763 238.079 94.7449 237.177 94.7449C236.275 94.7449 235.544 95.4763 235.544 96.3784C235.544 97.2806 236.275 98.012 237.177 98.012Z" fill="#2F2E41"/>
<path d="M236.768 104.138C237.67 104.138 238.402 103.406 238.402 102.504C238.402 101.602 237.67 100.871 236.768 100.871C235.866 100.871 235.135 101.602 235.135 102.504C235.135 103.406 235.866 104.138 236.768 104.138Z" fill="#2F2E41"/>
<path d="M217.371 93.724L222.271 84.3311C222.271 84.3311 222.331 93.0059 225.364 93.1607L219.004 102.3L217.371 93.724Z" fill="#575A89"/>
<path d="M228.622 42.5679C228.622 42.5679 222.017 23.8562 243.546 25.8341C243.546 25.8341 257.387 20.0962 265.983 37.1047L274.824 54.9699L272.22 54.2015L271.643 56.8111L268.07 58.5794L265.764 55.7174L265.819 59.7826L235.533 69.5136C235.533 69.5136 247.634 58.3398 244.699 43.6009L242.658 46.958L228.622 42.5679Z" fill="#2F2E41"/>
<path d="M128.955 185.774V190.286C128.969 191.467 128.514 192.606 127.69 193.452C126.866 194.298 125.74 194.782 124.559 194.799H111.707C110.526 194.782 109.4 194.298 108.576 193.452C107.752 192.606 107.297 191.467 107.311 190.286V185.774C107.297 184.592 107.752 183.454 108.576 182.608C109.4 181.762 110.526 181.278 111.707 181.261H115.766V180.914H120.5V181.261H124.559C125.74 181.278 126.866 181.762 127.69 182.608C128.514 183.454 128.969 184.592 128.955 185.774Z" fill="#F37335"/>
<path d="M128.139 178.872H123.238V171.929H120.788V168.344C120.973 168.408 121.168 168.44 121.364 168.438C122.679 168.438 124.725 167.339 126.485 165.918C128.101 164.536 129.293 162.725 129.923 160.695L130.074 160.143L129.507 160.176C127.387 160.357 125.362 161.136 123.667 162.422C122.564 163.284 121.594 164.304 120.788 165.448V160.29C121.862 159.568 122.421 156.958 122.421 154.369C122.36 152.243 121.695 150.178 120.506 148.415L120.175 147.953L119.844 148.415C118.655 150.178 117.991 152.243 117.929 154.369C117.929 157.268 118.632 160.196 119.971 160.466V171.929H117.521V178.872H112.62C111.213 178.873 109.863 179.433 108.868 180.428C107.872 181.424 107.313 182.773 107.311 184.181V189.49C107.313 190.897 107.872 192.247 108.868 193.242C109.863 194.238 111.213 194.797 112.62 194.799H128.139C129.546 194.797 130.896 194.238 131.891 193.242C132.887 192.247 133.446 190.897 133.448 189.49V184.181C133.446 182.773 132.887 181.424 131.891 180.428C130.896 179.433 129.546 178.873 128.139 178.872ZM124.177 163.055C125.57 162.004 127.205 161.32 128.931 161.066C128.317 162.699 127.3 164.15 125.974 165.285C123.487 167.286 121.298 167.943 120.943 167.498C120.584 167.057 121.694 165.06 124.177 163.055ZM118.746 154.369C118.799 152.625 119.29 150.923 120.175 149.419C121.062 150.922 121.553 152.625 121.605 154.369C121.605 157.562 120.743 159.678 120.175 159.678C119.608 159.678 118.746 157.562 118.746 154.369V154.369ZM132.631 189.49C132.63 190.681 132.157 191.823 131.314 192.665C130.472 193.508 129.33 193.981 128.139 193.982H112.62C111.429 193.981 110.287 193.508 109.444 192.665C108.602 191.823 108.129 190.681 108.128 189.49V184.181C108.129 182.99 108.602 181.847 109.444 181.005C110.287 180.163 111.429 179.689 112.62 179.689H118.338V172.746H122.421V179.689H128.139C129.33 179.689 130.472 180.163 131.314 181.005C132.157 181.847 132.63 182.99 132.631 184.181V189.49Z" fill="#D0CDE1"/>
<path d="M67.6983 110.672V112.071H57.4887V110.672H56.6719V138.442H57.4887V137.591H67.6983V138.442H68.5151V110.672H67.6983ZM67.6983 132.834H57.4887V116.828H67.6983V132.834Z" fill="#F37335"/>
<path d="M51.7714 113.531V114.786H41.5618V113.531H40.7451V138.442H41.5618V137.679H51.7714V138.442H52.5881V113.531H51.7714ZM51.7714 133.412H41.5618V119.053H51.7714V133.412Z" fill="#F37335"/>
<path d="M35.844 110.672V111.989H25.6345V110.672H24.8177V136.808H25.6345V136.008H35.844V136.808H36.6608V110.672H35.844ZM35.844 131.531H25.6345V116.465H35.844V131.531Z" fill="#F37335"/>
<path d="M151.825 61.6659V63.065H141.615V61.6659H140.799V89.4359H141.615V88.585H151.825V89.4359H152.642V61.6659H151.825ZM151.825 83.8285H141.615V67.8215H151.825V83.8285Z" fill="#F37335"/>
<path d="M135.898 64.5246V65.7797H125.689V64.5246H124.872V89.4359H125.689V88.6726H135.898V89.4359H136.715V64.5246H135.898ZM135.898 84.4058H125.689V70.0466H135.898V84.4058Z" fill="#F37335"/>
<path d="M119.971 61.6659V62.9827H109.762V61.6659H108.945V87.8024H109.762V87.0016H119.971V87.8024H120.788V61.6659H119.971ZM119.971 82.5248H109.762V67.4595H119.971V82.5248Z" fill="#F37335"/>
<path d="M67.9433 102.945C66.2652 103.716 64.4402 104.115 62.5935 104.115C60.7468 104.115 58.9218 103.716 57.2437 102.945L56.6719 102.696V145.944L57.2028 145.772C60.707 144.637 64.4801 144.637 67.9842 145.772L68.5151 145.944V102.696L67.9433 102.945ZM57.4887 134.46V116.099H67.6983V134.46H57.4887ZM67.6983 135.277V139.099H57.4887V135.277H67.6983ZM57.4887 115.282V111.46H67.6983V115.282H57.4887ZM67.6983 144.833C64.3641 143.864 60.8229 143.864 57.4887 144.833V139.916H67.6983V144.833ZM67.6983 110.643H57.4887V103.934C60.7609 105.269 64.4261 105.269 67.6983 103.934V110.643Z" fill="#D0CDE1"/>
<path d="M52.0563 145.774L52.5881 145.942V102.696L52.0154 102.947C50.3375 103.717 48.5129 104.116 46.6666 104.116C44.8203 104.116 42.9957 103.717 41.3177 102.947L40.7451 102.696V145.942L41.2769 145.774C44.7804 144.639 48.5528 144.639 52.0563 145.774ZM51.7714 139.1H41.5618V135.277H51.7714V139.1ZM51.7714 115.284H41.5618V111.462H51.7714V115.284ZM41.5618 103.934C44.8338 105.27 48.4994 105.27 51.7714 103.934V110.645H41.5618V103.934ZM41.5618 116.101H51.7714V134.46H41.5618V116.101ZM41.5618 139.916H51.7714V144.835C48.4377 143.862 44.8955 143.862 41.5618 144.835V139.916Z" fill="#D0CDE1"/>
<path d="M36.129 145.774L36.6608 145.942V102.696L36.0881 102.947C34.4101 103.717 32.5856 104.116 30.7392 104.116C28.8929 104.116 27.0683 103.717 25.3904 102.947L24.8177 102.696V145.942L25.3495 145.774C28.853 144.639 32.6255 144.639 36.129 145.774ZM35.844 139.1H25.6345V135.277H35.844V139.1ZM35.844 115.284H25.6345V111.462H35.844V115.284ZM25.6345 103.934C28.9064 105.27 32.572 105.27 35.844 103.934V110.645H25.6345V103.934ZM25.6345 116.101H35.844V134.46H25.6345V116.101ZM25.6345 139.916H35.844V144.835C32.5103 143.862 28.9682 143.862 25.6345 144.835V139.916Z" fill="#D0CDE1"/>
<path d="M120.256 95.9509L120.788 96.1196V52.8729L120.215 53.1243C118.537 53.8947 116.713 54.2935 114.866 54.2935C113.02 54.2935 111.196 53.8947 109.518 53.1243L108.945 52.8729V96.1196L109.477 95.9509C112.98 94.8163 116.753 94.8163 120.256 95.9509ZM119.971 89.2768H109.762V85.4542H119.971V89.2768ZM119.971 65.4614H109.762V61.6388H119.971V65.4614ZM109.762 54.1108C113.034 55.4472 116.699 55.4472 119.971 54.1108V60.822H109.762V54.1108ZM109.762 66.2781H119.971V84.6374H109.762V66.2781ZM109.762 90.0936H119.971V95.0117C116.638 94.0394 113.095 94.0394 109.762 95.0117V90.0936Z" fill="#D0CDE1"/>
<path d="M136.183 95.9509L136.715 96.1196V52.8729L136.142 53.1243C134.464 53.8947 132.64 54.2935 130.793 54.2935C128.947 54.2935 127.122 53.8947 125.444 53.1243L124.872 52.8729V96.1196L125.404 95.9509C128.907 94.8163 132.679 94.8163 136.183 95.9509ZM135.898 89.2768H125.689V85.4542H135.898V89.2768ZM135.898 65.4614H125.689V61.6388H135.898V65.4614ZM125.689 54.1108C128.961 55.4472 132.626 55.4472 135.898 54.1108V60.822H125.689V54.1108ZM125.689 66.2781H135.898V84.6374H125.689V66.2781ZM125.689 90.0936H135.898V95.0117C132.564 94.0394 129.022 94.0394 125.689 95.0117V90.0936Z" fill="#D0CDE1"/>
<path d="M152.11 95.9509L152.642 96.1196V52.8729L152.069 53.1243C150.391 53.8947 148.567 54.2935 146.72 54.2935C144.874 54.2935 143.049 53.8947 141.371 53.1243L140.799 52.8729V96.1196L141.33 95.9509C144.834 94.8163 148.606 94.8163 152.11 95.9509ZM151.825 89.2768H141.615V85.4542H151.825V89.2768ZM151.825 65.4614H141.615V61.6388H151.825V65.4614ZM141.615 54.1108C144.887 55.4472 148.553 55.4472 151.825 54.1108V60.822H141.615V54.1108ZM141.615 66.2781H151.825V84.6374H141.615V66.2781ZM141.615 95.0117V90.0936H151.825V95.0117C148.491 94.0394 144.949 94.0394 141.615 95.0117Z" fill="#D0CDE1"/>
</g>
<defs>
<clipPath id="clip0">
<rect width="341" height="275.137" fill="white"/>
</clipPath>
</defs>
</svg>
