<svg width="344" height="95" viewBox="0 0 344 95" fill="none" xmlns="http://www.w3.org/2000/svg">
<path d="M41.8594 3.76562V15.1094C41.5469 15.1094 41.2188 15.0781 40.875 15.0156H39.9375C36.875 15.0156 34.8281 15.5625 33.7969 16.6562C32.7031 17.8125 32.1562 20.1094 32.1562 23.5469V34.7969C32.1562 39.2031 31.4531 42.3438 30.0469 44.2188C28.5781 46.0625 25.9844 47.375 22.2656 48.1562C25.9844 48.9062 28.5781 50.1719 30.0469 51.9531C31.4531 53.7344 32.1562 56.875 32.1562 61.375V72.7188C32.1562 76.2188 32.7031 78.4844 33.7969 79.5156C34.8281 80.6094 36.8438 81.1562 39.8438 81.1562C40.2188 81.1562 40.5625 81.125 40.875 81.0625H41.8594V92.4062C41.1406 92.4062 40.5 92.4375 39.9375 92.5H38.0156C34.5781 92.5 31.7969 92.2969 29.6719 91.8906C27.3281 91.5156 25.4375 90.9531 24 90.2031C22.0625 89.1719 20.7812 87.7969 20.1562 86.0781C19.4062 84.2656 19.0312 81.25 19.0312 77.0312V65.0312C19.0312 60.875 18.25 57.9375 16.6875 56.2188C15.1562 54.5312 12.5312 53.6875 8.8125 53.6875H7.96875C7.71875 53.75 7.4375 53.7812 7.125 53.7812V42.4844C7.4375 42.4844 7.71875 42.5156 7.96875 42.5781H8.8125C12.4688 42.5781 15.0781 41.7188 16.6406 40C18.2344 38.25 19.0312 35.2969 19.0312 31.1406V19.2344C19.0312 14.9531 19.4062 11.9219 20.1562 10.1406C20.9062 8.32812 22.1875 6.9375 24 5.96875C25.4375 5.21875 27.3281 4.65625 29.6719 4.28125C31.7969 3.875 34.6094 3.67188 38.1094 3.67188H39.9375C40.5 3.73437 41.1406 3.76562 41.8594 3.76562Z" fill="url(#paint0_linear)" fill-opacity="0.88"/>
<path d="M77.2344 3.76562C77.9531 3.76562 78.5938 3.73437 79.1562 3.67188H80.9844C84.4844 3.67188 87.2969 3.875 89.4219 4.28125C91.6719 4.65625 93.5625 5.21875 95.0938 5.96875C96.875 6.9375 98.1875 8.32812 99.0312 10.1406C99.75 12.0781 100.109 15.1094 100.109 19.2344V31.1406C100.109 35.3594 100.875 38.2969 102.406 39.9531C103.906 41.7031 106.531 42.5781 110.281 42.5781H111.125C111.375 42.5156 111.656 42.4844 111.969 42.4844V53.7812C111.656 53.7812 111.375 53.75 111.125 53.6875H110.281C106.531 53.6875 103.906 54.5625 102.406 56.3125C100.875 58.0312 100.109 60.9375 100.109 65.0312V77.0312C100.109 81.125 99.75 84.1719 99.0312 86.1719C98.1875 87.9531 96.875 89.3281 95.0938 90.2969C93.5625 91.1094 91.7969 91.6406 89.7969 91.8906C87.6719 92.2969 84.8906 92.5 81.4531 92.5H79.3438C78.7812 92.4375 78.0781 92.4062 77.2344 92.4062V81.0625H78.3125C78.625 81.125 78.9375 81.1562 79.25 81.1562C82.3125 81.1562 84.3594 80.6094 85.3906 79.5156C86.4219 78.5156 86.9375 76.25 86.9375 72.7188V61.375C86.9375 56.9062 87.6406 53.8125 89.0469 52.0938C90.5469 50.2188 93.1406 48.9062 96.8281 48.1562C93.1094 47.375 90.5156 46.0625 89.0469 44.2188C87.6406 42.4375 86.9375 39.2969 86.9375 34.7969V23.5469C86.9375 20.0156 86.4219 17.7188 85.3906 16.6562C84.3594 15.5625 82.375 15.0156 79.4375 15.0156H78.4062C78.0625 15.0781 77.6719 15.1094 77.2344 15.1094V3.76562Z" fill="url(#paint1_linear)" fill-opacity="0.88"/>
<path d="M80 59C80 65.6274 74.6274 71 68 71C61.3726 71 56 65.6274 56 59C56 52.3726 61.3726 47 68 47C74.6274 47 80 52.3726 80 59Z" fill="url(#paint2_linear)" fill-opacity="0.5"/>
<path d="M80 59C80 65.6274 74.6274 71 68 71C61.3726 71 56 65.6274 56 59C56 52.3726 61.3726 47 68 47C74.6274 47 80 52.3726 80 59Z" fill="url(#paint3_linear)" fill-opacity="0.5"/>
<path d="M65.5234 33.0234V43.2422C64.1797 41.7891 62.9141 40.7344 61.7266 40.0781C60.3984 39.4375 59.0234 39.1172 57.6016 39.1172C54.9297 39.1172 52.75 40.0312 51.0625 41.8594C50.4844 42.5156 50.0156 43.2031 49.6562 43.9219C49.2969 44.625 49.0234 45.4297 48.8359 46.3359C48.6641 47.2266 48.5781 48.1328 48.5781 49.0547C48.5781 51.8047 49.4219 54.0938 51.1094 55.9219C52.8125 57.7188 54.9766 58.6172 57.6016 58.6172C59.0078 58.6172 60.3828 58.2812 61.7266 57.6094C62.9141 57 64.1797 55.9531 65.5234 54.4688V64.7109C63.7891 65.5234 62.3125 66.0625 61.0938 66.3281C59.5781 66.6875 58.0938 66.8672 56.6406 66.8672C54.7969 66.8672 53.0625 66.6406 51.4375 66.1875C49.8125 65.75 48.3594 65.0781 47.0781 64.1719C44.5156 62.4219 42.5625 60.2656 41.2188 57.7031C39.875 55.0469 39.2031 52.1016 39.2031 48.8672C39.2031 46.2734 39.6406 43.8906 40.5156 41.7188C40.9062 40.6719 41.3984 39.6875 41.9922 38.7656C42.6016 37.8281 43.3828 36.8594 44.3359 35.8594C45.9766 34.1719 47.8203 32.9219 49.8672 32.1094C51.8984 31.2812 54.1562 30.8672 56.6406 30.8672C58.0625 30.8672 59.5469 31.0391 61.0938 31.3828C62.625 31.7891 64.1016 32.3359 65.5234 33.0234Z" fill="#FFA800"/>
<path d="M132.52 62.36C130.12 62.36 127.973 61.88 126.08 60.92C124.187 59.96 122.707 58.6267 121.64 56.92C120.6 55.2133 120.08 53.28 120.08 51.12C120.08 48.96 120.6 47.04 121.64 45.36C122.707 43.6533 124.187 42.3333 126.08 41.4C127.973 40.44 130.12 39.96 132.52 39.96C134.973 39.96 137.093 40.4933 138.88 41.56C140.667 42.6 141.933 44.0533 142.68 45.92L136.8 48.92C135.813 46.9733 134.373 46 132.48 46C131.12 46 129.987 46.4533 129.08 47.36C128.2 48.2667 127.76 49.52 127.76 51.12C127.76 52.7467 128.2 54.0267 129.08 54.96C129.987 55.8667 131.12 56.32 132.48 56.32C134.373 56.32 135.813 55.3467 136.8 53.4L142.68 56.4C141.933 58.2667 140.667 59.7333 138.88 60.8C137.093 61.84 134.973 62.36 132.52 62.36ZM156.187 62.36C153.867 62.36 151.774 61.88 149.907 60.92C148.041 59.96 146.574 58.6267 145.507 56.92C144.467 55.2133 143.947 53.28 143.947 51.12C143.947 48.9867 144.467 47.0667 145.507 45.36C146.574 43.6533 148.027 42.3333 149.867 41.4C151.734 40.44 153.841 39.96 156.187 39.96C158.534 39.96 160.641 40.44 162.507 41.4C164.374 42.3333 165.827 43.6533 166.867 45.36C167.907 47.04 168.427 48.96 168.427 51.12C168.427 53.28 167.907 55.2133 166.867 56.92C165.827 58.6267 164.374 59.96 162.507 60.92C160.641 61.88 158.534 62.36 156.187 62.36ZM156.187 56.32C157.521 56.32 158.614 55.8667 159.467 54.96C160.321 54.0267 160.747 52.7467 160.747 51.12C160.747 49.52 160.321 48.2667 159.467 47.36C158.614 46.4533 157.521 46 156.187 46C154.854 46 153.761 46.4533 152.907 47.36C152.054 48.2667 151.627 49.52 151.627 51.12C151.627 52.7467 152.054 54.0267 152.907 54.96C153.761 55.8667 154.854 56.32 156.187 56.32ZM194.988 32.32V62H187.748V59.84C186.334 61.52 184.214 62.36 181.388 62.36C179.414 62.36 177.614 61.9067 175.988 61C174.361 60.0667 173.068 58.7467 172.108 57.04C171.174 55.3333 170.708 53.36 170.708 51.12C170.708 48.88 171.174 46.92 172.108 45.24C173.068 43.5333 174.361 42.2267 175.988 41.32C177.614 40.4133 179.414 39.96 181.388 39.96C183.974 39.96 185.974 40.7067 187.388 42.2V32.32H194.988ZM182.988 56.32C184.294 56.32 185.374 55.8667 186.228 54.96C187.081 54.0267 187.508 52.7467 187.508 51.12C187.508 49.52 187.081 48.2667 186.228 47.36C185.401 46.4533 184.321 46 182.988 46C181.654 46 180.561 46.4533 179.708 47.36C178.854 48.2667 178.428 49.52 178.428 51.12C178.428 52.7467 178.854 54.0267 179.708 54.96C180.561 55.8667 181.654 56.32 182.988 56.32ZM222.038 51.2C222.038 51.2533 221.998 51.88 221.918 53.08H206.158C206.478 54.2 207.091 55.0667 207.997 55.68C208.931 56.2667 210.091 56.56 211.478 56.56C212.518 56.56 213.411 56.4133 214.158 56.12C214.931 55.8267 215.704 55.3467 216.478 54.68L220.478 58.84C218.371 61.1867 215.291 62.36 211.238 62.36C208.704 62.36 206.478 61.88 204.558 60.92C202.638 59.96 201.144 58.6267 200.077 56.92C199.038 55.2133 198.518 53.28 198.518 51.12C198.518 48.9867 199.024 47.08 200.038 45.4C201.078 43.6933 202.504 42.36 204.318 41.4C206.131 40.44 208.171 39.96 210.438 39.96C212.598 39.96 214.558 40.4133 216.318 41.32C218.078 42.2 219.464 43.4933 220.478 45.2C221.518 46.88 222.038 48.88 222.038 51.2ZM210.478 45.36C209.304 45.36 208.318 45.6933 207.518 46.36C206.744 47.0267 206.251 47.9333 206.038 49.08H214.918C214.704 47.9333 214.198 47.0267 213.398 46.36C212.624 45.6933 211.651 45.36 210.478 45.36ZM239.662 39.96C242.355 39.96 244.515 40.76 246.142 42.36C247.795 43.96 248.622 46.3733 248.622 49.6V62H241.022V50.84C241.022 47.88 239.835 46.4 237.462 46.4C236.155 46.4 235.102 46.8267 234.302 47.68C233.528 48.5333 233.142 49.8133 233.142 51.52V62H225.542V40.32H232.782V42.68C233.635 41.8 234.648 41.1333 235.822 40.68C236.995 40.2 238.275 39.96 239.662 39.96ZM253.393 40.32H260.993V62H253.393V40.32ZM257.193 37.92C255.806 37.92 254.686 37.5333 253.833 36.76C252.98 35.9867 252.553 35.0267 252.553 33.88C252.553 32.7333 252.98 31.7733 253.833 31C254.686 30.2267 255.806 29.84 257.193 29.84C258.58 29.84 259.7 30.2133 260.553 30.96C261.406 31.68 261.833 32.6133 261.833 33.76C261.833 34.96 261.406 35.96 260.553 36.76C259.7 37.5333 258.58 37.92 257.193 37.92ZM280.892 61.12C280.252 61.52 279.466 61.8267 278.532 62.04C277.626 62.2533 276.652 62.36 275.612 62.36C272.786 62.36 270.612 61.6667 269.092 60.28C267.572 58.8933 266.812 56.8267 266.812 54.08V46.8H263.652V41.12H266.812V35.48H274.412V41.12H279.372V46.8H274.412V54C274.412 54.7733 274.612 55.3867 275.012 55.84C275.439 56.2667 275.999 56.48 276.692 56.48C277.572 56.48 278.346 56.2533 279.012 55.8L280.892 61.12ZM283.823 40.32H291.423V62H283.823V40.32ZM287.623 37.92C286.236 37.92 285.116 37.5333 284.263 36.76C283.409 35.9867 282.983 35.0267 282.983 33.88C282.983 32.7333 283.409 31.7733 284.263 31C285.116 30.2267 286.236 29.84 287.623 29.84C289.009 29.84 290.129 30.2133 290.983 30.96C291.836 31.68 292.263 32.6133 292.263 33.76C292.263 34.96 291.836 35.96 290.983 36.76C290.129 37.5333 289.009 37.92 287.623 37.92ZM319.202 40.32L310.242 62H302.402L293.482 40.32H301.282L306.482 53.56L311.962 40.32H319.202ZM329.664 39.96C333.264 39.96 336.011 40.7867 337.904 42.44C339.798 44.0667 340.744 46.5733 340.744 49.96V62H333.664V59.2C332.571 61.3067 330.438 62.36 327.264 62.36C325.584 62.36 324.131 62.0667 322.904 61.48C321.678 60.8933 320.744 60.1067 320.104 59.12C319.491 58.1067 319.184 56.96 319.184 55.68C319.184 53.6267 319.971 52.04 321.544 50.92C323.118 49.7733 325.544 49.2 328.824 49.2H333.144C333.011 46.9067 331.478 45.76 328.544 45.76C327.504 45.76 326.451 45.9333 325.384 46.28C324.318 46.6 323.411 47.0533 322.664 47.64L320.104 42.48C321.304 41.68 322.758 41.0667 324.464 40.64C326.198 40.1867 327.931 39.96 329.664 39.96ZM329.384 57.56C330.264 57.56 331.038 57.3467 331.704 56.92C332.371 56.4933 332.851 55.8667 333.144 55.04V53.16H329.864C327.651 53.16 326.544 53.8933 326.544 55.36C326.544 56.0267 326.798 56.56 327.304 56.96C327.811 57.36 328.504 57.56 329.384 57.56Z" fill="#F37335"/>
<defs>
<linearGradient id="paint0_linear" x1="24" y1="0" x2="24" y2="95" gradientUnits="userSpaceOnUse">
<stop stop-color="#F12711"/>
<stop offset="1" stop-color="#FFA800"/>
</linearGradient>
<linearGradient id="paint1_linear" x1="95" y1="0" x2="95" y2="95" gradientUnits="userSpaceOnUse">
<stop stop-color="#F12711"/>
<stop offset="1" stop-color="#FFA800"/>
</linearGradient>
<linearGradient id="paint2_linear" x1="68" y1="47" x2="68" y2="71" gradientUnits="userSpaceOnUse">
<stop stop-color="#FFA800"/>
<stop offset="1" stop-color="#F1B211" stop-opacity="0.4"/>
</linearGradient>
<linearGradient id="paint3_linear" x1="68" y1="47" x2="68" y2="71" gradientUnits="userSpaceOnUse">
<stop stop-color="#FFA800"/>
<stop offset="1" stop-color="#F1B211" stop-opacity="0.4"/>
</linearGradient>
</defs>
</svg>
