<svg width="20" height="20" viewBox="0 0 20 20" fill="none" xmlns="http://www.w3.org/2000/svg">
<path d="M16.875 3.32031H15.7031C15.6172 3.32031 15.5469 3.39062 15.5469 3.47656V13.5938H6.0547V12.168C6.0547 12.0371 5.90236 11.9629 5.8008 12.0449L3.02931 14.2324C3.01064 14.247 2.99553 14.2657 2.98515 14.287C2.97476 14.3084 2.96936 14.3318 2.96936 14.3555C2.96936 14.3792 2.97476 14.4026 2.98515 14.4239C2.99553 14.4452 3.01064 14.4639 3.02931 14.4785L5.8008 16.666C5.90431 16.748 6.0547 16.6738 6.0547 16.543V15.0781H15.7813C16.4707 15.0781 17.0313 14.5176 17.0313 13.8281V3.47656C17.0313 3.39062 16.961 3.32031 16.875 3.32031Z" fill="black"/>
</svg>
