<svg width="24" height="24" viewBox="0 0 24 24" fill="none" xmlns="http://www.w3.org/2000/svg">
<rect width="24" height="24" fill="white"/>
<path d="M12.6511 10.0059C12.1686 8.6357 11.2052 7.48714 9.93989 6.77355C8.67455 6.05996 7.19324 5.82984 5.77105 6.12591C3.48105 6.58591 1.62105 8.41591 1.14105 10.7059C0.947536 11.583 0.953207 12.4924 1.15765 13.367C1.36209 14.2416 1.7601 15.0592 2.32237 15.7597C2.88464 16.4601 3.59684 17.0255 4.40656 17.4142C5.21627 17.803 6.10286 18.0052 7.00105 18.0059C8.241 18.006 9.4504 17.6212 10.4624 16.9047C11.4744 16.1883 12.2391 15.1754 12.6511 14.0059H17.0011V16.0059C17.0011 17.1059 17.9011 18.0059 19.0011 18.0059C20.1011 18.0059 21.0011 17.1059 21.0011 16.0059V14.0059C22.1011 14.0059 23.0011 13.1059 23.0011 12.0059C23.0011 10.9059 22.1011 10.0059 21.0011 10.0059H12.6511ZM7.00105 14.0059C5.90105 14.0059 5.00105 13.1059 5.00105 12.0059C5.00105 10.9059 5.90105 10.0059 7.00105 10.0059C8.10105 10.0059 9.00105 10.9059 9.00105 12.0059C9.00105 13.1059 8.10105 14.0059 7.00105 14.0059Z" fill="#979797"/>
</svg>
