<svg width="384" height="291" viewBox="0 0 384 291" fill="none" xmlns="http://www.w3.org/2000/svg">
<g clip-path="url(#clip0)">
<path d="M206.43 290.856C283.675 290.856 346.294 272.965 346.294 250.895C346.294 228.825 283.675 210.934 206.43 210.934C129.186 210.934 66.5669 228.825 66.5669 250.895C66.5669 272.965 129.186 290.856 206.43 290.856Z" fill="#F5F5F5"/>
<path d="M339.5 95.4427C339.5 95.4427 314.724 120.219 328.711 156.983C342.697 193.747 304.734 254.887 304.734 254.887C304.734 254.887 305.134 254.827 305.897 254.695C356.783 245.712 382.067 187.513 353.77 144.279C343.264 128.207 334.613 109.349 339.5 95.4427Z" fill="#F37335"/>
<path d="M339.5 95.4427C339.5 95.4427 325.514 125.813 339.5 150.589C353.486 175.365 341.898 244.897 304.734 254.887" stroke="#535461" stroke-width="0.799219" stroke-miterlimit="10"/>
<path d="M383.625 195.653C383.625 195.653 355.353 191.149 352.775 216.488C350.198 241.828 298.428 245.336 298.428 245.336C298.428 245.336 298.764 245.568 299.4 245.984C342.158 274.052 383.034 263.862 376.876 226.59C374.57 212.736 374.754 198.818 383.625 195.653Z" fill="#F37335"/>
<path opacity="0.2" d="M383.625 195.653C383.625 195.653 355.353 191.149 352.775 216.488C350.198 241.828 298.428 245.336 298.428 245.336C298.428 245.336 298.764 245.568 299.4 245.984C342.158 274.052 383.034 263.862 376.876 226.59C374.57 212.736 374.754 198.818 383.625 195.653Z" fill="#F5F5F5"/>
<path d="M383.625 195.653C383.625 195.653 361.679 200.472 363.481 220.429C365.283 240.385 330.877 264.298 298.412 245.328" stroke="#535461" stroke-width="0.799219" stroke-miterlimit="10"/>
<path opacity="0.2" d="M60.5006 0.0312218C57.2798 -0.0806688 53.979 0.0312217 50.958 1.15812C42.738 4.22312 38.8418 14.2493 40.1086 22.9328C41.3753 31.6164 46.5862 39.157 51.9929 46.0662C57.3997 52.9755 63.2579 59.7968 66.223 68.0447C67.7016 72.1647 68.3929 76.7802 66.8904 80.8922C64.5727 87.234 57.5835 90.7785 50.874 91.5138C44.1646 92.2491 37.4272 90.8145 30.6938 90.315C27.8685 90.1152 24.9634 90.0912 22.302 91.0183C19.3808 92.0293 16.9472 94.0913 14.7094 96.2412C5.97791 104.673 -1.01125 116.182 0.119641 128.266C1.39839 141.965 12.8032 152.794 25.295 158.6C29.431 160.526 33.8067 162.085 37.4472 164.834C47.0378 172.083 49.1917 185.666 48.2366 197.658C47.2815 209.65 44.0287 221.655 45.839 233.543C47.9689 247.369 57.3957 259.857 70.1112 265.692C81.4402 270.887 95.6183 270.563 105.676 263.214C110.58 259.618 114.288 254.658 117.513 249.515C122.38 241.756 126.33 233.458 129.281 224.788C130.684 220.668 132.003 216.236 135.276 213.371C137.274 211.608 139.863 210.621 142.425 209.854C150.145 207.544 158.277 206.909 166.069 204.855C173.862 202.801 181.702 198.973 185.938 192.127C191.932 182.413 189.135 169.989 189.163 158.56C189.211 132.522 204.792 109.209 210.542 83.8333C212.42 75.5374 213.119 66.3584 208.924 58.9616C206.07 53.9146 201.263 50.3181 196.208 47.5208C185.099 41.3508 172.471 38.6055 160.047 35.9321C142.78 32.2238 121.813 31.7442 108.43 19.748C95.5863 8.2392 78.0155 0.0312218 60.5006 0.0312218Z" fill="#F37335"/>
<g opacity="0.5">
<path opacity="0.5" d="M123.136 100.817C123.135 94.5412 122.152 88.3038 120.223 82.3315L115.427 67.462C115.427 67.2143 115.427 66.9705 115.427 66.7268C115.575 57.1961 108.146 52.4407 105.285 52.9562C102.356 53.4837 94.228 49.4077 94.228 49.4077V49.5196C93.6707 48.878 93.1681 48.191 92.7255 47.4656C94.1298 46.4428 95.3155 45.1496 96.2129 43.662C97.1103 42.1744 97.7013 40.5224 97.9511 38.8031C98.2009 37.0838 98.1046 35.332 97.6676 33.6505C97.2307 31.969 96.4621 30.3918 95.4069 29.0116C96.2854 28.3515 96.9554 27.4526 97.337 26.4221C98.0003 24.556 97.4928 22.4261 96.4139 20.7637C95.9551 20.0697 95.4188 19.4302 94.8154 18.8575C93.9015 17.9521 92.9033 17.1359 91.8344 16.4199C89.169 14.5737 86.2398 12.9873 83.043 12.4238C82.4898 12.2932 81.9138 12.2932 81.3606 12.4238C80.8805 12.6176 80.4235 12.8642 79.9979 13.1591C77.8081 14.4059 75.0827 13.8664 72.5572 13.7345C70.0317 13.6027 66.9627 14.31 66.1635 16.6797C65.9157 17.411 65.9317 18.2022 65.7638 18.9534C65.3642 20.7917 63.9456 22.2183 62.8507 23.7488C61.7558 25.2793 60.9366 27.3452 61.8477 29.0076C62.1594 29.5671 62.6469 30.0826 62.6469 30.722C62.6469 31.1815 62.3752 31.5931 62.2473 32.0327C61.9715 33.0317 62.491 34.0307 63.2903 34.754C63.6347 35.1253 64.0401 35.4348 64.4891 35.6691C65.7559 36.3165 67.2144 36.5163 68.5052 37.1157C69.1494 37.4183 69.7405 37.8231 70.2555 38.3145C70.8862 38.9748 71.3793 39.7541 71.7058 40.6069C72.0324 41.4597 72.186 42.3689 72.1576 43.2817L72.4253 43.3097C72.4253 43.3896 72.4253 43.4655 72.4253 43.5454C72.7051 43.5774 73.0008 43.6054 73.2925 43.6173C73.7121 44.2948 74.1923 44.9328 74.7271 45.5235C74.6365 45.8645 74.5339 46.2108 74.4194 46.5625C73.4803 47.2138 65.7998 52.3288 57.0643 51.098C47.7415 49.7833 42.4107 90.5435 42.4107 90.5435C42.0651 92.8744 41.8968 95.2282 41.9072 97.5846C41.8672 103.579 43.126 111.423 50.1391 110.268L53.8675 109.041V129.202C53.8675 129.202 54.3989 134.724 52.5368 138.393C50.6746 142.061 58.399 140.758 58.399 140.758C58.399 140.758 58.6947 141.066 59.2382 141.59L59.0664 142.073L59.2942 142.305C58.2783 145.778 56.9084 149.138 55.2062 152.331L55.426 152.443C55.2861 152.711 55.2062 152.843 55.2062 152.843C55.2062 152.843 58.0754 154.309 62.0235 156.199C65.1964 166.925 72.1416 191.765 69.8558 196.496L69.9198 196.632C70.3474 197.519 72.737 202.75 72.2535 207.541C71.8179 211.825 77.7481 231.29 79.962 238.359L78.915 238.571L82.6433 251.982L81.8441 260.661C81.8441 260.661 77.3166 272.757 87.9701 270.392C98.6237 268.026 95.6946 258.296 95.6946 258.296L95.9623 238.571C95.9623 238.571 94.9353 237.999 93.6686 237.452C92.7974 235.098 90.8993 229.536 90.8993 225.687C90.8993 220.692 87.4347 199.125 87.4347 199.125V199.081V198.997V198.974L87.4147 198.686V198.638C87.4147 198.37 87.3707 198.002 87.3388 197.555V197.531C86.9391 191.701 85.7403 171.892 86.6155 161.566C87.3851 161.041 88.1858 160.564 89.0131 160.135C91.6066 166.689 98.292 184.396 97.8645 191.825C97.333 201.016 97.7326 193.799 97.8645 192.624C97.9044 192.26 97.9324 192.7 97.9444 193.687C97.9444 193.867 97.9444 194.066 97.9444 194.278C97.9444 194.49 97.9444 194.726 97.9444 194.969C97.9444 195.213 97.9444 195.477 97.9444 195.769C97.9444 195.907 97.9444 196.048 97.9444 196.192C97.9444 196.48 97.9444 196.781 97.9444 197.095C97.9444 197.253 97.9444 197.412 97.9444 197.575C97.9444 198.374 97.9444 199.261 97.9164 200.184C97.9164 200.368 97.9164 200.555 97.9164 200.744C97.9164 201.307 97.9164 201.883 97.8884 202.466C97.8884 203.265 97.8565 204.041 97.8405 204.844C97.8005 206.642 97.7486 208.46 97.6847 210.163C97.6847 210.352 97.678 210.54 97.6647 210.726C97.6513 211.099 97.6367 211.464 97.6207 211.821C97.6047 212.178 97.5887 212.527 97.5728 212.868C97.5568 213.206 97.5395 213.535 97.5208 213.855C97.5008 214.231 97.4769 214.59 97.4569 214.934L96.0103 214.726L95.7026 218.051C95.2179 223.329 95.9 228.65 97.7006 233.636C98.1961 235.002 98.5798 236.133 98.6637 236.537C98.9314 237.852 98.6637 247.326 98.6637 247.326C98.6637 247.326 100.262 259.686 107.723 257.316C111.08 256.25 112.71 253.005 113.489 249.752C114.354 245.981 114.031 242.035 112.566 238.455C111.507 235.794 110.424 232.061 111.187 229.176C112.518 224.181 112.518 217.08 112.518 217.08L111.695 216.964C111.9 216.574 112.086 216.174 112.25 215.765C112.25 215.765 111.983 197.619 114.38 195.253C115.699 193.95 115.579 190.822 115.18 188.264C114.609 184.563 114.475 180.807 114.78 177.075C114.944 175.153 115.18 173.478 115.455 172.883C116.159 171.492 116.862 157.474 113.749 150.729L114.388 150.529L114.288 150.033L114.388 150.001C114.858 151.255 115.391 152.483 115.987 153.682C116.144 153.805 116.325 153.895 116.518 153.946C125.146 152.431 125.493 144.379 125.014 139.983C125.378 140.159 125.577 140.271 125.577 140.271L126.377 128.682C127.196 126.832 127.5 124.47 127.48 121.917C127.515 112.79 123.136 100.817 123.136 100.817ZM113.625 133.757C113.034 128.71 112.214 123.959 112.214 123.959L108.218 109.757V104.586L114.556 128.243L113.625 133.757Z" fill="url(#paint0_linear)"/>
</g>
<path d="M95.6584 211.333L95.3627 214.582C94.8961 219.744 95.5574 224.946 97.3008 229.827C97.7764 231.166 98.148 232.269 98.2279 232.665C98.4837 233.951 98.2279 243.202 98.2279 243.202C98.2279 243.202 99.7704 255.282 106.967 252.969C110.204 251.93 111.763 248.753 112.53 245.576C113.362 241.892 113.049 238.041 111.635 234.539C110.612 231.937 109.565 228.281 110.304 225.472C111.591 220.588 111.591 213.651 111.591 213.651L95.6584 211.333Z" fill="#5A5773"/>
<path d="M87.9502 155.564C87.9502 155.564 97.9724 179.98 97.4569 188.971C96.9414 197.963 97.329 190.897 97.4569 189.743C97.6847 187.685 97.4569 212.121 96.6857 214.918C96.6857 214.918 107.223 222.626 111.335 212.348C111.335 212.348 111.08 194.618 113.389 192.304C114.66 191.033 114.536 187.972 114.161 185.475C113.606 181.862 113.472 178.197 113.761 174.553C113.917 172.675 114.133 171.021 114.412 170.457C115.184 168.915 115.955 151.44 111.327 146.557L87.9502 155.564Z" fill="#605D82"/>
<path opacity="0.1" d="M97.9723 214.93C98.7436 212.105 98.9713 187.685 98.7436 189.755C98.6157 190.909 98.2281 197.979 98.7436 188.983C99.2591 179.988 89.2368 155.576 89.2368 155.576L111.659 146.952C111.555 146.821 111.447 146.697 111.339 146.581L87.9541 155.576C87.9541 155.576 97.9763 179.992 97.4608 188.983C96.9453 197.975 97.3329 190.909 97.4608 189.755C97.6886 187.697 97.4608 212.133 96.6896 214.93C96.6896 214.93 100.897 218.007 105.033 217.679C101.353 217.404 97.9723 214.93 97.9723 214.93Z" fill="black"/>
<path d="M79.2104 234.719L82.8069 247.826L82.0357 256.305C82.0357 256.305 77.668 268.126 87.9459 265.812C98.2239 263.498 95.3986 253.992 95.3986 253.992L95.6544 234.719C95.6544 234.719 91.5424 232.405 89.7441 232.665C87.9459 232.924 79.2104 234.719 79.2104 234.719Z" fill="#5A5773"/>
<path d="M61.48 149.398C61.48 149.398 73.3004 187.689 70.4752 193.599C70.4752 193.599 73.3004 199.253 72.7889 204.388C72.2774 209.523 81.0129 237.024 81.0129 237.024L93.8643 234.711C93.8643 234.711 90.7793 227.002 90.7793 222.119C90.7793 217.236 87.4386 196.144 87.4386 196.144C87.4386 196.144 84.6134 157.594 87.9541 153.482L61.48 149.398Z" fill="#605D82"/>
<g opacity="0.1">
<path opacity="0.1" d="M86.9551 156.615C84.8252 165.342 87.1789 197.459 87.1789 197.459C87.1789 197.459 90.5196 218.53 90.5196 223.434C90.5196 227.162 92.3139 232.533 93.1651 234.866L93.8604 234.743C93.8604 234.743 90.7754 227.034 90.7754 222.151C90.7754 217.268 87.4347 196.176 87.4347 196.176C87.4347 196.176 85.2848 166.825 86.9551 156.615Z" fill="black"/>
<path opacity="0.1" d="M70.4753 193.599L70.5393 193.731C70.5593 193.599 70.5792 193.459 70.5912 193.331C70.5572 193.422 70.5185 193.512 70.4753 193.599Z" fill="black"/>
<path opacity="0.1" d="M87.3707 154.745C87.4874 154.301 87.6838 153.883 87.9501 153.51L61.48 149.398C61.48 149.398 61.6358 149.897 61.9036 150.789L87.3707 154.745Z" fill="black"/>
</g>
<path d="M123.156 135.52C123.156 135.52 127.012 149.905 115.447 151.967C115.26 151.919 115.084 151.832 114.932 151.712C114.932 151.712 108.25 138.605 113.389 133.466L123.156 135.52Z" fill="#A1616A"/>
<path d="M75.87 39.929C75.87 39.929 76.6412 50.7184 68.1615 55.8614C59.6818 61.0044 86.1439 75.1346 86.1439 75.1346L100.022 53.0321C100.022 53.0321 94.1161 53.7954 90.5197 43.5254L75.87 39.929Z" fill="#A1616A"/>
<path opacity="0.1" d="M70.2154 56.6247C70.2154 56.6247 83.3226 83.866 95.1431 58.1672L113.389 148.623C113.389 148.623 85.1168 157.362 84.8651 161.474C84.6133 165.586 56.345 150.94 56.345 150.94C56.345 150.94 62.5109 139.632 60.9724 132.694C59.4339 125.757 70.2154 56.6247 70.2154 56.6247Z" fill="black"/>
<path d="M70.2154 56.1092C70.2154 56.1092 83.3226 83.3505 95.1431 57.6517L113.389 148.111C113.389 148.111 85.1168 156.851 84.8651 160.963C84.6133 165.075 56.345 150.425 56.345 150.425C56.345 150.425 62.5109 139.116 60.9724 132.179C59.4339 125.242 70.2154 56.1092 70.2154 56.1092Z" fill="#E1E7EF"/>
<path d="M83.0669 241.916C83.0669 241.916 79.7262 234.463 87.4346 234.463C95.1431 234.463 93.8604 241.144 93.8604 241.144L83.0669 241.916Z" fill="#5A5773"/>
<path d="M100.542 222.638C100.542 222.638 97.4568 214.67 105.169 214.414C112.882 214.159 109.025 221.607 109.025 221.607L100.542 222.638Z" fill="#5A5773"/>
<path opacity="0.1" d="M93.9883 50.3188C93.9883 50.3188 101.825 54.3149 104.654 53.7874C107.483 53.2599 114.932 58.1552 114.42 67.9216L119.064 82.4914C120.921 88.3334 121.865 94.4275 121.861 100.558C121.861 100.558 128.543 119.06 124.946 127.284L124.175 138.593C124.175 138.593 118.265 135.252 112.095 136.279L113.649 127.044L106.696 100.825L95.1312 72.8128L93.9883 50.3188Z" fill="black"/>
<path d="M93.9883 49.8113C93.9883 49.8113 101.825 53.8074 104.654 53.2799C107.483 52.7524 114.932 57.6477 114.42 67.4141L119.064 81.9839C120.921 87.8259 121.865 93.92 121.861 100.05C121.861 100.05 128.543 118.552 124.946 126.776L124.175 138.085C124.175 138.085 118.265 134.744 112.095 135.771L113.637 126.52L106.696 100.31L95.1431 72.2973L93.9883 49.8113Z" fill="#67647E"/>
<path opacity="0.1" d="M106.968 81.0368V110.076L110.824 123.955C110.824 123.955 113.393 139.116 112.622 143.743C111.851 148.371 99.5149 149.398 96.1741 145.542C92.8334 141.686 94.6316 108.778 94.6316 108.778L93.9883 60.6047L94.5038 59.0623L106.968 81.0368Z" fill="black"/>
<path d="M107.495 79.754V108.794L111.351 122.672C111.351 122.672 113.921 137.833 113.149 142.461C112.378 147.088 100.042 148.115 96.7015 144.259C93.3608 140.403 95.159 107.495 95.159 107.495L94.5156 59.31L107.495 79.754Z" fill="#67647E"/>
<path opacity="0.1" d="M55.6975 103.91L63.9215 129.485L60.0652 140.407C60.0652 140.407 78.3114 159.68 89.8761 150.429C89.8761 150.429 91.1628 111.107 88.5894 101.856C86.0159 92.6055 73.6839 61.4959 73.6839 61.4959L71.1304 53.2839L57.5117 60.9924L55.6975 103.91Z" fill="black"/>
<path d="M55.0543 102.624V127.799C55.0543 127.799 55.5698 133.198 53.7676 136.794C51.9653 140.391 59.422 139.108 59.422 139.108C59.422 139.108 77.6682 158.381 89.2329 149.13C89.2329 149.13 90.5196 109.809 87.9462 100.558C85.3727 91.3067 73.0407 60.1971 73.0407 60.1971L70.4712 51.9732L56.8525 59.6816L55.0543 102.624Z" fill="#67647E"/>
<path opacity="0.1" d="M74.9707 47.5016C74.9707 47.5016 67.1344 53.2839 58.1392 51.9972C49.144 50.7104 44.005 90.5475 44.005 90.5475C44.005 90.5475 40.6642 111.107 51.4577 109.309L75.3583 101.341C75.3583 101.341 70.2194 95.9422 70.9906 89.005L59.4219 93.6285L59.9414 71.5301L74.9707 47.5016Z" fill="black"/>
<path opacity="0.1" d="M44.5165 90.032C44.5165 90.032 41.1757 110.592 51.9692 108.794L75.8698 100.825C75.8698 100.825 70.7308 95.4307 71.5021 88.4895L59.9414 93.117L44.5165 90.032Z" fill="black"/>
<path d="M70.9348 91.1989C70.9348 91.1989 78.955 80.6532 84.8612 85.7162C90.7674 90.7793 73.0527 100.058 73.0527 100.058L70.9348 91.1989Z" fill="#A1616A"/>
<path d="M74.9707 46.9861C74.9707 46.9861 67.1344 52.7684 58.1392 51.4817C49.144 50.1949 44.005 90.032 44.005 90.032C44.005 90.032 40.6642 110.592 51.4577 108.794L75.3583 100.825C75.3583 100.825 70.2194 95.4267 70.9906 88.4895L59.4219 93.117L59.9414 71.0146L73.0486 60.2251L74.9707 46.9861Z" fill="#67647E"/>
<path opacity="0.1" d="M90.7751 44.0289L76.1254 40.4325C76.1254 40.4325 76.8887 41.2956 75.9976 44.6723C78.3553 47.3777 81.2524 50.9702 85.1206 50.9702C87.8889 50.9754 90.584 50.0821 92.8011 48.4247C91.9738 47.0344 91.2947 45.5611 90.7751 44.0289Z" fill="black"/>
<path d="M84.8651 50.4587C91.9628 50.4587 97.7165 44.7049 97.7165 37.6072C97.7165 30.5096 91.9628 24.7558 84.8651 24.7558C77.7675 24.7558 72.0137 30.5096 72.0137 37.6072C72.0137 44.7049 77.7675 50.4587 84.8651 50.4587Z" fill="#A1616A"/>
<path opacity="0.1" d="M89.7365 32.0287C92.7175 31.5212 95.9943 30.1985 96.9934 27.3453C97.6327 25.519 97.1452 23.4411 96.1022 21.8147C95.0592 20.1883 93.5247 18.9375 91.9423 17.8186C89.3728 16.0123 86.5396 14.4618 83.4466 13.9184C82.9133 13.7909 82.3575 13.7909 81.8242 13.9184C81.3604 14.1082 80.9194 14.3495 80.5095 14.6377C78.3955 15.8565 75.7661 15.329 73.3165 15.2011C70.8669 15.0733 67.9298 15.7646 67.1585 18.0783C66.9188 18.7936 66.9347 19.5649 66.7589 20.3001C66.3593 22.0984 65.0046 23.497 63.9616 24.9956C62.9187 26.4941 62.1155 28.5201 62.9946 30.1345C63.2943 30.682 63.7938 31.1855 63.7938 31.8089C63.7167 32.252 63.5824 32.6832 63.3942 33.0916C63.0306 34.4183 64.0895 35.757 65.3123 36.3884C66.5351 37.0198 67.9418 37.2156 69.1885 37.803C70.3555 38.3789 71.3325 39.2778 72.0034 40.3928C72.6742 41.5079 73.0107 42.7921 72.9728 44.0929C74.1077 44.2248 75.4304 44.2927 76.1977 43.4455C76.5413 43.0659 76.7092 42.5584 77.0209 42.1548C77.4205 41.6273 78.0439 41.3156 78.5554 40.892C81.2447 38.6822 79.3346 35.6292 80.8571 33.2475C81.6563 32.0207 82.9271 32.3963 84.2138 32.4163C86.0628 32.4596 87.9117 32.3298 89.7365 32.0287Z" fill="black"/>
<path d="M89.4806 31.7729C92.4617 31.2654 95.7385 29.9427 96.7375 27.0895C97.3769 25.2633 96.8894 23.1853 95.8464 21.5589C94.8034 19.9325 93.2689 18.6817 91.6864 17.5628C89.117 15.7566 86.2837 14.2061 83.1907 13.6626C82.6575 13.5351 82.1016 13.5351 81.5683 13.6626C81.1046 13.8524 80.6636 14.0937 80.2536 14.3819C78.1397 15.6007 75.5102 15.0732 73.0606 14.9454C70.611 14.8175 67.6739 15.5088 66.9027 17.8225C66.6629 18.5378 66.6789 19.3091 66.5031 20.0444C66.1034 21.8426 64.7488 23.2413 63.7058 24.7398C62.6628 26.2383 61.8596 28.2643 62.7387 29.8788C63.0384 30.4262 63.538 30.9297 63.538 31.5531C63.4608 31.9962 63.3265 32.4274 63.1383 32.8359C62.7747 34.1626 63.8337 35.5013 65.0565 36.1327C66.2793 36.764 67.6859 36.9598 68.9327 37.5473C70.1044 38.1225 71.0856 39.0232 71.7588 40.1415C72.4321 41.2598 72.7689 42.5484 72.729 43.8531C73.8639 43.985 75.1866 44.0529 75.9538 43.2057C76.2975 42.8261 76.4653 42.3186 76.777 41.915C77.1766 41.3875 77.8 41.0758 78.3115 40.6522C81.0009 38.4424 79.0908 35.3894 80.6133 33.0077C81.4125 31.7809 82.6832 32.1565 83.97 32.1765C85.8154 32.2138 87.6603 32.0786 89.4806 31.7729Z" fill="#4A4347"/>
<path opacity="0.1" d="M105.037 74.9987C105.037 74.9987 107.863 89.6484 106.58 95.3028C105.796 98.5922 105.912 102.032 106.916 105.261" fill="black"/>
<path opacity="0.1" d="M59.3659 81.1647C59.3659 81.1647 58.1351 90.9311 60.1851 92.9851L59.3659 81.1647Z" fill="black"/>
<path d="M131.124 201.523C131.283 201.523 131.435 201.46 131.548 201.347C131.66 201.235 131.723 201.083 131.723 200.924C131.723 200.765 131.66 200.612 131.548 200.5C131.435 200.387 131.283 200.324 131.124 200.324C130.965 200.324 130.812 200.387 130.7 200.5C130.588 200.612 130.524 200.765 130.524 200.924C130.524 201.083 130.588 201.235 130.7 201.347C130.812 201.46 130.965 201.523 131.124 201.523Z" fill="black"/>
<g opacity="0.5">
<path opacity="0.5" d="M315.691 131.691V131.36L206.662 47.5215C206.593 47.4706 206.51 47.4431 206.424 47.4431C206.339 47.4431 206.255 47.4706 206.187 47.5215L97.1531 131.36V261.313H97.3609V261.52H315.903V131.567L315.691 131.691Z" fill="url(#paint1_linear)"/>
</g>
<path d="M311.927 257.688H100.933V132.211L206.43 51.0901L311.927 132.211V257.688Z" fill="white"/>
<path d="M304.335 250.251H108.526V133.805L206.43 58.5228L304.335 133.805V250.251Z" fill="#E0E0E0"/>
<path d="M239.645 56.7829L120.202 88.0959L160.027 240.009L279.47 208.696L239.645 56.7829Z" fill="#F37335"/>
<path d="M268.769 79.8619H145.29V236.908H268.769V79.8619Z" fill="#F5F5F5"/>
<path opacity="0.05" d="M101.932 132.411L207.429 195.149L101.932 257.888V132.411Z" fill="black"/>
<path d="M101.133 132.411L206.63 195.149L101.133 257.888V132.411Z" fill="white"/>
<path opacity="0.05" d="M311.328 132.411L205.831 195.149L311.328 257.888V132.411Z" fill="black"/>
<path d="M312.127 132.411L206.63 195.149L312.127 257.888V132.411Z" fill="white"/>
<path opacity="0.05" d="M101.133 255.89L206.63 173.57L312.127 255.89H101.133Z" fill="black"/>
<path d="M101.133 257.888L206.63 175.568L312.127 257.888H101.133Z" fill="white"/>
<path d="M122.572 267.419C122.572 267.419 117.273 249.436 123.567 236.193C126.241 230.657 127.048 224.404 125.865 218.371C125.281 215.511 124.437 212.712 123.343 210.007" stroke="#535461" stroke-width="0.799219" stroke-miterlimit="10"/>
<path d="M127.256 201.639C127.256 203.845 123.26 210.235 123.26 210.235C123.26 210.235 119.263 203.841 119.263 201.639C119.263 200.579 119.684 199.563 120.434 198.813C121.183 198.064 122.2 197.643 123.26 197.643C124.319 197.643 125.336 198.064 126.085 198.813C126.835 199.563 127.256 200.579 127.256 201.639Z" fill="#F37335"/>
<path d="M133.869 213.851C132.67 215.701 125.845 218.898 125.845 218.898C125.845 218.898 125.969 211.361 127.168 209.511C127.765 208.674 128.663 208.1 129.673 207.908C130.683 207.716 131.729 207.92 132.592 208.479C133.455 209.038 134.069 209.909 134.307 210.909C134.545 211.91 134.388 212.963 133.869 213.851Z" fill="#F37335"/>
<path d="M133.565 234.715C131.595 235.706 124.091 235.022 124.091 235.022C124.091 235.022 128.003 228.581 129.969 227.59C130.439 227.326 130.958 227.161 131.494 227.104C132.031 227.046 132.573 227.098 133.088 227.256C133.604 227.413 134.082 227.674 134.495 228.021C134.907 228.368 135.245 228.796 135.488 229.277C135.731 229.758 135.874 230.284 135.908 230.822C135.942 231.36 135.867 231.9 135.688 232.408C135.508 232.916 135.228 233.383 134.863 233.78C134.498 234.177 134.057 234.497 133.565 234.719V234.715Z" fill="#F37335"/>
<path d="M129.793 250.455C128.019 251.766 120.506 252.357 120.506 252.357C120.506 252.357 123.271 245.348 125.046 244.038C125.899 243.468 126.939 243.249 127.95 243.425C128.961 243.602 129.866 244.16 130.476 244.985C131.086 245.81 131.356 246.839 131.229 247.857C131.102 248.875 130.587 249.806 129.793 250.455Z" fill="#F37335"/>
<path d="M117.449 219.322C119.048 220.856 126.396 222.451 126.396 222.451C126.396 222.451 124.594 215.134 123.012 213.599C122.242 212.919 121.24 212.561 120.213 212.6C119.187 212.639 118.215 213.072 117.499 213.809C116.783 214.546 116.379 215.53 116.369 216.557C116.36 217.585 116.747 218.576 117.449 219.326V219.322Z" fill="#F37335"/>
<path d="M113.269 237.788C115.239 238.779 122.744 238.095 122.744 238.095C122.744 238.095 118.832 231.654 116.866 230.663C115.927 230.238 114.861 230.193 113.889 230.536C112.918 230.88 112.117 231.585 111.653 232.504C111.189 233.424 111.098 234.488 111.399 235.473C111.7 236.458 112.37 237.289 113.269 237.792V237.788Z" fill="#F37335"/>
<path d="M111.671 256.289C113.445 257.6 120.958 258.192 120.958 258.192C120.958 258.192 118.193 251.182 116.418 249.872C115.999 249.529 115.515 249.275 114.995 249.125C114.475 248.976 113.93 248.933 113.394 249C112.857 249.067 112.339 249.242 111.872 249.516C111.405 249.789 110.998 250.154 110.676 250.589C110.354 251.024 110.124 251.52 110 252.046C109.875 252.573 109.859 253.119 109.952 253.652C110.045 254.185 110.245 254.694 110.541 255.147C110.836 255.601 111.221 255.989 111.671 256.289Z" fill="#F37335"/>
<path opacity="0.5" d="M202.034 87.0549H152.483V91.051H202.034V87.0549Z" fill="#F37335"/>
<path opacity="0.5" d="M259.578 103.039H152.483V107.035H259.578V103.039Z" fill="#F37335"/>
<path opacity="0.5" d="M259.578 113.429H152.483V117.425H259.578V113.429Z" fill="#F37335"/>
<path opacity="0.4" d="M259.578 123.819H152.483V127.815H259.578V123.819Z" fill="#F37335"/>
<path opacity="0.4" d="M259.578 134.209H152.483V138.205H259.578V134.209Z" fill="#F37335"/>
<path opacity="0.3" d="M213.623 144.599H152.483V148.595H213.623V144.599Z" fill="#F37335"/>
<path opacity="0.3" d="M236.001 154.989H152.483V158.985H236.001V154.989Z" fill="#F37335"/>
</g>
<defs>
<linearGradient id="paint0_linear" x1="41.9112" y1="141.534" x2="127.436" y2="141.534" gradientUnits="userSpaceOnUse">
<stop stop-color="#808080" stop-opacity="0.25"/>
<stop offset="0.54" stop-color="#808080" stop-opacity="0.12"/>
<stop offset="1" stop-color="#808080" stop-opacity="0.1"/>
</linearGradient>
<linearGradient id="paint1_linear" x1="139404" y1="158582" x2="139404" y2="43890.5" gradientUnits="userSpaceOnUse">
<stop stop-color="#808080" stop-opacity="0.25"/>
<stop offset="0.54" stop-color="#808080" stop-opacity="0.12"/>
<stop offset="1" stop-color="#808080" stop-opacity="0.1"/>
</linearGradient>
<clipPath id="clip0">
<rect width="383.713" height="290.856" fill="white"/>
</clipPath>
</defs>
</svg>
