<svg width="346" height="285" viewBox="0 0 346 285" fill="none" xmlns="http://www.w3.org/2000/svg">
<g clip-path="url(#clip0)">
<path d="M346 163.331C230.003 119.376 114.652 118.247 0 163.331V0H346V163.331Z" fill="#3F3D56"/>
<path d="M80.4571 10.3593H12.4312V13.467H80.4571V10.3593Z" fill="#D0CDE1"/>
<path d="M80.4571 18.3014H12.4312V21.4092H80.4571V18.3014Z" fill="#D0CDE1"/>
<path d="M80.4571 26.2435H12.4312V29.3513H80.4571V26.2435Z" fill="#D0CDE1"/>
<path d="M30.7326 39.3653H23.8264V46.2715H30.7326V39.3653Z" fill="#D0CDE1"/>
<path d="M50.07 39.3653H43.1638V46.2715H50.07V39.3653Z" fill="#F37335"/>
<path d="M69.4072 39.3653H62.501V46.2715H69.4072V39.3653Z" fill="#FF6584"/>
<path d="M75.6231 65.2635H17.6111V75.235H75.6231V65.2635Z" fill="#D0CDE1"/>
<path d="M75.6231 80.5646H17.6111V90.5362H75.6231V80.5646Z" fill="#F37335"/>
<path d="M75.6231 95.8658H17.6111V105.837H75.6231V95.8658Z" fill="#FF6584"/>
<path opacity="0.15" d="M41.6101 65.2635H17.6111V75.235H41.6101V65.2635Z" fill="black"/>
<path opacity="0.15" d="M25.3805 80.5646H17.6111V90.5361H25.3805V80.5646Z" fill="black"/>
<path opacity="0.15" d="M56.2857 95.8658H17.6111V105.837H56.2857V95.8658Z" fill="black"/>
<path d="M169.892 7.94214V121.894C185.003 121.894 199.495 115.891 210.18 105.206C220.865 94.5213 226.868 80.0292 226.868 64.9182C226.868 49.8072 220.865 35.3151 210.18 24.63C199.495 13.945 185.003 7.94214 169.892 7.94214Z" fill="#D0CDE1"/>
<path d="M166.094 10.4469C156.384 10.4448 146.865 13.1441 138.601 18.2427C130.337 23.3414 123.655 30.6385 119.301 39.3178L166.094 67.0164V10.4469Z" fill="#D0CDE1"/>
<path d="M115.502 40.0603C111.149 48.7481 109.089 58.4048 109.519 68.1129C109.949 77.821 112.853 87.258 117.957 95.5272C123.061 103.796 130.195 110.623 138.681 115.359C147.166 120.095 156.722 122.582 166.439 122.585V70.2118L115.502 40.0603Z" fill="#F37335"/>
<path d="M300.074 37.6387H265.198V40.7465H300.074V37.6387Z" fill="#D0CDE1"/>
<path d="M260.709 35.5668H253.802V42.473H260.709V35.5668Z" fill="#F37335"/>
<path d="M300.074 47.998H265.198V51.1058H300.074V47.998Z" fill="#D0CDE1"/>
<path d="M260.709 45.9261H253.802V52.8323H260.709V45.9261Z" fill="#F37335"/>
<path d="M300.074 58.3573H265.198V61.4651H300.074V58.3573Z" fill="#D0CDE1"/>
<path d="M260.709 56.2854H253.802V63.1916H260.709V56.2854Z" fill="#F37335"/>
<path d="M151.49 86.5715L151.001 86.0832L187.36 49.7245H250.695V50.4152H187.646L151.49 86.5715Z" fill="#2F2E41"/>
<path d="M346 252.766H0V174.381C111.19 131.055 226.523 131.055 346 174.381V252.766Z" fill="#3F3D56"/>
<path d="M142.199 208.871L145.355 218.637C145.355 218.637 142.5 227.802 143.852 238.019C145.204 248.235 144.453 248.536 144.453 248.536C144.453 248.536 130.942 247.758 132.295 251.814C133.647 255.871 146.857 253.494 146.857 253.494C146.857 253.494 149.394 252.811 150.596 245.599C151.798 238.387 154.82 224.497 154.82 224.497L151.978 211.383L142.199 208.871Z" fill="#FFB8B8"/>
<path d="M143.251 188.889C143.251 188.889 137.542 190.992 137.542 196.701C137.542 202.411 139.645 210.223 140.997 210.674C142.35 211.125 151.364 217.285 153.017 212.928C154.67 208.571 143.251 188.889 143.251 188.889Z" fill="#D0CDE1"/>
<path d="M191.029 256.499L203.048 256.048L212.213 254.696L209.509 263.71L187.272 264.311L191.029 256.499Z" fill="#FFB8B8"/>
<path d="M208.307 257.701C208.307 257.701 208.157 254.395 206.805 254.545C205.452 254.696 206.354 253.344 207.556 253.043C208.758 252.743 212.213 251.24 212.213 251.24L225.886 252.142C225.886 252.142 234.75 259.954 231.144 264.161C227.538 268.368 218.223 264.612 218.223 264.612L208.157 264.762C208.157 264.762 204.851 259.353 208.307 257.701Z" fill="#2F2E41"/>
<path d="M213.716 246.132L218.073 266.565L227.088 264.762L221.979 239.221L216.57 236.366L213.716 246.132Z" fill="#FFB8B8"/>
<path d="M161.881 243.578C161.881 243.578 136.64 254.996 147.308 266.565C147.308 266.565 147.308 271.974 158.576 270.922C169.844 269.87 191.63 267.917 192.682 268.518C193.733 269.119 197.039 256.649 194.184 256.048C191.329 255.447 187.874 254.696 187.874 254.696C187.874 254.696 190.879 254.245 190.879 251.691C190.879 251.691 199.443 251.09 201.997 245.681C204.551 240.272 206.955 236.216 206.955 236.216L212.814 251.24C212.814 251.24 219.575 238.77 224.684 244.329C224.684 244.329 218.974 208.42 214.617 205.115C210.26 201.81 207.255 200.758 203.199 203.763C199.142 206.768 195.386 214.43 195.386 214.43L161.881 243.578Z" fill="#2F2E41"/>
<path d="M222.13 260.405C221.079 261.197 220.076 262.05 219.125 262.959C217.923 264.161 216.27 263.56 216.12 262.959C215.97 262.358 213.265 263.41 212.965 267.767C212.664 272.124 210.861 276.03 215.669 277.383C220.477 278.735 220.327 282.641 220.327 282.641C224.131 284.466 228.497 284.736 232.497 283.392C239.258 281.139 236.854 278.735 236.854 278.735L227.839 263.861C227.839 263.861 225.435 259.353 222.13 260.405Z" fill="#2F2E41"/>
<path d="M197.189 185.884C197.189 185.884 211.612 190.842 213.115 191.893C214.617 192.945 221.378 197.903 218.073 200.457C214.767 203.012 212.063 204.664 205.602 202.711C199.142 200.758 191.93 194.748 191.93 194.748L197.189 185.884Z" fill="#FFB8B8"/>
<path d="M182.765 179.273C182.765 179.273 188.474 178.221 192.531 180.475C196.588 182.729 200.043 187.236 200.043 187.236C200.043 187.236 196.287 195.199 193.583 196.401C190.878 197.603 185.92 191.593 185.92 191.593L182.765 179.273Z" fill="#D0CDE1"/>
<path d="M156.473 174.916C156.473 174.916 156.623 180.775 156.022 181.376C155.421 181.977 163.234 199.706 171.798 191.893C180.362 184.081 173.751 180.926 173.751 180.926C173.751 180.926 170.596 175.066 170.746 174.465C170.896 173.864 156.773 174.465 156.773 174.465L156.473 174.916Z" fill="#FFB8B8"/>
<path opacity="0.1" d="M156.473 174.916C156.473 174.916 156.623 180.775 156.022 181.376C155.421 181.977 163.234 199.706 171.798 191.893C180.362 184.081 173.751 180.926 173.751 180.926C173.751 180.926 170.596 175.066 170.746 174.465C170.896 173.864 156.773 174.465 156.773 174.465L156.473 174.916Z" fill="black"/>
<path d="M158.877 186.184C158.877 186.184 164.586 190.09 166.99 189.189C169.394 188.288 172.399 184.381 172.699 184.081C173 183.78 188.325 214.58 188.325 214.58C188.325 214.58 186.071 225.849 180.061 229.154C174.051 232.459 174.126 235.089 173.375 237.342C172.624 239.596 162.933 230.206 162.933 230.206L156.773 204.063V188.137L158.877 186.184Z" fill="#D0CDE1"/>
<path d="M156.397 179.198C156.397 179.198 154.519 178.822 152.566 180.475C150.613 182.128 141.448 188.288 141.899 188.889C142.35 189.49 146.406 198.054 147.308 201.509C148.209 204.965 149.561 205.415 149.561 205.415C149.561 205.415 152.716 207.669 152.266 209.322C151.815 210.975 149.862 233.511 152.566 238.469C155.271 243.427 154.82 247.784 154.069 248.986C153.317 250.188 161.28 245.531 161.28 245.531C161.28 245.531 173.15 235.915 174.051 233.06C174.634 231.098 175.037 229.086 175.253 227.051C175.253 227.051 167.591 196.701 165.187 195.049C162.783 193.396 156.397 179.198 156.397 179.198Z" fill="#575A89"/>
<path d="M172.903 179.317C172.903 179.317 176.605 177.019 177.357 177.62C178.108 178.221 185.169 178.221 185.32 178.822C185.47 179.423 185.77 193.847 190.879 197.603C195.987 201.359 192.682 208.871 192.682 208.871L196.438 214.881C196.438 214.881 176.005 234.561 177.357 227.802C177.432 227.426 177.357 227.351 177.357 227.351C177.357 227.351 169.394 193.246 170.445 191.443C171.497 189.64 173.408 181.464 172.903 179.317Z" fill="#575A89"/>
<path d="M204.401 193.095L183.968 200.157C183.968 200.157 163.685 204.965 166.84 210.524C169.995 216.083 183.367 206.617 183.367 206.617L210.577 203.569C210.577 203.569 221.378 194.448 204.401 193.095Z" fill="#FFB8B8"/>
<path d="M164.586 180.475C170.726 180.475 175.704 175.497 175.704 169.357C175.704 163.216 170.726 158.239 164.586 158.239C158.446 158.239 153.468 163.216 153.468 169.357C153.468 175.497 158.446 180.475 164.586 180.475Z" fill="#FFB8B8"/>
<path d="M155.732 158.307L153.675 157.559C153.675 157.559 157.975 153.259 163.958 153.633L162.275 151.951C162.275 151.951 166.389 150.455 170.128 154.381C172.094 156.445 174.368 158.871 175.786 161.604H177.988L177.069 163.442L180.286 165.281L176.984 164.951C177.297 166.538 177.189 168.179 176.672 169.712L175.924 171.769C175.924 171.769 172.932 165.786 172.932 165.038V166.908C172.932 166.908 170.876 165.225 170.876 164.103L169.754 165.412L169.193 163.355L162.275 165.412L163.397 163.729L159.097 164.29L160.78 162.234C160.78 162.234 155.919 164.664 155.732 166.721C155.545 168.777 153.114 171.395 153.114 171.395L151.992 169.525C151.992 169.525 150.31 161.112 155.732 158.307Z" fill="#2F2E41"/>
<path d="M300.788 253.441L300.097 253.427C300.364 245.749 301.184 238.099 302.549 230.538C305.535 214.349 310.501 203.718 317.308 198.938L317.705 199.503C301.803 210.668 300.796 253.014 300.788 253.441Z" fill="#D0CDE1"/>
<path d="M309.421 253.276L308.73 253.262C308.745 252.497 309.176 234.472 316.272 229.49L316.669 230.056C309.859 234.837 309.424 253.092 309.421 253.276Z" fill="#D0CDE1"/>
<path d="M321.634 199.566C323.541 199.566 325.087 198.02 325.087 196.113C325.087 194.206 323.541 192.66 321.634 192.66C319.727 192.66 318.181 194.206 318.181 196.113C318.181 198.02 319.727 199.566 321.634 199.566Z" fill="#F37335"/>
<path d="M319.924 229.262C321.831 229.262 323.377 227.716 323.377 225.809C323.377 223.902 321.831 222.356 319.924 222.356C318.017 222.356 316.471 223.902 316.471 225.809C316.471 227.716 318.017 229.262 319.924 229.262Z" fill="#F37335"/>
<path d="M307.811 201.636C308.46 205.781 306.768 209.488 306.768 209.488C306.768 209.488 304.025 206.475 303.376 202.33C302.727 198.185 304.418 194.478 304.418 194.478C304.418 194.478 307.162 197.491 307.811 201.636Z" fill="#F37335"/>
<path d="M319.087 211.671C315.119 213.033 311.178 212.028 311.178 212.028C311.178 212.028 313.673 208.817 317.641 207.456C321.61 206.095 325.55 207.099 325.55 207.099C325.55 207.099 323.056 210.31 319.087 211.671Z" fill="#D0CDE1"/>
<path d="M319.226 238.002C317.429 238.566 315.517 238.649 313.678 238.242C314.846 236.756 316.417 235.639 318.205 235.026C319.992 234.413 321.918 234.33 323.752 234.786C322.551 236.236 320.99 237.345 319.226 238.002Z" fill="#D0CDE1"/>
<path d="M278.314 191.417C277.426 191.417 276.558 191.154 275.82 190.661C275.082 190.167 274.506 189.466 274.167 188.646C273.827 187.826 273.738 186.923 273.911 186.052C274.084 185.182 274.512 184.382 275.14 183.754C275.768 183.126 276.567 182.699 277.438 182.525C278.309 182.352 279.212 182.441 280.032 182.781C280.852 183.121 281.553 183.696 282.046 184.434C282.54 185.172 282.803 186.04 282.803 186.928C282.802 188.118 282.328 189.259 281.487 190.101C280.645 190.943 279.504 191.416 278.314 191.417ZM278.314 183.13C277.563 183.13 276.828 183.353 276.204 183.77C275.579 184.187 275.092 184.781 274.805 185.475C274.517 186.169 274.442 186.932 274.589 187.669C274.735 188.406 275.097 189.083 275.628 189.614C276.159 190.145 276.836 190.507 277.573 190.654C278.31 190.8 279.073 190.725 279.768 190.437C280.462 190.15 281.055 189.663 281.472 189.039C281.89 188.414 282.112 187.679 282.112 186.928C282.111 185.921 281.711 184.956 280.999 184.244C280.286 183.532 279.321 183.131 278.314 183.13Z" fill="#D0CDE1"/>
<path d="M257.255 214.782C258.781 214.782 260.018 213.546 260.018 212.02C260.018 210.494 258.781 209.257 257.255 209.257C255.73 209.257 254.493 210.494 254.493 212.02C254.493 213.546 255.73 214.782 257.255 214.782Z" fill="#D0CDE1"/>
<path d="M12.4312 183.359C13.9568 183.359 15.1937 182.122 15.1937 180.597C15.1937 179.071 13.9568 177.834 12.4312 177.834C10.9055 177.834 9.6687 179.071 9.6687 180.597C9.6687 182.122 10.9055 183.359 12.4312 183.359Z" fill="#D0CDE1"/>
<path d="M29.6966 226.868H20.7185V217.89H29.6966V226.868ZM21.4091 226.178H29.0059V218.581H21.4091V226.178Z" fill="#D0CDE1"/>
<path d="M86.6727 195.1C83.2579 195.1 79.9198 196.112 77.0805 198.01C74.2412 199.907 72.0283 202.603 70.7215 205.758C69.4147 208.913 69.0728 212.384 69.739 215.734C70.4052 219.083 72.0496 222.159 74.4642 224.574C76.8788 226.988 79.9552 228.633 83.3044 229.299C86.6536 229.965 90.1251 229.623 93.2799 228.316C96.4348 227.01 99.1313 224.797 101.028 221.957C102.926 219.118 103.938 215.78 103.938 212.365C103.938 207.786 102.119 203.395 98.8812 200.157C95.6433 196.919 91.2518 195.1 86.6727 195.1ZM83.6943 220.092L76.2677 212.665L78.3508 210.582L83.7013 215.932L94.9946 204.639L97.0777 206.722L83.6943 220.092Z" fill="#F37335"/>
</g>
<defs>
<clipPath id="clip0">
<rect width="346" height="284.231" fill="white"/>
</clipPath>
</defs>
</svg>
