<svg width="377" height="270" viewBox="0 0 377 270" fill="none" xmlns="http://www.w3.org/2000/svg">
<g clip-path="url(#clip0)">
<path d="M293.456 122.251C292.751 120.438 293.758 119.532 294.161 117.921C294.564 116.309 293.255 111.274 293.255 111.274C293.255 111.274 289.025 93.8508 287.716 90.4267C287.162 88.9777 285.958 87.9809 284.755 87.3115C284.673 86.867 284.555 86.5804 284.392 86.499C283.226 85.9153 280.32 84.648 278.383 84.2976C278.021 83.6752 277.591 83.0945 277.102 82.5659C277.442 81.9131 277.6 81.1808 277.559 80.446C277.435 78.5459 275.996 76.8433 276.183 74.9485C276.325 73.5114 277.376 72.3309 277.782 70.9449C277.951 70.3224 277.992 69.6717 277.9 69.033C277.808 68.3943 277.585 67.7814 277.246 67.2323C277.544 67.5492 277.842 67.8661 278.14 68.1831C278.545 67.5757 278.741 66.8523 278.695 66.1235C278.65 65.3947 278.368 64.7008 277.891 64.1479C276.948 63.1059 275.37 62.715 274.638 61.515C273.886 60.2819 274.29 58.6063 273.579 57.3491C271.837 54.2694 267.377 56.4526 264.705 55.3777C263.608 54.9359 262.773 54.4498 261.538 54.4847C260.488 54.5449 259.45 54.7388 258.449 55.0617C257.012 55.4772 255.763 56.3732 254.908 57.5998C254.992 57.5037 255.085 57.4152 255.184 57.3353C255.832 56.8281 256.967 56.8703 257.309 57.6183C257.39 57.8063 257.425 58.0115 257.408 58.2158C257.352 59.1175 256.565 59.7909 255.782 60.2422C254.999 60.6934 254.118 61.0709 253.608 61.8161C252.765 63.0459 253.26 64.6963 253.261 66.1873C253.254 67.1348 253.034 68.0687 252.619 68.9203C252.203 69.7718 251.602 70.5194 250.859 71.1078L253.701 69.946C252.344 72.3209 251.453 74.9331 251.077 77.6423L254.919 74.468C253.496 76.7329 252.631 79.3034 252.395 81.9679L255.479 78.8078C255.62 79.0546 255.69 79.3351 255.683 79.619L255.361 80.8595C255.248 81.1057 255.122 81.346 254.984 81.5795C254.488 82.4317 253.975 83.4807 254.439 84.3508L254.441 84.3496C253.952 85.9935 253.215 87.6384 251.576 88.4377C253.394 88.628 255.292 87.7187 256.114 86.2714C256.248 86.5318 256.409 86.7769 256.596 87.0025C256.649 87.0686 256.701 87.1342 256.753 87.1999L256.3 87.502L255.086 88.3117C255.086 88.3117 247.129 89.9231 247.633 92.9444C247.654 93.0687 247.678 93.217 247.706 93.3834L245.417 97.2749L242.094 108.554C242.094 108.554 240.382 112.18 240.684 113.691C240.986 115.201 240.684 115.806 240.684 118.525C240.684 121.244 239.375 122.352 240.684 124.567C241.993 126.783 245.921 133.229 245.921 133.229L246.784 133.876C246.742 134.264 246.756 134.657 246.827 135.041C247.633 139.07 255.186 177.642 255.186 177.642C255.186 177.642 251.359 208.157 259.114 210.071C260.087 210.311 261.042 210.528 261.969 210.722L263.142 218.43L262.437 228.198C262.437 228.198 257.1 240.284 266.869 240.989C276.638 241.694 272.206 230.515 272.206 230.515C272.722 229.56 272.933 228.471 272.811 227.393C272.711 226.496 271.872 221.831 271.05 217.344C274.757 216.899 274.064 212.965 273.57 211.235C273.784 211.11 273.944 210.911 274.019 210.675C274.131 210.273 273.871 208.693 273.399 206.478C273.015 204.276 272.359 200.712 271.912 198.298L274.321 198.69L284.493 139.07C284.493 139.07 284.56 138.121 284.529 136.732C285.92 136.013 287.354 135.381 288.823 134.84C292.147 133.531 293.456 128.697 294.564 126.682C295.672 124.668 294.161 124.064 293.456 122.251ZM257.341 84.2906C257.67 84.0637 258.056 83.9329 258.455 83.9128C258.369 84.3812 257.563 84.5181 256.888 84.7634C257.012 84.5819 257.165 84.4222 257.341 84.2906ZM252.266 114.295C253.082 115.636 251.604 119.268 250.273 122.151C249.51 121.493 248.714 121.7 249.647 119.834C250.283 118.651 250.661 117.347 250.755 116.007C250.755 115.777 250.873 114.085 251.865 113.382C251.97 113.698 252.104 114.004 252.266 114.295ZM249.209 125.865C249.671 125.677 250.37 125.388 251.314 125.067C250.862 125.661 250.345 126.368 249.826 127.14C249.63 126.991 249.472 126.798 249.364 126.577C249.257 126.355 249.204 126.111 249.209 125.865ZM281.874 127.186C281.262 126.535 280.767 125.954 280.36 125.433C281.12 125.633 281.893 125.848 282.68 126.078C283.072 126.137 283.473 126.11 283.854 126C283.889 126.696 283.889 127.69 283.889 127.69L282.786 128.453C282.534 127.996 282.228 127.57 281.874 127.186V127.186ZM285 123.693C284.988 123.703 284.975 123.715 284.963 123.726C284.909 123.328 284.819 122.935 284.694 122.553C284.034 120.472 283.682 116.778 283.494 113.627L285.399 120.036C285.399 120.036 285.5 123.258 285 123.693Z" fill="#D0CDE1"/>
<path d="M245.879 97.2222C245.879 97.2222 235.547 79.4637 235.224 77.5265C234.901 75.5892 229.735 72.0375 229.735 72.0375C227.97 70.2724 225.074 69.7139 222.026 69.7429C223.174 68.7934 219.076 68.1552 218.757 67.5171C218.434 66.8714 217.466 66.8714 216.174 65.9027C214.883 64.9341 211.659 65.7412 211.659 65.7413C211.174 64.7216 210.837 63.6381 210.657 62.5234C212.033 60.8954 212.787 58.8321 212.784 56.7006C212.784 56.6774 212.782 56.6546 212.782 56.6315C212.864 56.7594 212.947 56.8881 213.029 57.0207C213.634 53.3976 214.701 50.3861 212.667 47.081C211.224 44.7386 208.966 43.0124 206.327 42.2348L204.389 43.7853L205.143 41.9768C204.509 41.8802 203.868 41.8431 203.227 41.8661L201.483 44.1082L202.205 41.9429C200.692 42.131 199.234 42.6305 197.923 43.41C196.613 44.1896 195.478 45.2322 194.591 46.4721C192.371 49.6724 192.52 54.121 194.703 57.3464C194.71 57.3238 194.716 57.3017 194.723 57.2791C194.819 58.788 195.293 60.2486 196.1 61.5271C196.907 62.8057 198.022 63.8613 199.342 64.5974L199.891 68.9842C199.397 69.4425 198.764 69.7217 198.093 69.7773C197.124 69.7773 196.156 72.3604 196.156 72.3604C196.156 72.3604 195.607 72.6374 195.015 73.9453C193.491 74.9829 188.841 78.2425 187.116 80.5202C186.096 81.0224 185 82.1393 185.178 84.6299C185.501 89.1502 185.178 110.138 185.178 110.138C185.178 110.138 182.272 127.896 183.24 129.188C184.209 130.479 182.917 134.677 182.917 134.677L183.886 134.892V135.968C183.886 135.968 180.973 149.474 185.501 148.883C192.927 147.915 187.438 136.937 187.438 136.937V135.681L188.729 135.968C188.729 135.968 189.375 131.448 190.667 131.125C191.116 131.013 191.643 129.806 192.14 128.28C192.43 130.66 192.604 132.094 192.604 132.094L194.624 131.645L195.187 133.708C195.326 133.786 195.471 133.851 195.621 133.904L195.187 136.291C195.187 136.291 194.864 138.874 195.187 140.488C195.35 141.303 201.343 158.705 207.245 175.758L207.134 179.88C207.134 179.88 204.228 183.109 204.873 185.369C205.519 187.629 203.259 206.356 203.259 206.356L201.322 215.72L201.809 215.87L201.362 217.511C200.976 217.705 200.633 217.975 200.353 218.303C197.77 221.209 194.541 229.604 194.541 229.604C194.541 229.604 188.729 238.322 197.77 237.999C206.811 237.676 207.457 234.447 207.457 234.447C207.457 234.447 208.748 226.052 208.748 225.729C208.748 225.406 208.102 222.087 208.102 222.087L207.852 221.811L208.027 217.783L209.717 218.303C209.717 218.303 211.331 209.908 212.623 208.939C213.074 208.601 214.275 204.83 215.646 199.986C217.048 204.021 218.405 217.975 218.845 219.241C218.689 219.454 218.552 219.681 218.434 219.917C216.983 222.703 215.366 225.398 213.591 227.989C213.591 227.989 203.259 234.124 213.591 235.739C213.591 235.739 219.403 236.061 222.309 234.124C225.215 232.187 232.964 229.281 232.964 228.635C232.964 227.989 231.027 218.497 229.09 219.53L227.792 216.545L229.09 216.043L220.915 179.351C221.108 178.569 221.25 177.775 221.34 176.974C221.34 175.283 225.521 142.36 226.585 134.009C231.267 135.335 235.547 125.636 235.547 125.636L236.609 123.725L238.13 124.667C238.13 124.667 239.422 121.438 241.359 121.116C243.296 120.793 246.848 103.68 246.848 101.42C246.818 99.9687 246.489 98.5395 245.879 97.2222ZM230.836 122.52C230.518 122.015 230.149 121.545 229.735 121.115C230.58 118.917 231.228 116.648 231.673 114.335C232.318 110.783 230.704 99.1595 230.704 99.1595L230.676 98.3701C232.26 100.45 234.256 103.224 234.256 104.003C234.256 104.379 234.343 104.749 234.511 105.086C234.679 105.422 234.924 105.714 235.224 105.94L233.287 112.721C233.287 112.721 231.995 115.949 231.673 117.564C231.479 118.521 231.371 119.493 231.35 120.47L231.807 120.753L230.836 122.52Z" fill="#D0CDE1"/>
<path d="M98.0628 103.199L99.7857 102.811L92.6824 82.7922L77.3455 77.1418C77.3455 77.1418 77.2867 77.2069 77.1783 77.3192C75.8701 76.0531 75.3148 74.216 75.0829 72.7699C76.3162 72.2717 77.4244 71.5074 78.3283 70.5316C79.2323 69.5557 79.9096 68.3923 80.3121 67.1245C80.7146 65.8567 80.8322 64.5156 80.6567 63.1971C80.4811 61.8786 80.0167 60.615 79.2965 59.4967C80.5603 59.1933 81.0115 58.0468 81.4357 56.6797C81.1731 56.6022 80.9052 56.5439 80.6341 56.5052C80.8329 56.0595 81.0317 55.6138 81.2304 55.1682C80.8811 55.1368 80.5318 55.1054 80.1825 55.0741C80.2718 54.6574 80.3611 54.2408 80.4504 53.8242C80.005 54.1317 79.5596 54.4392 79.1141 54.7467C79.2654 54.3093 79.303 53.8407 79.2234 53.3848C79.1438 52.9289 78.9496 52.5007 78.6591 52.1405C78.0676 51.4257 77.2961 50.8817 76.4241 50.5646C74.7189 49.8937 72.8618 49.7057 71.0567 50.0212C69.2516 50.3366 67.5684 51.1434 66.1918 52.3529L66.0953 51.9767C63.3693 54.0722 61.5856 57.1632 61.1353 60.5718C60.7077 63.9412 62.3263 67.372 64.4302 70.0384C64.4125 69.922 64.3935 69.8059 64.3742 69.6899C64.4651 69.8152 64.559 69.9381 64.6559 70.0586L64.9145 79.8863L64.2668 80.4415C64.2658 80.4419 53.3992 85.3582 52.9756 91.2302L52.9744 91.2345C52.3222 94.0931 51.9993 108.946 51.9993 108.946H52.8934L51.9993 114.758L46.1874 137.359C46.1874 137.359 38.7611 147.046 45.2187 148.983C49.2316 150.187 50.3765 145.531 50.6684 141.833C50.9009 142.75 51.5963 143.369 52.9679 143.494C53.0759 143.504 53.1911 143.512 53.3026 143.521C50.2492 151.412 52.3221 177.074 52.3221 177.074C50.7077 180.303 69.7578 202.581 69.7578 202.581L70.9048 201.97L71.1531 202.466C70.5147 202.527 70.0806 202.581 70.0806 202.581V212.591C70.0806 212.591 67.1747 222.6 71.0493 224.537C72.0519 225.039 73.0976 224.674 74.0971 223.86C73.9061 226.949 73.6323 231.558 73.6323 232.609C73.6323 234.224 77.8298 237.13 77.8298 237.13C77.8298 237.13 78.7984 240.681 86.5476 240.681C94.2968 240.681 88.4849 231.318 88.4849 231.318L84.2874 221.954C84.2874 221.954 83.9734 222.108 83.0229 221.334L83.3633 217.59L85.2561 217.757L87.8391 179.98C87.8391 179.98 90.0993 146.4 90.4222 141.234C90.4978 139.578 90.4588 137.918 90.3054 136.267L99.7857 116.695L98.0628 103.199ZM91.0679 115.726L90.0993 119.102V111.636L91.0679 115.726ZM50.7584 139.671C50.7665 138.487 50.7077 137.682 50.7077 137.682L57.0201 125.057L56.8425 128.964C56.8425 128.964 51.7871 135.359 50.7584 139.671ZM65.5603 176.105L71.6951 154.472L75.2468 180.625L74.9921 190.133C74.5596 189.26 74.2124 188.346 73.9552 187.406C72.9866 183.531 65.5603 176.105 65.5603 176.105Z" fill="#D0CDE1"/>
<path d="M152.936 227.494C149.911 226.248 144.039 223.579 143.327 222.155C142.615 220.731 139.056 209.698 139.056 209.698L138.139 209.765C138.021 204.752 137.516 185.327 136.742 183.004C136.742 183.004 140.479 152.218 133.005 139.938L131.658 134.498C132.1 132.317 132.044 127.267 131.759 126.414C131.403 125.346 135.852 121.965 134.607 119.829C133.361 117.694 129.98 110.397 129.98 110.397C129.98 110.397 130.336 105.771 125.531 101.5C125.531 101.5 124.127 93.5504 117.8 93.432C116.944 91.9392 115.747 89.5656 116.099 88.5087C116.476 87.3771 117.919 83.8494 118.733 81.8749C119.166 81.6794 119.581 81.4482 119.976 81.1835C125.008 78.9289 128.555 73.5089 128.555 67.1773C128.555 60.3994 124.491 54.6633 118.891 52.7399C119.141 52.0824 119.243 51.3782 119.19 50.677C119.137 49.9758 118.931 49.2947 118.587 48.6818C118.242 48.0689 117.767 47.5392 117.195 47.1301C116.623 46.7211 115.968 46.4426 115.277 46.3144C114.585 46.1861 113.874 46.2113 113.193 46.3881C112.513 46.5649 111.879 46.889 111.338 47.3375C110.796 47.7859 110.36 48.3479 110.059 48.9836C109.759 49.6193 109.601 50.3133 109.598 51.0165C109.29 50.2865 109.168 49.4916 109.242 48.7028C109.316 47.9139 109.584 47.1557 110.023 46.4958C110.461 45.8359 111.056 45.2948 111.755 44.9209C112.453 44.5469 113.234 44.3518 114.026 44.3529C114.338 44.3533 114.649 44.384 114.955 44.4444C113.9 43.9427 112.698 43.8429 111.575 44.1637C110.451 44.4845 109.483 45.204 108.853 46.1873C108.222 47.1706 107.971 48.3501 108.147 49.505C108.324 50.6599 108.916 51.7107 109.811 52.4606C109.867 52.6364 109.932 52.8087 110.007 52.9769C104.738 55.1033 100.979 60.6585 100.979 67.1773C100.979 73.2241 104.214 78.4401 108.888 80.8612C108.863 82.8281 108.376 86.1443 105.663 88.1653C104.262 87.525 102.317 86.8222 101.069 87.141C100.424 86.638 99.4503 86.472 98.1254 87.7969C95.4561 90.4662 93.1426 97.4066 93.1426 101.678C93.1426 105.949 93.6765 130.685 93.6765 130.685C93.6765 130.685 90.8291 131.752 92.7867 133.354C93.191 133.691 93.6983 133.879 94.2244 133.888L96.1679 148.303C96.1679 148.303 94.9222 162.183 99.7271 162.361C100.104 162.382 100.478 162.29 100.803 162.097L97.2356 178.199C97.2356 178.199 89.0496 183.538 82.6431 194.038C79.3434 199.446 77.6983 202.772 76.8765 204.731L75.7027 204.003L71.6097 211.833C71.6097 211.833 62.5339 217.35 64.4914 221.443C66.4489 225.536 68.2285 226.604 68.2285 226.604L69.4742 226.07L71.7876 230.341C71.7876 230.341 77.8382 239.061 87.6259 234.612C88.0852 233.995 88.3333 233.246 88.3333 232.477C88.3333 231.707 88.0852 230.958 87.6259 230.341C86.0243 228.028 81.9313 223.045 81.9313 223.045L84.6006 209.52L84.0483 209.178L100.973 188.699C100.973 188.699 105.956 185.674 107.735 183.004C109.515 180.335 120.548 152.751 120.548 152.751L126.777 181.581C126.777 181.581 126.421 192.08 128.022 198.843C128.895 202.636 129.465 206.493 129.725 210.377L129.268 210.41L130.336 218.418C130.336 218.418 125.709 229.807 128.912 230.697C131.191 231.286 133.511 231.702 135.852 231.943L136.208 230.697C136.208 230.697 149.911 238.171 154.894 232.655C154.894 232.654 155.962 228.739 152.936 227.494ZM104.176 140.116C104.71 140.65 104.532 143.142 104.532 143.142L103.464 150.082L102.398 154.896C102.25 152.622 101.953 150.36 101.507 148.125L101.014 134.824C101.111 134.885 101.217 134.93 101.329 134.956C101.685 134.956 101.507 131.93 101.507 131.93C101.507 131.93 101.714 131.39 101.973 130.537C102.665 132.609 103.51 133.96 104.532 134.244L104.71 136.557C104.71 136.557 102.396 137.625 104.532 137.625C104.656 137.62 104.779 137.602 104.899 137.571L104.71 138.515C104.71 138.515 103.642 139.583 104.176 140.116Z" fill="#D0CDE1"/>
<path d="M149.894 235.784C228.9 235.784 292.947 234.728 292.947 233.426C292.947 232.123 228.9 231.068 149.894 231.068C70.8886 231.068 6.84167 232.123 6.84167 233.426C6.84167 234.728 70.8886 235.784 149.894 235.784Z" fill="#3F3D56"/>
<path d="M199.962 245.609C286.868 245.609 357.319 242.882 357.319 239.517C357.319 236.153 286.868 233.426 199.962 233.426C113.056 233.426 42.6049 236.153 42.6049 239.517C42.6049 242.882 113.056 245.609 199.962 245.609Z" fill="#3F3D56"/>
<path d="M170.92 254.648C213.57 254.648 248.145 251.921 248.145 248.556C248.145 245.192 213.57 242.465 170.92 242.465C128.27 242.465 93.6952 245.192 93.6952 248.556C93.6952 251.921 128.27 254.648 170.92 254.648Z" fill="#3F3D56"/>
<path d="M282.533 258.971C301.525 258.971 316.921 257.563 316.921 255.827C316.921 254.09 301.525 252.683 282.533 252.683C263.541 252.683 248.145 254.09 248.145 255.827C248.145 257.563 263.541 258.971 282.533 258.971Z" fill="#3F3D56"/>
<path d="M235.372 269.582C244.38 269.582 251.682 268.174 251.682 266.438C251.682 264.702 244.38 263.294 235.372 263.294C226.365 263.294 219.063 264.702 219.063 266.438C219.063 268.174 226.365 269.582 235.372 269.582Z" fill="#3F3D56"/>
<path d="M102.538 256.22C111.545 256.22 118.847 254.812 118.847 253.076C118.847 251.339 111.545 249.932 102.538 249.932C93.5302 249.932 86.2281 251.339 86.2281 253.076C86.2281 254.812 93.5302 256.22 102.538 256.22Z" fill="#3F3D56"/>
<path d="M183.103 217.509L184.675 228.513L192.535 227.727L191.749 216.33L183.103 217.509Z" fill="#FFB8B8"/>
<path d="M145.768 217.509L144.196 228.513L136.336 227.727L137.122 216.33L145.768 217.509Z" fill="#FFB8B8"/>
<path d="M134.371 103.539C134.371 103.539 127.297 111.792 128.869 124.761C130.441 137.73 133.192 167.205 133.192 167.205L135.157 219.474L147.733 218.688L149.698 174.279L155.986 138.516L172.885 180.174C172.885 180.174 181.138 219.081 181.531 219.081C181.924 219.081 193.321 217.902 193.321 217.902L187.819 171.921C187.819 171.921 179.173 105.111 174.064 103.932C168.955 102.753 134.371 103.539 134.371 103.539Z" fill="#2F2E41"/>
<path d="M193.321 226.155C193.321 226.155 186.247 221.439 183.496 226.941C180.745 232.443 183.103 236.373 183.103 236.373C183.103 236.373 185.461 237.945 184.282 239.517C183.103 241.089 182.71 251.307 192.928 249.735C203.146 248.163 198.037 237.552 198.037 237.552L193.321 226.155Z" fill="#2F2E41"/>
<path d="M135.55 226.155C135.55 226.155 142.624 221.439 145.375 226.941C148.126 232.443 145.768 236.373 145.768 236.373C145.768 236.373 143.41 237.945 144.589 239.517C145.768 241.089 146.161 251.307 135.943 249.735C125.725 248.163 130.834 237.552 130.834 237.552L135.55 226.155Z" fill="#2F2E41"/>
<path d="M144 27.0996C144 27.0996 147.537 36.9247 144.786 42.4267C142.035 47.9287 149.109 54.2168 149.109 54.2168C149.109 54.2168 167.58 44.7847 165.222 40.0687C162.864 35.3527 158.934 29.0646 159.72 25.1346L144 27.0996Z" fill="#FFB8B8"/>
<path d="M150.877 30.8331C157.823 30.8331 163.453 25.2026 163.453 18.2571C163.453 11.3115 157.823 5.681 150.877 5.681C143.931 5.681 138.301 11.3115 138.301 18.2571C138.301 25.2026 143.931 30.8331 150.877 30.8331Z" fill="#FFB8B8"/>
<path d="M141.838 41.8372C141.838 41.8372 154.456 52.3376 163.867 37.4588L173.671 43.0162L178.78 102.753C178.78 102.753 150.091 119.259 136.336 105.111L138.301 49.6972L141.838 41.8372Z" fill="#D0CDE1"/>
<path d="M145.801 35.955L128.083 47.7321L134.371 76.8142L126.118 122.009L139.48 101.966L145.801 35.955Z" fill="#575A89"/>
<path d="M161.46 32.6769L165.811 35.5492L183.496 41.8372L180.745 90.5695L188.212 122.01L177.601 127.512C177.601 127.512 175.636 112.578 163.453 105.111C151.27 97.6435 158.68 34.9137 161.46 32.6769Z" fill="#575A89"/>
<path d="M132.013 109.041L137.122 112.578C137.122 112.578 130.637 119.455 129.458 118.276C129.117 117.949 128.852 117.55 128.682 117.108C128.513 116.667 128.442 116.193 128.476 115.722L127.297 112.971L132.013 109.041Z" fill="#FFB8B8"/>
<path d="M165.976 108.276L164.239 111.006C164.239 111.006 159.13 113.364 160.309 114.936C161.488 116.508 171.313 120.045 173.278 116.508L175.243 112.971L165.976 108.276Z" fill="#FFB8B8"/>
<path d="M130.441 47.3392L127.69 47.7322L123.17 77.0109C123.17 77.0109 121.402 82.3164 123.367 94.8925C125.332 107.469 127.278 115.658 127.278 115.658L135.943 109.434L132.013 99.2155L137.122 61.8803L130.441 47.3392Z" fill="#575A89"/>
<path d="M177.208 41.0512L183.496 41.8372C183.496 41.8372 190.57 49.3043 191.749 57.1643C192.928 65.0243 192.535 87.4255 192.535 87.4255L174.457 116.115L164.632 109.041L178.387 84.6744L171.706 55.5923L177.208 41.0512Z" fill="#575A89"/>
<path d="M162.87 6.88271C160.968 3.79453 157.991 1.51888 154.512 0.493735L151.957 2.53786L152.951 0.153618C152.115 0.026174 151.27 -0.022693 150.425 0.00765748L148.126 2.96353L149.078 0.108906C147.083 0.356816 145.161 1.01538 143.433 2.04307C141.705 3.07076 140.209 4.44528 139.039 6.07996C136.113 10.2991 135.62 16.1665 138.497 20.4186C139.288 17.9908 140.246 15.7127 141.036 13.2849C141.657 13.3695 142.287 13.3726 142.908 13.294L143.869 11.0513L144.138 13.1991C147.117 12.9395 151.536 12.3697 154.36 11.8476L154.086 10.1999L155.729 11.5692C156.594 11.3699 157.108 11.1893 157.065 11.0513C159.166 14.4375 161.247 16.6004 163.347 19.9867C164.145 15.2102 165.552 11.2399 162.87 6.88271Z" fill="#2F2E41"/>
<path d="M162.173 19.5647C162.643 19.5647 163.025 18.8023 163.025 17.862C163.025 16.9216 162.643 16.1593 162.173 16.1593C161.703 16.1593 161.322 16.9216 161.322 17.862C161.322 18.8023 161.703 19.5647 162.173 19.5647Z" fill="#FFB8B8"/>
<path d="M298.201 240.138C298.563 252.541 291.316 257.086 282.222 257.352C282.011 257.358 281.8 257.362 281.591 257.363C281.169 257.366 280.752 257.359 280.338 257.342C272.113 257 265.603 252.634 265.266 241.1C264.917 229.164 279.733 213.654 280.845 212.507L280.847 212.506C280.889 212.462 280.91 212.441 280.91 212.441C280.91 212.441 297.839 227.737 298.201 240.138Z" fill="#F37335"/>
<path d="M281.567 255.472L287.344 246.881L281.579 256.396L281.591 257.363C281.169 257.366 280.752 257.359 280.338 257.342L280.625 244.915L280.617 244.82L280.627 244.801L280.655 243.627L274.328 234.441L280.647 242.748L280.67 242.996L280.886 233.607L275.422 224.084L280.902 231.958L280.845 212.507L280.845 212.443L280.847 212.506L281.209 227.836L286.19 221.609L281.226 229.157L281.334 237.555L285.917 229.359L281.351 238.789L281.412 243.459L288.076 232.042L281.432 245.088L281.567 255.472Z" fill="#3F3D56"/>
<path d="M87.5518 221.667C87.9141 234.07 80.6674 238.615 71.573 238.88C71.3617 238.887 71.1514 238.89 70.9421 238.892C70.5203 238.895 70.1027 238.888 69.6891 238.871C61.4642 238.529 54.9536 234.163 54.6168 222.629C54.2682 210.693 69.084 195.183 70.1956 194.036L70.1975 194.035C70.2397 193.991 70.2614 193.969 70.2614 193.969C70.2614 193.969 87.1897 209.266 87.5518 221.667Z" fill="#F37335"/>
<path d="M70.9182 237.001L76.6952 228.41L70.93 237.925L70.9421 238.892C70.5203 238.895 70.1026 238.888 69.6891 238.871L69.9756 226.444L69.9678 226.348L69.9783 226.33L70.0058 225.156L63.6792 215.97L69.9983 224.277L70.0207 224.525L70.2371 215.136L64.7727 205.613L70.2527 213.487L70.1955 194.036L70.1956 193.971L70.1975 194.035L70.5602 209.365L75.5404 203.138L70.5766 210.686L70.6852 219.084L75.268 210.887L70.7021 220.318L70.7626 224.988L77.4272 213.571L70.7828 226.617L70.9182 237.001Z" fill="#3F3D56"/>
<path d="M244.956 257.623C245.169 264.903 240.915 267.571 235.577 267.727C235.453 267.731 235.329 267.733 235.207 267.734C234.959 267.736 234.714 267.731 234.471 267.721C229.643 267.521 225.822 264.958 225.624 258.188C225.419 251.181 234.116 242.078 234.768 241.404L234.77 241.404C234.794 241.378 234.807 241.365 234.807 241.365C234.807 241.365 244.744 250.344 244.956 257.623Z" fill="#F37335"/>
<path d="M235.193 266.624L238.584 261.581L235.2 267.166L235.207 267.734C234.959 267.736 234.714 267.731 234.471 267.721L234.639 260.427L234.635 260.371L234.641 260.36L234.657 259.671L230.943 254.279L234.653 259.155L234.666 259.301L234.793 253.79L231.585 248.2L234.802 252.822L234.768 241.404L234.768 241.366L234.77 241.404L234.983 250.402L237.906 246.747L234.992 251.177L235.056 256.107L237.746 251.296L235.066 256.831L235.101 259.572L239.013 252.871L235.113 260.529L235.193 266.624Z" fill="#3F3D56"/>
<path d="M376.965 20.1172C376.977 20.0812 376.989 20.0447 377 20.0085C376.995 20.0244 376.989 20.0396 376.984 20.0555L376.965 20.1172Z" fill="#2F2E41"/>
<path d="M322.046 228.652L351.155 185.364L322.106 233.309L322.167 238.18C320.041 238.196 317.937 238.161 315.853 238.074L317.297 175.461L317.257 174.978L317.311 174.884L317.449 168.968L285.571 122.685L317.411 164.54L317.524 165.79L318.615 118.484L291.081 70.4991L318.693 110.173L318.405 12.1661L318.406 11.8399L318.415 12.1607L320.243 89.4034L345.336 58.0274L320.325 96.0577L320.873 138.372L343.964 97.0749L320.957 144.593L321.262 168.122L354.843 110.596L321.364 176.331L322.046 228.652Z" fill="#3F3D56"/>
<path d="M24.8201 226.974L44.6279 197.518L24.8606 230.143L24.902 233.457C23.4559 233.468 22.0239 233.444 20.606 233.385L21.5884 190.779L21.5615 190.45L21.5978 190.387L21.6918 186.361L0 154.867L21.6662 183.347L21.7431 184.198L22.4851 152.007L3.74926 119.355L22.5385 146.353L22.3424 79.6616L22.3428 79.4396L22.3492 79.6579L23.5929 132.219L40.6684 110.869L23.6488 136.747L24.0215 165.541L39.7345 137.44L24.0792 169.774L24.2867 185.785L47.1376 146.64L24.3561 191.371L24.8201 226.974Z" fill="#3F3D56"/>
</g>
<defs>
<clipPath id="clip0">
<rect width="377" height="269.582" fill="white"/>
</clipPath>
</defs>
</svg>
