<svg width="35" height="35" viewBox="0 0 35 35" fill="none" xmlns="http://www.w3.org/2000/svg">
<path d="M30.1087 3.80432H5.10869C4.50746 3.80432 4.02173 4.29005 4.02173 4.89128V29.8913C4.02173 30.4925 4.50746 30.9782 5.10869 30.9782H30.1087C30.7099 30.9782 31.1956 30.4925 31.1956 29.8913V4.89128C31.1956 4.29005 30.7099 3.80432 30.1087 3.80432ZM26.9701 11.7357H24.7996C23.0978 11.7357 22.7683 12.5441 22.7683 13.733V16.3519H26.8308L26.3009 20.4517H22.7683V30.9782H18.5326V20.4551H14.9898V16.3519H18.5326V13.3288C18.5326 9.81995 20.6759 7.90758 23.8077 7.90758C25.3091 7.90758 26.5965 8.01967 26.9735 8.07063V11.7357H26.9701Z" fill="#3E2723"/>
</svg>
