<svg width="35" height="35" viewBox="0 0 35 35" fill="none" xmlns="http://www.w3.org/2000/svg">
<path d="M17.3777 2.59168C8.97756 2.58828 2.17389 9.38855 2.17389 17.7819C2.17389 24.4191 6.43 30.0611 12.3573 32.1331C13.1555 32.3335 13.0333 31.7663 13.0333 31.379V28.7466C8.42389 29.2866 8.23707 26.2364 7.92797 25.7269C7.30297 24.6603 5.82538 24.3885 6.26696 23.879C7.31655 23.339 8.38652 24.0149 9.62633 25.8458C10.5231 27.1739 12.2724 26.9497 13.1589 26.7289C13.3526 25.9307 13.767 25.2174 14.3376 24.6637C9.5618 23.8077 7.57131 20.8933 7.57131 17.4286C7.57131 15.7472 8.12498 14.2017 9.21193 12.9551C8.519 10.9001 9.27647 9.14059 9.37837 8.87904C11.3519 8.70241 13.4035 10.2921 13.5632 10.4178C14.6841 10.1155 15.9647 9.95581 17.3981 9.95581C18.8383 9.95581 20.1223 10.1222 21.2534 10.428C21.6372 10.1358 23.5394 8.77034 25.3736 8.93678C25.4721 9.19833 26.2126 10.9171 25.5604 12.9449C26.661 14.1949 27.2214 15.754 27.2214 17.4388C27.2214 20.9103 25.2174 23.8281 20.428 24.6705C20.8382 25.0739 21.1639 25.555 21.3861 26.0858C21.6083 26.6165 21.7225 27.1862 21.7221 27.7615V31.5828C21.7493 31.8885 21.7221 32.1909 22.2316 32.1909C28.2473 30.163 32.5781 24.4803 32.5781 17.7853C32.5781 9.38855 25.771 2.59168 17.3777 2.59168Z" fill="#3E2723"/>
</svg>
