<svg width="35" height="35" viewBox="0 0 35 35" fill="none" xmlns="http://www.w3.org/2000/svg">
<path d="M29.9638 3.80432H4.96379C4.36256 3.80432 3.87683 4.29005 3.87683 4.89128V29.8913C3.87683 30.4925 4.36256 30.9782 4.96379 30.9782H29.9638C30.565 30.9782 31.0507 30.4925 31.0507 29.8913V4.89128C31.0507 4.29005 30.565 3.80432 29.9638 3.80432ZM11.9373 26.9599H7.90536V13.9911H11.9373V26.9599ZM9.92303 12.218C9.46082 12.218 9.00899 12.081 8.62468 11.8242C8.24037 11.5674 7.94084 11.2024 7.76396 10.7754C7.58708 10.3484 7.5408 9.87849 7.63097 9.42517C7.72115 8.97184 7.94372 8.55544 8.27055 8.22861C8.59738 7.90178 9.01378 7.67921 9.46711 7.58903C9.92043 7.49886 10.3903 7.54514 10.8173 7.72202C11.2444 7.8989 11.6093 8.19843 11.8661 8.58274C12.1229 8.96705 12.26 9.41888 12.26 9.88109C12.2566 11.1718 11.2104 12.218 9.92303 12.218ZM27.0324 26.9599H23.0039V20.6521C23.0039 19.1474 22.9767 17.2146 20.9081 17.2146C18.8123 17.2146 18.4896 18.8519 18.4896 20.5435V26.9599H14.4645V13.9911H18.33V15.7642H18.3843C18.921 14.7452 20.2355 13.6685 22.1988 13.6685C26.2817 13.6685 27.0324 16.3553 27.0324 19.8471V26.9599Z" fill="#3E2723"/>
</svg>
