<svg width="35" height="35" viewBox="0 0 35 35" fill="none" xmlns="http://www.w3.org/2000/svg">
<path d="M17.5362 2.17395C9.13265 2.17395 2.31879 8.98781 2.31879 17.3913C2.31879 25.7949 9.13265 32.6087 17.5362 32.6087C25.9397 32.6087 32.7536 25.7949 32.7536 17.3913C32.7536 8.98781 25.9397 2.17395 17.5362 2.17395ZM12.4241 19.7079C12.4241 20.6522 11.6598 21.4199 10.7155 21.4199C10.2638 21.4199 9.82898 21.2398 9.50629 20.9172C9.18699 20.5945 9.00697 20.1597 9.00697 19.7079C9.00697 18.7636 9.77123 17.996 10.7155 17.996H12.4241V19.7079ZM16.9757 24.2731C16.9757 25.2174 16.2114 25.9851 15.2672 25.9851C14.3229 25.9851 13.5586 25.2174 13.5586 24.2731V19.7079C13.5586 18.7636 14.3229 17.996 15.2672 17.996C15.7189 17.996 16.1537 18.176 16.4764 18.4987C16.7991 18.8214 16.9757 19.2562 16.9757 19.7079V24.2731ZM15.2706 16.8547H10.7189C9.77463 16.8547 9.01036 16.087 9.01036 15.1427C9.01036 14.1984 9.77463 13.4307 10.7189 13.4307H15.2706C16.2148 13.4307 16.9791 14.1984 16.9791 15.1427C16.9757 16.0904 16.2114 16.8547 15.2706 16.8547ZM15.2706 12.2894C14.8188 12.2894 14.384 12.1094 14.0613 11.7867C13.7386 11.464 13.562 11.0326 13.562 10.5775C13.562 9.63319 14.3263 8.86553 15.2706 8.86553C16.2148 8.86553 16.9791 9.63319 16.9791 10.5775V12.2894H15.2706ZM18.1136 10.5775C18.1136 9.63319 18.8779 8.86553 19.8222 8.86553C20.7665 8.86553 21.5307 9.63319 21.5307 10.5775V15.1427C21.5307 16.087 20.7665 16.8547 19.8222 16.8547C18.8779 16.8547 18.1136 16.087 18.1136 15.1427V10.5775ZM19.8222 25.9851C18.8779 25.9851 18.1136 25.2174 18.1136 24.2731V22.5612H19.8222C20.7665 22.5612 21.5307 23.3288 21.5307 24.2731C21.5307 25.2174 20.7665 25.9851 19.8222 25.9851ZM24.3738 21.4199H19.8222C19.3704 21.4199 18.9356 21.2398 18.6129 20.9172C18.2903 20.5945 18.1136 20.1631 18.1136 19.7079C18.1136 18.7636 18.8779 17.996 19.8222 17.996H24.3738C25.3181 17.996 26.0824 18.7636 26.0824 19.7079C26.0824 20.6522 25.3181 21.4199 24.3738 21.4199ZM24.3738 16.8547H22.6653V15.1427C22.6653 14.1984 23.4295 13.4307 24.3738 13.4307C25.3181 13.4307 26.0824 14.1984 26.0824 15.1427C26.0824 16.087 25.3181 16.8547 24.3738 16.8547Z" fill="#3E2723"/>
</svg>
