<svg width="256" height="194" viewBox="0 0 256 194" fill="none" xmlns="http://www.w3.org/2000/svg">
<g clip-path="url(#clip0)">
<path d="M118.055 41.2337H54.9032C54.5932 41.2333 54.2959 41.11 54.0767 40.8908C53.8575 40.6715 53.7341 40.3743 53.7338 40.0642V24.3989C53.7341 24.0889 53.8575 23.7916 54.0767 23.5724C54.2959 23.3531 54.5932 23.2298 54.9032 23.2294H118.055C118.365 23.2298 118.663 23.3531 118.882 23.5724C119.101 23.7916 119.224 24.0889 119.225 24.3989V40.0642C119.224 40.3743 119.101 40.6715 118.882 40.8908C118.663 41.11 118.365 41.2333 118.055 41.2337ZM54.9032 23.6972C54.7172 23.6974 54.5389 23.7714 54.4073 23.903C54.2758 24.0345 54.2018 24.2129 54.2016 24.3989V40.0642C54.2018 40.2503 54.2758 40.4286 54.4073 40.5602C54.5389 40.6917 54.7172 40.7657 54.9032 40.7659H118.055C118.241 40.7657 118.42 40.6917 118.551 40.5602C118.683 40.4286 118.757 40.2503 118.757 40.0642V24.3989C118.757 24.2129 118.683 24.0345 118.551 23.903C118.42 23.7714 118.241 23.6974 118.055 23.6972L54.9032 23.6972Z" fill="#3F3D56"/>
<path d="M64.7158 36.3944C67.3468 36.3944 69.4796 34.2615 69.4796 31.6305C69.4796 28.9995 67.3468 26.8667 64.7158 26.8667C62.0848 26.8667 59.9519 28.9995 59.9519 31.6305C59.9519 34.2615 62.0848 36.3944 64.7158 36.3944Z" fill="#FF6F00"/>
<path d="M75.718 28.4546C75.5074 28.4546 75.3054 28.5383 75.1565 28.6872C75.0076 28.8361 74.924 29.038 74.924 29.2486C74.924 29.4592 75.0076 29.6611 75.1565 29.81C75.3054 29.9589 75.5074 30.0426 75.718 30.0426H113.148C113.359 30.0426 113.561 29.9589 113.71 29.81C113.858 29.6611 113.942 29.4592 113.942 29.2486C113.942 29.038 113.858 28.8361 113.71 28.6872C113.561 28.5383 113.359 28.4546 113.148 28.4546H75.718Z" fill="#E6E6E6"/>
<path d="M75.718 33.2184C75.5074 33.2184 75.3054 33.3021 75.1565 33.451C75.0076 33.5999 74.924 33.8018 74.924 34.0124C74.924 34.223 75.0076 34.4249 75.1565 34.5738C75.3054 34.7227 75.5074 34.8064 75.718 34.8064H91.8243C91.9287 34.8066 92.0321 34.7862 92.1286 34.7464C92.2251 34.7066 92.3128 34.6481 92.3866 34.5744C92.4605 34.5006 92.5191 34.413 92.5591 34.3166C92.5991 34.2202 92.6197 34.1168 92.6197 34.0124C92.6197 33.908 92.5991 33.8047 92.5591 33.7082C92.5191 33.6118 92.4605 33.5242 92.3866 33.4505C92.3128 33.3767 92.2251 33.3183 92.1286 33.2785C92.0321 33.2387 91.9287 33.2183 91.8243 33.2184H75.718Z" fill="#E6E6E6"/>
<path d="M90.6385 97.0734H62.5708C62.2608 97.073 61.9635 96.9497 61.7443 96.7305C61.5251 96.5112 61.4017 96.214 61.4014 95.9039V66.6726C61.4017 66.3626 61.5251 66.0653 61.7443 65.8461C61.9635 65.6268 62.2608 65.5035 62.5708 65.5031H90.6385C90.9485 65.5035 91.2458 65.6268 91.465 65.8461C91.6843 66.0653 91.8076 66.3626 91.8079 66.6726V95.9039C91.8076 96.214 91.6843 96.5112 91.465 96.7305C91.2458 96.9497 90.9485 97.073 90.6385 97.0734ZM62.5708 65.9709C62.3848 65.9711 62.2064 66.0451 62.0749 66.1767C61.9434 66.3082 61.8694 66.4866 61.8692 66.6726V95.9039C61.8694 96.0899 61.9434 96.2683 62.0749 96.3998C62.2064 96.5314 62.3848 96.6054 62.5708 96.6056H90.6385C90.8245 96.6054 91.0029 96.5314 91.1344 96.3998C91.266 96.2683 91.34 96.0899 91.3402 95.9039V66.6726C91.34 66.4866 91.266 66.3082 91.1344 66.1767C91.0029 66.0451 90.8245 65.9711 90.6385 65.9709H62.5708Z" fill="#3F3D56"/>
<path d="M68.5515 71.5312C68.3409 71.5312 68.139 71.6148 67.9901 71.7637C67.8412 71.9126 67.7575 72.1146 67.7575 72.3251C67.7575 72.5357 67.8412 72.7377 67.9901 72.8866C68.139 73.0355 68.3409 73.1191 68.5515 73.1191H84.6578C84.8684 73.1191 85.0703 73.0355 85.2192 72.8866C85.3681 72.7377 85.4518 72.5357 85.4518 72.3251C85.4518 72.1146 85.3681 71.9126 85.2192 71.7637C85.0703 71.6148 84.8684 71.5312 84.6578 71.5312H68.5515Z" fill="#E6E6E6"/>
<path d="M68.5515 76.2091C68.4471 76.2089 68.3437 76.2293 68.2472 76.2691C68.1507 76.3089 68.063 76.3674 67.9891 76.4411C67.9152 76.5149 67.8566 76.6025 67.8166 76.6989C67.7766 76.7953 67.756 76.8987 67.756 77.003C67.756 77.1074 67.7766 77.2108 67.8166 77.3072C67.8566 77.4036 67.9152 77.4912 67.9891 77.565C68.063 77.6387 68.1507 77.6972 68.2472 77.737C68.3437 77.7768 68.4471 77.7972 68.5515 77.797H84.6578C84.8684 77.797 85.0703 77.7134 85.2192 77.5645C85.3681 77.4156 85.4518 77.2136 85.4518 77.003C85.4518 76.7925 85.3681 76.5905 85.2192 76.4416C85.0703 76.2927 84.8684 76.2091 84.6578 76.2091H68.5515Z" fill="#E6E6E6"/>
<path d="M76.6047 91.0454C75.6162 91.0454 74.65 90.7523 73.8281 90.2031C73.0063 89.654 72.3657 88.8734 71.9874 87.9602C71.6092 87.047 71.5102 86.0421 71.703 85.0727C71.8959 84.1032 72.3719 83.2127 73.0708 82.5138C73.7697 81.8148 74.6602 81.3389 75.6297 81.146C76.5992 80.9532 77.604 81.0522 78.5172 81.4304C79.4304 81.8087 80.211 82.4493 80.7601 83.2711C81.3093 84.093 81.6024 85.0592 81.6024 86.0477C81.6009 87.3727 81.0739 88.643 80.1369 89.5799C79.2 90.5169 77.9297 91.0439 76.6047 91.0454Z" fill="#FF6F00"/>
<path d="M136.618 0H164.685C164.996 0.000364072 165.293 0.123693 165.512 0.342934C165.731 0.562176 165.855 0.859427 165.855 1.16948V30.4008C165.855 30.7108 165.731 31.0081 165.512 31.2273C165.293 31.4465 164.996 31.5699 164.685 31.5702H136.618C136.308 31.5699 136.011 31.4465 135.791 31.2273C135.572 31.0081 135.449 30.7108 135.448 30.4008V1.16948C135.449 0.859427 135.572 0.562176 135.791 0.342934C136.011 0.123693 136.308 0.000364072 136.618 0ZM164.685 31.1024C164.872 31.1022 165.05 31.0283 165.181 30.8967C165.313 30.7652 165.387 30.5868 165.387 30.4008V1.16948C165.387 0.983443 165.313 0.805084 165.181 0.673535C165.05 0.541987 164.872 0.467995 164.685 0.467791H136.618C136.432 0.467995 136.253 0.541987 136.122 0.673535C135.99 0.805084 135.916 0.983443 135.916 1.16948V30.4008C135.916 30.5868 135.99 30.7652 136.122 30.8967C136.253 31.0283 136.432 31.1022 136.618 31.1024H164.685Z" fill="#3F3D56"/>
<path d="M158.705 25.5422C158.915 25.5422 159.117 25.4586 159.266 25.3097C159.415 25.1608 159.499 24.9588 159.499 24.7483C159.499 24.5377 159.415 24.3357 159.266 24.1868C159.117 24.0379 158.915 23.9543 158.705 23.9543H142.599C142.388 23.9543 142.186 24.0379 142.037 24.1868C141.888 24.3357 141.805 24.5377 141.805 24.7483C141.805 24.9588 141.888 25.1608 142.037 25.3097C142.186 25.4586 142.388 25.5422 142.599 25.5422H158.705Z" fill="#E6E6E6"/>
<path d="M158.705 20.8643C158.915 20.8643 159.117 20.7806 159.266 20.6317C159.415 20.4828 159.499 20.2809 159.499 20.0703C159.499 19.8597 159.415 19.6578 159.266 19.5089C159.117 19.36 158.915 19.2763 158.705 19.2763H142.599C142.388 19.2763 142.186 19.36 142.037 19.5089C141.888 19.6578 141.805 19.8597 141.805 20.0703C141.805 20.2809 141.888 20.4828 142.037 20.6317C142.186 20.7806 142.388 20.8643 142.599 20.8643H158.705Z" fill="#E6E6E6"/>
<path d="M150.652 6.02802C151.64 6.02801 152.606 6.32113 153.428 6.87028C154.25 7.41943 154.891 8.19997 155.269 9.11318C155.647 10.0264 155.746 11.0313 155.553 12.0007C155.36 12.9702 154.884 13.8607 154.186 14.5596C153.487 15.2586 152.596 15.7346 151.627 15.9274C150.657 16.1202 149.652 16.0213 148.739 15.643C147.826 15.2647 147.045 14.6242 146.496 13.8023C145.947 12.9804 145.654 12.0142 145.654 11.0257C145.655 9.7007 146.182 8.43039 147.119 7.49346C148.056 6.55654 149.327 6.02951 150.652 6.02802Z" fill="#FF6F00"/>
<path d="M54.0944 60.475C59.0612 56.6282 64.864 54.005 71.033 52.8178C77.2511 51.6329 83.663 51.9624 89.7269 53.7784C92.7751 54.686 95.7038 55.955 98.4506 57.5583C101.249 59.1944 103.778 61.2085 106.211 63.341C108.676 65.5012 111.06 67.7576 113.633 69.7913C120.98 75.6634 130.099 78.8716 139.504 78.8922C140.281 78.8934 141.057 78.872 141.833 78.828C142.254 78.8048 142.257 78.1475 141.833 78.1708C132.247 78.6987 122.78 75.838 115.09 70.0896C112.423 68.0953 109.988 65.8151 107.502 63.6055C105.092 61.4633 102.617 59.3794 99.8826 57.6584C93.1942 53.4447 85.4131 51.2937 77.51 51.4739C69.607 51.654 61.932 54.1573 55.4425 58.6713C54.8255 59.1003 54.2227 59.5487 53.6297 60.0103C53.2963 60.2698 53.7644 60.7319 54.0944 60.475V60.475Z" fill="#3F3D56"/>
<path d="M53.7455 63.6518C55.6318 63.6518 57.161 62.1226 57.161 60.2363C57.161 58.35 55.6318 56.8208 53.7455 56.8208C51.8592 56.8208 50.33 58.35 50.33 60.2363C50.33 62.1226 51.8592 63.6518 53.7455 63.6518Z" fill="#3F3D56"/>
<path d="M180.808 109C182.695 109 184.224 107.471 184.224 105.585C184.224 103.698 182.695 102.169 180.808 102.169C178.922 102.169 177.393 103.698 177.393 105.585C177.393 107.471 178.922 109 180.808 109Z" fill="#3F3D56"/>
<path d="M198.701 86.1284H142.971C142.661 86.128 142.364 86.0047 142.144 85.7854C141.925 85.5662 141.802 85.269 141.802 84.9589V55.9615C141.802 55.6515 141.925 55.3542 142.144 55.135C142.364 54.9157 142.661 54.7924 142.971 54.792H198.701C199.011 54.7924 199.309 54.9157 199.528 55.135C199.747 55.3542 199.871 55.6515 199.871 55.9615V84.9589C199.871 85.2689 199.747 85.5662 199.528 85.7854C199.309 86.0047 199.011 86.128 198.701 86.1284ZM142.971 55.2598C142.785 55.26 142.607 55.334 142.475 55.4656C142.344 55.5971 142.27 55.7755 142.269 55.9615V84.9589C142.27 85.1449 142.344 85.3233 142.475 85.4548C142.607 85.5864 142.785 85.6604 142.971 85.6606H198.701C198.887 85.6604 199.066 85.5864 199.197 85.4548C199.329 85.3233 199.403 85.1449 199.403 84.9589V55.9615C199.403 55.7755 199.329 55.5971 199.197 55.4656C199.066 55.334 198.887 55.26 198.701 55.2598H142.971Z" fill="#3F3D56"/>
<path d="M152.316 69.8281C154.947 69.8281 157.08 67.6953 157.08 65.0643C157.08 62.4333 154.947 60.3004 152.316 60.3004C149.685 60.3004 147.552 62.4333 147.552 65.0643C147.552 67.6953 149.685 69.8281 152.316 69.8281Z" fill="#FF6F00"/>
<path d="M163.318 61.8884C163.214 61.8882 163.11 61.9086 163.014 61.9484C162.917 61.9882 162.829 62.0467 162.756 62.1204C162.682 62.1942 162.623 62.2817 162.583 62.3782C162.543 62.4746 162.523 62.5779 162.523 62.6823C162.523 62.7867 162.543 62.8901 162.583 62.9865C162.623 63.0829 162.682 63.1705 162.756 63.2443C162.829 63.318 162.917 63.3765 163.014 63.4163C163.11 63.4561 163.214 63.4765 163.318 63.4763H193.327C193.537 63.4763 193.739 63.3927 193.888 63.2438C194.037 63.0949 194.12 62.8929 194.12 62.6823C194.12 62.4718 194.037 62.2698 193.888 62.1209C193.739 61.972 193.537 61.8884 193.327 61.8884H163.318Z" fill="#E6E6E6"/>
<path d="M163.318 66.6522C163.214 66.652 163.11 66.6724 163.014 66.7122C162.917 66.752 162.829 66.8105 162.756 66.8842C162.682 66.958 162.623 67.0456 162.583 67.142C162.543 67.2384 162.523 67.3418 162.523 67.4462C162.523 67.5506 162.543 67.6539 162.583 67.7503C162.623 67.8468 162.682 67.9344 162.756 68.0081C162.829 68.0818 162.917 68.1403 163.014 68.1801C163.11 68.2199 163.214 68.2403 163.318 68.2401H179.424C179.635 68.2401 179.837 68.1565 179.986 68.0076C180.135 67.8587 180.218 67.6567 180.218 67.4462C180.218 67.2356 180.135 67.0336 179.986 66.8847C179.837 66.7358 179.635 66.6522 179.424 66.6522H163.318Z" fill="#E6E6E6"/>
<path d="M148.662 74.2682C148.058 74.2682 147.566 74.6244 147.566 75.0622C147.566 75.4999 148.058 75.8561 148.662 75.8561H192.882C193.486 75.8561 193.978 75.4999 193.978 75.0622C193.978 74.6244 193.486 74.2682 192.882 74.2682H148.662Z" fill="#E6E6E6"/>
<path d="M148.662 79.032C148.058 79.032 147.566 79.3883 147.566 79.826C147.566 80.2637 148.058 80.62 148.662 80.62H192.882C193.486 80.62 193.978 80.2637 193.978 79.826C193.978 79.3883 193.486 79.032 192.882 79.032H148.662Z" fill="#E6E6E6"/>
<path d="M138.491 108.764C141.635 107.4 145.146 108.589 148.109 109.847C149.635 110.494 151.145 111.185 152.725 111.696C154.053 112.125 155.414 112.448 156.794 112.661C159.563 113.085 162.38 113.102 165.154 112.712C167.942 112.323 170.66 111.533 173.222 110.366C175.769 109.211 178.124 107.672 180.204 105.801C180.469 105.562 180.728 105.318 180.982 105.068C181.285 104.771 180.82 104.307 180.518 104.603C178.515 106.555 176.216 108.178 173.706 109.411C171.206 110.64 168.54 111.497 165.792 111.954C163.035 112.418 160.224 112.467 157.453 112.098C156.071 111.911 154.705 111.614 153.37 111.21C151.836 110.711 150.332 110.127 148.863 109.46C145.872 108.175 142.549 106.917 139.262 107.803C138.885 107.907 138.517 108.039 138.159 108.197C137.772 108.365 138.107 108.931 138.491 108.764V108.764Z" fill="#3F3D56"/>
<path d="M137.276 116.825H110.947L117.143 106.093C117.254 105.9 117.414 105.74 117.606 105.629C117.798 105.518 118.017 105.46 118.239 105.46C118.461 105.46 118.679 105.518 118.871 105.629C119.064 105.74 119.223 105.9 119.334 106.093L121.981 110.677L126.482 102.882C126.621 102.641 126.821 102.441 127.062 102.302C127.303 102.163 127.576 102.09 127.854 102.09C128.132 102.09 128.405 102.163 128.646 102.302C128.887 102.441 129.087 102.641 129.226 102.882L137.276 116.825Z" fill="#FF6F00"/>
<path d="M137.301 116.822H109.234C108.924 116.822 108.626 116.699 108.407 116.479C108.188 116.26 108.065 115.963 108.064 115.653V99.9874C108.065 99.6774 108.188 99.3801 108.407 99.1609C108.626 98.9416 108.924 98.8183 109.234 98.8179H137.301C137.611 98.8183 137.909 98.9416 138.128 99.1609C138.347 99.3801 138.47 99.6774 138.471 99.9874V115.653C138.47 115.963 138.347 116.26 138.128 116.479C137.909 116.699 137.611 116.822 137.301 116.822ZM109.234 99.2857C109.048 99.2859 108.869 99.3599 108.738 99.4915C108.606 99.623 108.532 99.8014 108.532 99.9874V115.653C108.532 115.839 108.606 116.017 108.738 116.149C108.869 116.28 109.048 116.354 109.234 116.354H137.301C137.487 116.354 137.666 116.28 137.797 116.149C137.929 116.017 138.003 115.839 138.003 115.653V99.9874C138.003 99.8014 137.929 99.623 137.797 99.4915C137.666 99.3599 137.487 99.2859 137.301 99.2857H109.234Z" fill="#3F3D56"/>
<path d="M192.352 103.035L187.349 105.576C185.564 106.482 183.84 106.327 183.18 104.437C183.023 103.987 182.965 103.508 183.01 103.034C183.055 102.559 183.202 102.1 183.441 101.688C183.68 101.275 184.006 100.92 184.395 100.645C184.784 100.37 185.228 100.182 185.697 100.094L190.451 99.2068L210.816 92.4504L223.152 83.7033L227.674 90.9078L213.42 98.5992L192.352 103.035Z" fill="#FFB8B8"/>
<path d="M215.707 187.362L211.879 186.724L212.304 179.494H216.345L215.707 187.362Z" fill="#FFB8B8"/>
<path d="M252.857 180.3L249.153 181.456L246.274 174.81L249.88 172.989L252.857 180.3Z" fill="#FFB8B8"/>
<path d="M250.794 173.965L246.116 175.879L223.787 146.533L216.77 180.983L212.091 180.132C209.09 150.432 206.643 120.138 209.646 105.81L226.977 105.065L234.845 130.159L238.673 147.171L250.794 173.965Z" fill="#2F2E41"/>
<path d="M215.496 193.21C214.796 193.36 214.066 193.282 213.414 192.988L211.14 191.965C209.233 191.867 207.935 192.247 206.873 190.862C206.574 190.466 206.386 189.997 206.329 189.503C206.272 189.01 206.348 188.511 206.549 188.057C206.748 187.601 207.065 187.207 207.467 186.915C207.869 186.622 208.342 186.442 208.836 186.392L211.96 184.424L212.123 185.9C213.551 186.708 215.246 186.359 217.041 185.572L218.022 189.003C218.148 189.445 218.182 189.909 218.122 190.365C218.062 190.821 217.909 191.26 217.672 191.654C217.435 192.049 217.12 192.39 216.745 192.658C216.371 192.925 215.946 193.113 215.496 193.21Z" fill="#2F2E41"/>
<path d="M254.373 186.172C253.76 186.541 253.045 186.705 252.332 186.639L249.849 186.409C248.014 186.936 246.909 187.717 245.455 186.751C245.043 186.474 244.713 186.091 244.499 185.644C244.285 185.196 244.195 184.699 244.237 184.204C244.278 183.708 244.45 183.233 244.735 182.825C245.02 182.418 245.409 182.094 245.861 181.887L248.175 179.011L248.81 180.353C250.422 180.655 251.912 179.774 253.354 178.446L255.396 181.373C255.659 181.75 255.842 182.178 255.933 182.629C256.024 183.079 256.022 183.544 255.926 183.994C255.83 184.444 255.643 184.87 255.375 185.244C255.108 185.619 254.767 185.935 254.373 186.172Z" fill="#2F2E41"/>
<path d="M220.597 74.8687C224.825 74.8687 228.253 71.4412 228.253 67.2132C228.253 62.9852 224.825 59.5577 220.597 59.5577C216.369 59.5577 212.942 62.9852 212.942 67.2132C212.942 71.4412 216.369 74.8687 220.597 74.8687Z" fill="#FFB8B8"/>
<path d="M229.954 83.3749L219.959 81.2483L218.684 72.9549L225.701 71.4663L229.954 83.3749Z" fill="#FFB8B8"/>
<path d="M227.19 106.129H209.327L213.353 96.02C213.061 92.5417 214.535 89.9834 216.645 87.7561L219.322 81.0356C223.647 78.1891 226.907 78.4017 230.38 82.0989C234.496 87.9277 231.647 96.6898 227.19 106.129Z" fill="#FF6F00"/>
<path d="M219.109 127.607L218.601 133.195C218.42 135.189 217.372 136.566 215.42 136.12C214.955 136.014 214.519 135.809 214.141 135.518C213.763 135.228 213.453 134.859 213.23 134.438C213.008 134.016 212.88 133.551 212.854 133.076C212.828 132.6 212.905 132.124 213.08 131.681L214.856 127.181L219.959 106.341L219.109 91.243H227.615L226.552 107.405L219.109 127.607Z" fill="#FFB8B8"/>
<path d="M228.253 91.6683H218.471L219.157 85.2871C219.202 84.1834 219.658 83.1364 220.435 82.3518C221.213 81.5672 222.255 81.1016 223.359 81.0464C223.943 81.0172 224.528 81.1042 225.079 81.3024C225.629 81.5006 226.135 81.806 226.567 82.2011C226.999 82.5961 227.348 83.0729 227.595 83.6038C227.841 84.1347 227.98 84.7092 228.003 85.2941L228.253 91.6683Z" fill="#FF6F00"/>
<path d="M230.072 59.3416C231.661 59.3416 232.95 58.0533 232.95 56.4641C232.95 54.8749 231.661 53.5866 230.072 53.5866C228.483 53.5866 227.195 54.8749 227.195 56.4641C227.195 58.0533 228.483 59.3416 230.072 59.3416Z" fill="#2F2E41"/>
<path d="M227.107 55.7596C227.155 55.0296 227.478 54.345 228.013 53.8453C228.547 53.3456 229.252 53.0685 229.983 53.0702C229.924 53.0627 229.865 53.0535 229.805 53.0496C229.043 53.0011 228.294 53.2569 227.721 53.7608C227.148 54.2647 226.799 54.9754 226.75 55.7367C226.701 56.498 226.956 57.2476 227.46 57.8206C227.964 58.3937 228.674 58.7434 229.435 58.7928C229.496 58.7967 229.555 58.7951 229.615 58.7952C228.89 58.7033 228.226 58.3382 227.76 57.7742C227.294 57.2102 227.061 56.4898 227.107 55.7596Z" fill="#2F2E41"/>
<path d="M227.091 56.9884C224.525 54.8595 217.164 57.5652 216.689 58.9965C213.219 59.4694 210.591 61.4942 210.591 65.0943V65.0943C212.654 65.9395 215.001 65.8353 217.538 65.0943C221.581 68.3895 221.858 72.5319 219.399 77.2898L222.424 77.3503L226.174 71.8696L226.354 77.4289L233.289 77.2898V69.323C233.311 66.6741 232.701 64.058 231.51 61.6919C230.429 59.5925 228.752 58.3666 227.091 56.9884Z" fill="#2F2E41"/>
<path d="M220.633 71.0641C221.393 71.0641 222.009 70.2016 222.009 69.1377C222.009 68.0737 221.393 67.2112 220.633 67.2112C219.873 67.2112 219.257 68.0737 219.257 69.1377C219.257 70.2016 219.873 71.0641 220.633 71.0641Z" fill="#FFB8B8"/>
<path d="M47.497 71.5823C47.497 71.5823 48.3253 57.2452 52.6255 60.503C56.9257 63.7607 50.7476 72.9119 50.7476 72.9119L47.497 71.5823Z" fill="#FFB9B9"/>
<path d="M31.4985 114.109C31.4985 114.109 41.0506 124.833 35.7064 125.57C30.3621 126.307 28.2599 115.468 28.2599 115.468L31.4985 114.109Z" fill="#FFB9B9"/>
<path d="M19.0338 63.3495C20.2327 63.665 21.3116 64.3277 22.1351 65.2543C22.9586 66.181 23.49 67.3303 23.6625 68.5579L26.7009 90.1844L30.9604 107.435C30.9604 107.435 33.0902 109.352 32.2383 110.417C31.3864 111.482 33.3031 115.954 33.3031 115.954L27.9787 117.658C27.9787 117.658 27.3398 113.186 26.275 112.973C25.3391 112.786 14.863 84.8 12.3378 78.0204C11.9896 77.0856 11.7926 76.5539 11.7926 76.5539C11.7926 76.5539 12.2186 62.2846 19.0338 63.3495Z" fill="#575A89"/>
<path d="M20.0063 176.129L23.2767 181.925C25.8093 187.332 23.5587 188.314 17.3491 185.634L15.9337 178.79L20.0063 176.129Z" fill="#FFB9B9"/>
<path d="M21.6564 183.832C21.6564 183.832 23.2089 181.304 23.7704 181.727C24.3319 182.15 26.648 183.983 26.648 183.983L29.6648 186.873C29.6648 186.873 39.8571 187.951 33.3807 191.522C26.9042 195.093 23.3251 192.132 23.3251 192.132C23.3251 192.132 14.2542 192.604 14.4005 190.073C14.5468 187.542 17.4723 183.538 17.4723 183.538C17.4723 183.538 21.1593 186.01 21.6564 183.832Z" fill="#2F2E41"/>
<path d="M5.49396 110.619L8.55996 147.718C8.55996 147.718 8.66215 169.895 11.9325 174.187C15.2029 178.48 15.3051 180.626 15.3051 180.626L22.0503 177.151C22.0503 177.151 18.5755 171.361 19.2909 170.475C19.7319 169.912 20.0457 169.261 20.2107 168.566L18.3711 145.674L21.8459 105.816L5.49396 110.619Z" fill="#2F2E41"/>
<path d="M13.8742 176.129L11.0126 183.692L4.52295 180.979L7.94671 175.311L13.8742 176.129Z" fill="#FFB9B9"/>
<path d="M9.10034 181.144C9.10034 181.144 11.5343 179.623 11.8386 180.232C12.1428 180.84 13.3598 183.426 13.3598 183.426L14.7289 187.229C14.7289 187.229 23.0957 192.554 15.9459 192.858C8.7961 193.162 6.97063 189.055 6.97063 189.055C6.97063 189.055 -1.09188 185.556 0.125109 183.426C1.3421 181.297 5.60153 179.088 5.60153 179.088C5.60153 179.088 7.73125 182.818 9.10034 181.144Z" fill="#2F2E41"/>
<path d="M31.4527 110.721L33.0878 144.856C33.0878 144.856 18.1667 175.72 16.5315 176.538C16.0443 176.789 15.6123 177.136 15.2613 177.557C14.9102 177.979 14.6471 178.466 14.4875 178.991L5.49396 176.742L9.58195 170.201L18.5755 148.331C18.5755 148.331 20.0063 147.718 20.4151 145.674C20.8239 143.63 21.6415 143.63 19.5975 143.221C17.5535 142.812 17.5535 140.768 17.5535 140.768L10.8083 109.699L31.4527 110.721Z" fill="#2F2E41"/>
<path d="M32.1647 50.3024C32.888 45.8452 29.8611 41.6456 25.4039 40.9223C20.9468 40.199 16.7472 43.2259 16.0239 47.6831C15.3006 52.1402 18.3275 56.3398 22.7847 57.0631C27.2418 57.7864 31.4414 54.7595 32.1647 50.3024Z" fill="#FFB9B9"/>
<path d="M16.8381 49.5037C16.8381 49.5037 16.2249 59.9281 15.4074 60.9501C14.5898 61.9721 23.9921 61.7677 23.9921 61.7677C23.9921 61.7677 23.3789 52.9785 23.9921 52.1609C24.6053 51.3433 16.8381 49.5037 16.8381 49.5037Z" fill="#FFB9B9"/>
<path d="M32.0651 112.97C32.0651 112.97 8.96796 110.926 4.67667 112.97C4.67667 112.97 6.25641 107.109 5.84822 106.497C5.55136 106.049 6.37039 89.3559 6.11328 79.7263C5.9675 74.2926 4.71377 68.9861 8.35833 64.952C9.5988 63.5816 10.9824 62.4312 12.4429 61.8693C12.4429 61.8693 12.0347 57.9862 14.0783 57.7821C14.0783 57.7821 21.8471 56.9631 24.7071 59.4175C25.6216 60.1968 26.1967 62.5717 26.2577 64.618C24.8423 71.5784 25.3433 79.3022 26.642 87.3149C26.7216 87.8238 26.809 88.3354 26.8965 88.847C28.2748 96.7934 30.3581 104.986 32.0651 112.97Z" fill="#575A89"/>
<path d="M19.823 51.4019C20.5145 51.3607 21.1896 51.5943 21.8763 51.6855C24.3329 52.0116 26.8885 50.229 27.431 47.8109C27.4744 47.4889 27.5704 47.1762 27.7151 46.8852C28.0932 46.2679 28.9542 46.1502 29.664 46.2922C30.3739 46.4341 31.0467 46.7663 31.7696 46.8043C32.8858 46.8628 33.9573 46.1757 34.5521 45.2294C35.1143 44.2532 35.3533 43.1243 35.2351 42.004L34.7 42.5656C34.4826 42.1057 34.3987 41.5939 34.4577 41.0885C34.1742 41.013 33.876 41.0116 33.5917 41.0843C33.3075 41.1571 33.0466 41.3015 32.8342 41.504C32.3624 41.5542 32.7185 40.6288 32.368 40.3091C32.1975 40.2043 31.9943 40.1663 31.7975 40.2023C30.7938 40.212 29.9818 39.4443 29.1909 38.8263C27.8204 37.7579 26.2178 37.0269 24.5126 36.6924C23.3793 36.4713 22.174 36.4358 21.0992 36.8578C20.2315 37.2473 19.4484 37.8028 18.794 38.493C17.1112 40.1111 15.621 42.0124 14.921 44.2395C14.3518 46.0637 14.3357 48.0156 14.8746 49.849C15.1567 50.8011 16.0069 54.0618 17.2515 54.1377C18.8154 54.2331 17.8764 51.518 19.823 51.4019Z" fill="#2F2E41"/>
<path d="M23.2072 64.353L26.1364 64.6668C26.1364 64.6668 29.0118 70.2453 28.803 71.4089C28.5942 72.5725 28.1395 71.8661 29.4336 73.7277C30.7278 75.5894 34.4002 80.4014 34.855 81.1078C35.3097 81.8142 47.7073 72.3552 46.9365 69.5211C46.9365 69.5211 50.852 72.33 52.5295 72.7039C52.5295 72.7039 39.7528 89.4604 37.9724 91.6048C36.1919 93.7492 34.7589 93.3088 32.3121 92.0373C29.8652 90.7659 17.4867 78.0836 17.4867 78.0836L23.2072 64.353Z" fill="#575A89"/>
<path opacity="0.1" d="M26.8965 88.8469L16.7156 78.666L19.292 77.8258L26.642 87.3149C26.7216 87.8238 26.809 88.3354 26.8965 88.8469Z" fill="black"/>
</g>
<defs>
<clipPath id="clip0">
<rect width="256" height="193.284" fill="white"/>
</clipPath>
</defs>
</svg>
