<svg width="356" height="296" viewBox="0 0 356 296" fill="none" xmlns="http://www.w3.org/2000/svg">
<g clip-path="url(#clip0)">
<path opacity="0.1" d="M355.332 97.3368H322.485V137.154H352.931C353.01 137.565 353.085 137.976 353.174 138.383H322.485V170.487L322.639 170.437C323.506 170.132 324.367 169.808 325.222 169.465L325.772 169.24C326.648 168.88 327.509 168.496 328.355 168.086C328.658 167.947 328.959 167.8 329.255 167.65C333.978 165.325 338.333 162.315 342.177 158.718C342.288 158.622 342.392 158.522 342.492 158.425C343.017 157.918 343.531 157.407 344.032 156.882L344.582 156.296C345.171 155.657 345.739 154.996 346.293 154.328L346.536 154.035C348.762 151.305 350.633 148.304 352.102 145.103C352.149 145.007 352.188 144.907 352.231 144.81C352.677 143.803 353.081 142.781 353.431 141.741C353.581 141.302 353.724 140.862 353.849 140.423C353.892 140.291 353.931 140.162 353.967 140.034C355.789 133.656 356 127.029 356 120.438C356 119.669 356 118.898 356 118.133C356 115.472 355.961 112.774 355.911 110.113C355.911 109.419 355.878 108.73 355.861 108.033C355.818 106.264 355.753 104.496 355.668 102.731C355.646 102.238 355.625 101.749 355.593 101.263C355.593 100.981 355.564 100.699 355.546 100.416C355.475 99.3696 355.41 98.355 355.332 97.3368Z" fill="#FF6F00"/>
<path opacity="0.1" d="M322.485 53.011H340.502C337.548 48.907 334.345 44.9887 330.909 41.2784C328.23 38.356 325.418 35.505 322.474 32.7612L322.485 53.011Z" fill="#FF6F00"/>
<path opacity="0.1" d="M322.485 54.2399V96.1078H355.228C355.228 95.9863 355.207 95.8613 355.196 95.7505C355.168 95.4218 355.139 95.0932 355.107 94.7609C355.075 94.4286 355.032 93.9892 354.989 93.5998C354.946 93.2104 354.903 92.7602 354.853 92.3458C354.803 91.9314 354.76 91.5062 354.707 91.0882C354.653 90.6702 354.603 90.2522 354.546 89.8378C354.489 89.4234 354.435 89.0018 354.371 88.5874C354.321 88.2301 354.274 87.9014 354.221 87.5549C354.146 87.069 354.067 86.5795 353.985 86.0972C353.976 86.0251 353.963 85.9536 353.946 85.8829C353.355 82.333 352.55 78.8219 351.538 75.3686C350.467 71.7099 349.109 68.1416 347.476 64.6971C345.715 61.0535 343.671 57.5535 341.363 54.2292L322.485 54.2399Z" fill="#FF6F00"/>
<path opacity="0.1" d="M244.48 97.3368V137.154H314.639V97.3368H244.48ZM244.48 138.383V165.346C252.647 162.734 261.986 163.788 270.453 165.932C277.009 167.596 283.397 169.861 289.942 171.491C292.865 172.237 295.833 172.798 298.827 173.17L299.563 173.248C299.92 173.284 300.277 173.32 300.635 173.348L301.706 173.423H301.817H302.296C302.351 173.427 302.406 173.427 302.46 173.423L303.039 173.445H303.057C303.332 173.445 303.611 173.445 303.889 173.466H304.247C304.522 173.466 304.8 173.466 305.079 173.466H305.69H306.183C306.394 173.466 306.601 173.466 306.808 173.445C307.144 173.445 307.48 173.416 307.819 173.391L308.444 173.352L309.216 173.291C309.763 173.248 310.288 173.191 310.842 173.127C311.056 173.102 311.274 173.077 311.488 173.045L311.806 173.005C312.346 172.934 312.878 172.848 313.418 172.759C313.814 172.698 314.211 172.623 314.611 172.552V138.383H244.48ZM296.662 52.9967V54.2256H244.48V96.1078H314.639V54.2399H311.12V53.0109H314.639V25.9517C300.992 14.9587 285.04 6.3486 267.273 2.37224C259.791 0.715945 252.143 -0.0811463 244.48 -0.00356583V53.0109L296.662 52.9967ZM136.25 52.7609L136.497 52.9967H236.631V0.364416C218.803 1.84706 201.419 7.83482 187.403 17.7561C180.669 22.5184 174.62 28.1632 167.064 31.818C163.099 33.7855 158.767 34.9049 154.346 35.1048L136.25 52.7609ZM135.561 31.1678V43.0826L145.235 33.6401C141.638 32.3968 138.801 31.5465 135.546 31.1821L135.561 31.1678ZM135.239 181.062H135.561V207.178C139.212 206.906 142.849 206.532 146.471 206.056C162.671 203.969 178.544 199.857 193.72 193.816C195.349 193.163 196.966 192.489 198.571 191.794C199.641 191.33 200.704 190.853 201.762 190.365C203.348 189.636 204.922 188.887 206.485 188.118C213.399 184.719 220.068 180.845 226.445 176.521C226.842 176.253 227.242 175.981 227.635 175.706C228.426 175.159 229.21 174.606 229.989 174.049C230.379 173.766 230.768 173.484 231.154 173.198L231.947 172.591C232.747 171.994 233.544 171.394 234.351 170.805C235.098 170.269 235.852 169.733 236.616 169.233V138.365H156.178C156.235 138.183 156.289 138.008 156.35 137.815C156.285 138.001 156.228 138.172 156.175 138.365H135.546V181.055L135.239 181.062ZM135.561 54.2328V96.1078H236.631V54.2399L135.561 54.2328ZM135.561 97.3296V137.154H236.631V97.3368L135.561 97.3296ZM115.354 32.3932L127.701 44.4437V31.1142C123.564 31.3714 119.448 31.7978 115.354 32.3932ZM29.3779 97.3368V137.154H127.701V97.3368H29.3779ZM53.1431 195.674C68.0461 201.347 83.6279 205.044 99.4911 206.67H99.559C102.558 206.987 105.565 207.233 108.58 207.406H108.691C115.011 207.764 121.356 207.846 127.69 207.61V138.383H29.3779L29.7351 184.227L53.1431 195.674ZM2.14359 137.154H21.5359V97.3368H13.8654C13.0687 98.7372 12.297 100.145 11.5647 101.574C11.1717 102.334 10.7894 103.102 10.4178 103.878C5.36968 114.357 2.16145 125.875 2.14359 137.154ZM2.14359 138.383C2.30078 146.471 4.12283 154.41 8.12063 161.744C11.4432 167.836 16.059 173.177 21.5216 177.821V138.383H2.14359ZM14.5693 96.1078H21.5216V85.7471C19.0158 89.0674 16.6994 92.5264 14.5835 96.1078H14.5693ZM58.1306 53.0109H125.382L125.625 52.7751L125.268 52.4179L106.358 33.9723C100.745 35.1439 95.2023 36.6288 89.7556 38.4202C89.2412 38.5882 88.7267 38.7775 88.2158 38.9383C77.6991 42.5054 67.6094 47.225 58.1306 53.0109ZM29.3779 76.3653V96.1078H115.607H115.625H127.711V55.3796L126.332 54.2578H56.1513C46.3121 60.4434 37.3132 67.874 29.3779 76.3653Z" fill="#FF6F00"/>
<path opacity="0.1" d="M322.485 75.3579V96.1078H355.228C355.228 95.9864 355.207 95.8613 355.196 95.7506C355.168 95.4219 355.139 95.0932 355.107 94.7609C355.075 94.4287 355.032 93.9892 354.989 93.5998C354.946 93.2104 354.903 92.7603 354.853 92.3458C354.803 91.9314 354.76 91.5062 354.707 91.0882C354.653 90.6702 354.603 90.2522 354.546 89.8378C354.489 89.4234 354.435 89.0018 354.371 88.5874C354.321 88.2301 354.274 87.9014 354.221 87.5549C354.146 87.069 354.067 86.5796 353.985 86.0973C353.976 86.0252 353.963 85.9536 353.946 85.8829C353.355 82.333 352.55 78.8219 351.538 75.3686L322.485 75.3579Z" fill="#FF6F00"/>
<path opacity="0.1" d="M355.332 97.3368H322.485V137.154H352.931C353.01 137.565 353.085 137.976 353.174 138.383H322.485V170.487L322.639 170.437C323.506 170.132 324.367 169.808 325.222 169.465L325.772 169.24C326.648 168.88 327.509 168.496 328.355 168.086C328.658 167.947 328.959 167.8 329.255 167.65C333.978 165.325 338.333 162.315 342.177 158.718C342.288 158.622 342.392 158.522 342.492 158.425C343.017 157.918 343.531 157.407 344.032 156.882L344.582 156.296C345.171 155.657 345.739 154.996 346.293 154.328L346.536 154.035C348.762 151.305 350.633 148.304 352.102 145.103C352.149 145.007 352.188 144.907 352.231 144.81C352.677 143.803 353.081 142.781 353.431 141.741C353.581 141.302 353.724 140.862 353.849 140.423C353.892 140.291 353.931 140.162 353.967 140.034C355.789 133.656 356 127.029 356 120.438C356 119.669 356 118.898 356 118.133C356 115.472 355.961 112.774 355.911 110.113C355.911 109.419 355.878 108.73 355.861 108.033C355.818 106.264 355.753 104.496 355.668 102.731C355.646 102.238 355.625 101.749 355.593 101.263C355.593 100.981 355.564 100.699 355.546 100.416C355.475 99.3696 355.41 98.355 355.332 97.3368Z" fill="#FF6F00"/>
<path opacity="0.1" d="M289.942 60.2349V96.1078H314.639V60.2349H311.12V48.0879H296.662V60.2349H289.942Z" fill="#FF6F00"/>
<path opacity="0.1" d="M314.639 97.3368H289.942V137.15H314.639V97.3368Z" fill="#FF6F00"/>
<path opacity="0.1" d="M314.639 138.383H289.945V171.491C292.868 172.236 295.834 172.797 298.827 173.17L299.563 173.248C299.92 173.288 300.277 173.32 300.635 173.348L301.706 173.423C301.742 173.423 301.782 173.423 301.817 173.423C301.974 173.423 302.135 173.423 302.296 173.445H302.46C302.653 173.445 302.846 173.445 303.043 173.466C303.318 173.466 303.596 173.466 303.875 173.488H304.232C304.511 173.488 304.786 173.488 305.065 173.488H305.676H306.169L306.798 173.466C307.13 173.466 307.469 173.438 307.805 173.413L308.427 173.373L309.202 173.313C309.745 173.266 310.274 173.213 310.824 173.148L311.471 173.066L311.788 173.027C312.328 172.952 312.86 172.873 313.4 172.78C313.8 172.72 314.193 172.645 314.593 172.573L314.639 138.383Z" fill="#FF6F00"/>
<path opacity="0.1" d="M155.914 55.9977H135.546V96.1042H155.914V55.9977Z" fill="#FF6F00"/>
<path opacity="0.1" d="M135.546 97.3368V137.154H236.631V119.98H182.787V130.112H155.91V97.3368H135.546Z" fill="#FF6F00"/>
<path opacity="0.1" d="M135.225 181.076H135.546V207.196C139.197 206.919 142.834 206.545 146.457 206.074C162.661 203.978 178.539 199.86 193.72 193.816C198.064 192.073 202.319 190.174 206.485 188.121C213.399 184.722 220.069 180.846 226.445 176.521C228.038 175.44 229.607 174.333 231.15 173.202C232.222 172.412 233.294 171.609 234.366 170.826C235.112 170.29 235.866 169.754 236.631 169.251V138.383H156.182C156.239 138.201 156.293 138.026 156.35 137.836C156.289 138.019 156.228 138.194 156.175 138.383H135.546V181.058L135.225 181.076Z" fill="#FF6F00"/>
<path opacity="0.1" d="M82.4317 53.011H95.7005V49.3347H89.7556V38.4203C89.2412 38.5882 88.7267 38.7776 88.2158 38.9383V49.3347H82.4317V53.011Z" fill="#FF6F00"/>
<path opacity="0.1" d="M50.4565 96.1078H115.607H115.586H115.618H127.701V55.9977H124.278V85.6507H108.63V68.1018H95.7005V54.24H82.4317V68.1018H69.5058V85.6471H50.4565V96.1078Z" fill="#FF6F00"/>
<path opacity="0.1" d="M50.4565 97.3368V137.154H127.701V97.3368H50.4565ZM53.1539 195.674C68.0568 201.347 83.6386 205.044 99.5018 206.671H99.5697C102.568 206.987 105.575 207.233 108.591 207.406H108.701C115.021 207.764 121.366 207.846 127.701 207.61V138.383H50.4565V152.498H29.3779L29.4887 184.013" fill="#FF6F00"/>
<path opacity="0.1" d="M20.1748 138.383H2.1579C2.31509 146.471 4.14072 154.41 8.13494 161.744C11.4575 167.839 16.0769 173.177 21.5359 177.821V152.498H20.1748V138.383Z" fill="#FF6F00"/>
<path opacity="0.1" d="M2.14359 137.154H20.1747V103.878H10.4178C5.36968 114.357 2.16145 125.875 2.14359 137.154Z" fill="#FF6F00"/>
<path opacity="0.1" d="M146.457 67.1479H135.546V79.7236H146.457V67.1479Z" fill="#FF6F00"/>
<path opacity="0.1" d="M146.457 93.2139H135.546V96.1078H146.457V93.2139Z" fill="#FF6F00"/>
<path opacity="0.1" d="M146.457 97.3368H135.546V105.786H146.457V97.3368Z" fill="#FF6F00"/>
<path opacity="0.1" d="M146.457 119.276H135.546V131.852H146.457V119.276Z" fill="#FF6F00"/>
<path opacity="0.1" d="M146.457 145.342H135.546V157.918H146.457V145.342Z" fill="#FF6F00"/>
<path opacity="0.1" d="M135.546 181.058H135.225H135.546V183.977H146.457V171.401H135.546V181.058Z" fill="#FF6F00"/>
<path opacity="0.1" d="M135.546 197.467V207.181C139.198 206.905 142.834 206.531 146.457 206.06V197.485L135.546 197.467Z" fill="#FF6F00"/>
<path opacity="0.1" d="M236.631 136.229H189.872V137.15H236.631V136.229Z" fill="#FF6F00"/>
<path opacity="0.1" d="M236.631 138.383H189.872V141.923H236.631V138.383Z" fill="#FF6F00"/>
<path opacity="0.1" d="M236.631 153.527H189.872V159.222H236.631V153.527Z" fill="#FF6F00"/>
<path opacity="0.1" d="M189.872 170.826V176.521H226.449C228.037 175.442 229.606 174.334 231.154 173.198C232.226 172.412 233.297 171.609 234.369 170.83L189.872 170.826Z" fill="#FF6F00"/>
<path opacity="0.1" d="M189.872 188.121V193.816H193.72C198.062 192.077 202.315 190.179 206.481 188.121H189.872Z" fill="#FF6F00"/>
<path opacity="0.1" d="M99.4982 109.384H108.701V101.199H99.4982V109.384Z" fill="#FF6F00"/>
<path opacity="0.1" d="M298.802 71.2422H308.005V63.0572H298.802V71.2422Z" fill="#FF6F00"/>
<path opacity="0.1" d="M298.802 90.2558H308.005V82.0709H298.802V90.2558Z" fill="#FF6F00"/>
<path opacity="0.1" d="M298.802 109.266H308.005V101.081H298.802V109.266Z" fill="#FF6F00"/>
<path opacity="0.1" d="M298.802 128.279H308.005V120.095H298.802V128.279Z" fill="#FF6F00"/>
<path opacity="0.1" d="M298.802 147.297H308.005V139.112H298.802V147.297Z" fill="#FF6F00"/>
<path opacity="0.1" d="M298.802 166.307H308.005V158.122H298.802V166.307Z" fill="#FF6F00"/>
<path opacity="0.1" d="M64.3577 109.384H73.5608V101.199H64.3577V109.384Z" fill="#FF6F00"/>
<path opacity="0.1" d="M99.4982 129.569H108.701V121.384H99.4982V129.569Z" fill="#FF6F00"/>
<path opacity="0.1" d="M64.3577 129.569H73.5608V121.384H64.3577V129.569Z" fill="#FF6F00"/>
<path opacity="0.1" d="M99.4982 149.758H108.701V141.573H99.4982V149.758Z" fill="#FF6F00"/>
<path opacity="0.1" d="M64.3577 149.758H73.5608V141.573H64.3577V149.758Z" fill="#FF6F00"/>
<path opacity="0.1" d="M99.4982 169.947H108.701V161.762H99.4982V169.947Z" fill="#FF6F00"/>
<path opacity="0.1" d="M64.3577 169.947H73.5608V161.762H64.3577V169.947Z" fill="#FF6F00"/>
<path opacity="0.1" d="M99.4982 190.14H108.701V181.955H99.4982V190.14Z" fill="#FF6F00"/>
<path opacity="0.1" d="M64.3577 190.14H73.5608V181.955H64.3577V190.14Z" fill="#FF6F00"/>
<path opacity="0.1" d="M108.698 207.421V202.144H99.4982V206.671L108.698 207.421Z" fill="#FF6F00"/>
<path opacity="0.1" d="M322.485 85.8686V90.5523H353.985V85.8686H322.485ZM350.848 86.1651H353.417V90.2594H350.834L350.848 86.1651ZM347.711 86.1651H350.294V90.2594H347.701L347.711 86.1651ZM344.582 86.1651H347.165V90.2594H344.582V86.1651ZM341.445 86.1651H344.028V90.2594H341.445V86.1651ZM338.312 86.1651H340.913V90.2594H338.33L338.312 86.1651ZM335.175 86.1651H337.758V90.2594H335.175V86.1651ZM332.038 86.1651H334.621V90.2594H332.038V86.1651ZM328.905 86.1651H331.488V90.2594H328.905V86.1651ZM325.772 86.1651H328.355V90.2594H325.772V86.1651ZM322.639 86.1651H325.222V90.2594H322.639V86.1651Z" fill="#FF6F00"/>
<path opacity="0.1" d="M322.485 99.5018V104.186H353.985V99.5018H322.485ZM350.848 99.7983H353.417V103.889H350.834L350.848 99.7983ZM347.711 99.7983H350.294V103.889H347.701L347.711 99.7983ZM344.582 99.7983H347.165V103.889H344.582V99.7983ZM341.445 99.7983H344.028V103.889H341.445V99.7983ZM338.312 99.7983H340.913V103.889H338.33L338.312 99.7983ZM335.175 99.7983H337.758V103.889H335.175V99.7983ZM332.038 99.7983H334.621V103.889H332.038V99.7983ZM328.905 99.7983H331.488V103.889H328.905V99.7983ZM325.772 99.7983H328.355V103.889H325.772V99.7983ZM322.639 99.7983H325.222V103.889H322.639V99.7983Z" fill="#FF6F00"/>
<path opacity="0.1" d="M322.485 113.131V117.812H353.985V113.131H322.485ZM350.848 113.424H353.417V117.519H350.834L350.848 113.424ZM347.711 113.424H350.294V117.519H347.701L347.711 113.424ZM344.582 113.424H347.165V117.519H344.582V113.424ZM341.445 113.424H344.028V117.519H341.445V113.424ZM338.312 113.424H340.913V117.519H338.33L338.312 113.424ZM335.175 113.424H337.758V117.519H335.175V113.424ZM332.038 113.424H334.621V117.519H332.038V113.424ZM328.905 113.424H331.488V117.519H328.905V113.424ZM325.772 113.424H328.355V117.519H325.772V113.424ZM322.639 113.424H325.222V117.519H322.639V113.424Z" fill="#FF6F00"/>
<path opacity="0.1" d="M322.485 126.761V131.441H353.985V126.761H322.485ZM350.848 127.054H353.417V131.148H350.834L350.848 127.054ZM347.711 127.054H350.294V131.148H347.701L347.711 127.054ZM344.582 127.054H347.165V131.148H344.582V127.054ZM341.445 127.054H344.028V131.148H341.445V127.054ZM338.312 127.054H340.913V131.148H338.33L338.312 127.054ZM335.175 127.054H337.758V131.148H335.175V127.054ZM332.038 127.054H334.621V131.148H332.038V127.054ZM328.905 127.054H331.488V131.148H328.905V127.054ZM325.772 127.054H328.355V131.148H325.772V127.054ZM322.639 127.054H325.222V131.148H322.639V127.054Z" fill="#FF6F00"/>
<path opacity="0.1" d="M322.485 140.391V145.082H352.102C352.145 144.985 352.188 144.885 352.227 144.789H350.848V140.687H353.417V141.705C353.567 141.27 353.71 140.834 353.835 140.391H322.485ZM347.711 140.687H350.294V144.778H347.701L347.711 140.687ZM344.582 140.687H347.165V144.778H344.582V140.687ZM341.445 140.687H344.028V144.778H341.445V140.687ZM338.312 140.687H340.913V144.778H338.33L338.312 140.687ZM335.175 140.687H337.758V144.778H335.175V140.687ZM332.038 140.687H334.621V144.778H332.038V140.687ZM328.905 140.687H331.488V144.778H328.905V140.687ZM325.772 140.687H328.355V144.778H325.772V140.687ZM322.639 140.687H325.222V144.778H322.639V140.687Z" fill="#FF6F00"/>
<path opacity="0.1" d="M322.485 154.013V158.693H342.174C342.288 158.597 342.388 158.493 342.492 158.401H341.445V154.317H344.028V156.871L344.582 156.282V154.317H346.293C346.375 154.217 346.454 154.117 346.536 154.024L322.485 154.013ZM338.312 154.306H340.913V158.401H338.33L338.312 154.306ZM335.175 154.306H337.758V158.401H335.175V154.306ZM332.038 154.306H334.621V158.401H332.038V154.306ZM328.905 154.306H331.488V158.401H328.905V154.306ZM325.772 154.306H328.355V158.401H325.772V154.306ZM322.639 154.306H325.222V158.401H322.639V154.306Z" fill="#FF6F00"/>
<path opacity="0.1" d="M322.485 167.654V170.487C322.537 170.473 322.589 170.455 322.639 170.433V167.932H325.222V169.454L325.772 169.229V167.947H328.355V168.089C328.658 167.95 328.959 167.804 329.255 167.657L322.485 167.654Z" fill="#FF6F00"/>
<path opacity="0.1" d="M115.597 96.115H115.614H115.597ZM135.225 181.076H135.546H135.225ZM156.175 138.383C156.232 138.201 156.285 138.026 156.346 137.833C156.285 138.019 156.228 138.201 156.175 138.383ZM115.597 96.115H115.614H115.597ZM296.662 53.011V54.24H311.12V53.011H296.662ZM135.225 181.076H135.546H135.225ZM156.175 138.383C156.232 138.201 156.285 138.026 156.346 137.833C156.285 138.019 156.228 138.201 156.175 138.383ZM115.597 96.115H115.614H115.597ZM135.225 181.076H135.546H135.225ZM156.175 138.383C156.232 138.201 156.285 138.026 156.346 137.833C156.285 138.019 156.228 138.201 156.175 138.383Z" fill="#FF6F00"/>
<path opacity="0.1" d="M322.592 294.536C329.415 294.536 334.946 293.924 334.946 293.168C334.946 292.412 329.415 291.8 322.592 291.8C315.769 291.8 310.238 292.412 310.238 293.168C310.238 293.924 315.769 294.536 322.592 294.536Z" fill="#FF6F00"/>
<path d="M238.767 191.226L232.594 190.887L232.176 173.156L232.079 168.933L238.592 167.732L238.635 173.177L238.767 191.226Z" fill="#D48A9B"/>
<path d="M233.962 188.139L202.237 207.864L201.551 213.866L204.981 214.037V209.75L225.731 198.089L200.693 229.128V233.93H204.809L204.466 228.614L233.447 195.688L237.049 196.031L267.577 230.672L268.263 236.506L272.379 236.677L271.693 230.672L247.513 200.49L263.633 211.637L263.976 216.438L267.234 216.61L266.891 210.779L236.191 187.11L233.962 188.139Z" fill="#D48A9B"/>
<path d="M194.105 154.403C197.101 150.675 199.613 146.583 201.579 142.223C203.762 137.393 206.156 131.816 206.338 130.166C206.695 127.079 215.427 120.906 225.03 120.563C231.293 120.337 241.05 115.45 247.088 112.074C252.767 108.845 259.083 106.894 265.594 106.358C272.657 105.825 279.299 107.212 275.955 115.407L231.047 169.79C231.047 169.79 192.748 176.539 190.386 165.689C190.254 165.142 190.071 164.608 189.84 164.095C189.393 163.07 189.275 160.394 194.105 154.403Z" fill="#FF6F00"/>
<path opacity="0.2" d="M197.478 155.482C200.494 151.713 203.03 147.585 205.027 143.192C207.063 138.676 209.225 133.613 209.396 132.081C209.725 129.133 218.092 123.235 227.281 122.906C233.272 122.692 242.608 118.026 248.381 114.8C253.82 111.72 259.865 109.862 266.094 109.355C272.85 108.848 279.206 110.173 276.019 118.001L240.396 170.162C240.396 170.162 196.453 176.396 194.127 166.082C193.989 165.534 193.806 164.999 193.58 164.481C193.173 163.459 193.116 160.955 197.478 155.482Z" fill="#DDA2A6"/>
<path opacity="0.1" d="M238.635 173.177C236.57 173.177 234.394 173.177 232.176 173.156L232.079 168.933L238.592 167.736L238.635 173.177Z" fill="black"/>
<g opacity="0.1">
<path opacity="0.1" d="M263.633 210.608L247.513 199.461L249.36 201.765L263.633 211.636L263.976 216.438L267.234 216.61L267.173 215.577L263.976 215.409L263.633 210.608Z" fill="black"/>
<path opacity="0.1" d="M204.981 208.721V209.75L224.212 198.943L225.731 197.06L204.981 208.721Z" fill="black"/>
<path opacity="0.1" d="M200.693 232.901V233.93H204.809L204.741 232.901H200.693Z" fill="black"/>
<path opacity="0.1" d="M204.981 213.008L201.665 212.844L201.551 213.866L204.981 214.037V213.008Z" fill="black"/>
<path opacity="0.1" d="M268.263 235.477L267.577 229.643L237.049 195.002L233.447 194.659L204.466 227.585L204.527 228.546L233.447 195.688L237.049 196.031L267.577 230.672L268.263 236.506L272.379 236.677L272.261 235.641L268.263 235.477Z" fill="black"/>
</g>
<path opacity="0.1" d="M234.991 139.387C234.991 139.387 243.022 145.26 239.507 145.328C235.991 145.396 234.991 139.387 234.991 139.387Z" fill="black"/>
<path d="M201.294 171.519C201.294 171.519 214.584 170.49 219.557 160.887C219.557 160.887 229.675 140.819 237.91 138.59C246.145 136.361 261.403 131.388 267.748 123.671C274.093 115.954 276.755 110.038 276.755 110.038C276.755 110.038 278.391 116.283 273.236 123.646C268.081 131.009 266.205 142.349 262.604 154.371C259.003 166.392 257.631 171.162 251.114 171.876C246.202 172.395 220.229 172.134 207.81 171.876C203.748 171.766 201.294 171.519 201.294 171.519Z" fill="#FF6F00"/>
<path opacity="0.2" d="M201.294 171.519C201.294 171.519 214.584 170.49 219.557 160.887C219.557 160.887 229.675 140.819 237.91 138.59C246.145 136.361 261.403 131.388 267.748 123.671C274.093 115.954 276.755 110.038 276.755 110.038C276.755 110.038 278.391 116.283 273.236 123.646C268.081 131.009 266.205 142.349 262.604 154.371C259.003 166.392 257.631 171.162 251.114 171.876C246.202 172.395 220.229 172.134 207.81 171.876C203.748 171.766 201.294 171.519 201.294 171.519Z" fill="#DDA2A6"/>
<path d="M204.638 171.519C204.638 171.519 217.342 170.522 222.094 161.223C222.094 161.223 231.768 141.795 239.635 139.637C247.502 137.479 262.093 132.66 268.159 125.189C274.226 117.719 276.766 111.988 276.766 111.988C276.766 111.988 278.32 118.062 273.404 125.189C268.488 132.317 266.684 143.288 263.24 154.914C259.796 166.539 258.488 171.187 252.257 171.851C247.563 172.352 222.737 172.098 210.865 171.851C206.985 171.776 204.638 171.519 204.638 171.519Z" fill="#FF6F00"/>
<path opacity="0.1" d="M194.348 166.518C194.348 166.518 201.294 169.176 205.238 167.718C209.182 166.26 218.957 161.973 218.957 161.973C218.957 161.973 202.494 163.016 194.348 166.518Z" fill="black"/>
<path d="M240.786 291.328C240.786 291.328 220.822 290.256 215.956 287.398C211.09 284.54 204.202 284.54 204.166 284.54L124.675 267.213L91.6276 259.353L85.7328 258.577L105.204 236.298L105.797 236.041L134.499 223.626C134.499 223.626 147.361 224.341 149.901 232.722C150.075 233.313 150.194 233.918 150.258 234.53C150.525 237.144 149.801 239.763 148.229 241.868C147.214 243.254 145.968 245.223 145.575 246.956C145.353 247.935 145.403 248.838 145.932 249.528C147.004 250.592 148.187 251.537 149.462 252.347C156.46 256.991 174.152 264.644 205.059 252.922C205.059 252.922 218.278 239.882 228.281 245.419C238.285 250.957 240.786 291.328 240.786 291.328Z" fill="#E1DEE5"/>
<path opacity="0.1" d="M145.589 246.956C145.367 247.935 145.417 248.838 145.946 249.528C147.018 250.592 148.201 251.537 149.476 252.347L89.3054 256.852L105.797 236.041L134.499 223.626C134.499 223.626 147.361 224.341 149.901 232.722C150.075 233.313 150.194 233.918 150.258 234.53C150.525 237.144 149.801 239.763 148.229 241.868C147.229 243.254 145.982 245.223 145.589 246.956Z" fill="black"/>
<path d="M86.8046 165.035L136.107 166.107V225.123L89.3054 256.852L78.0516 246.491L80.3738 212.194L78.0516 180.219L86.8046 165.035Z" fill="#A36468"/>
<path d="M58.7593 155.389L116.322 137.65C117.356 137.334 118.441 137.213 119.519 137.293L257.031 147.329C268.792 148.136 280.112 152.129 289.777 158.879C298.677 165.156 307.491 174.792 311.571 189.382C314.522 200.149 314.317 211.537 310.981 222.19L298.834 261.489C298.834 261.489 307.944 176.103 217.02 171.816L58.7593 155.389Z" fill="#D9D6DF"/>
<path d="M89.3054 163.784V258.577C89.3054 258.577 73.5322 256.359 70.7277 253.279C68.4269 250.753 55.0973 243.633 49.3132 236.298C48.0449 234.691 47.1375 233.083 46.7909 231.486C44.8546 222.669 36.9662 201.833 36.9662 201.833L39.1097 181.469L48.0414 168.25L65.3687 160.39H78.7661L89.3054 163.784Z" fill="#B8797D"/>
<path d="M64.2969 165.035C64.2969 165.035 38.6596 181.112 44.2687 206.981C44.726 209.089 45.1225 211.208 45.3833 213.351C46.4087 221.719 52.5608 245.762 89.3055 256.852V259.353L73.718 255.005L63.1358 249.171L55.0581 241.925L45.1833 229.878L40.5996 220.054L38.9204 207.114L37.9522 192.341L40.3138 179.668L45.8835 171.423L52.6715 166.146L64.2969 165.035Z" fill="#D9D6DF"/>
<path opacity="0.1" d="M89.3055 163.784V178.865C78.1231 180.079 43.5006 187.082 49.6491 227.095L49.3097 236.284C48.0414 234.676 47.134 233.069 46.7874 231.472C44.8511 222.654 36.9626 201.819 36.9626 201.819L39.1062 181.455L48.0379 168.236L65.3652 160.376H78.7626L89.3055 163.784Z" fill="black"/>
<path opacity="0.1" d="M148.243 241.868C147.229 243.254 145.982 245.223 145.589 246.956C144.031 245.169 143.695 243.115 145.946 241.489C148.765 239.439 149.705 235.88 149.915 232.722C150.089 233.313 150.209 233.918 150.273 234.53C150.539 237.144 149.815 239.763 148.243 241.868Z" fill="white"/>
<path d="M292.589 251.493L285.801 274.536L270.439 289.542L251.146 293.472L221.136 288.113V181.469C221.136 181.469 226.316 178.075 226.852 178.075C227.388 178.075 241.857 180.397 241.857 180.397L274.619 203.895L275.976 204.87L290.624 226.663L292.589 251.493Z" fill="#B8797D"/>
<path d="M221.136 177.003V288.113L224.03 288.631V177.003H221.136Z" fill="#A36468"/>
<path opacity="0.1" d="M275.262 211.301C253.826 193.687 229.996 191.097 221.136 190.776V181.487C221.136 181.487 226.316 178.093 226.852 178.093C227.388 178.093 241.857 180.415 241.857 180.415L274.619 203.912L275.262 211.301Z" fill="black"/>
<path d="M216.61 169.858L82.3388 155.21L67.248 154.41C62.5452 154.138 57.8422 154.941 53.496 156.758C49.1498 158.575 45.2746 161.358 42.1644 164.896C34.3046 173.934 28.3633 189.879 37.0412 217.256C37.0412 217.256 46.0908 252.743 89.9164 260.367L217.26 289.224C220.082 289.863 222.869 290.653 225.62 291.549C237.181 295.347 276.351 305.186 294.804 271.739C301.128 260.271 303.021 246.899 300.585 234.026C296.144 210.483 279.377 170.53 216.61 169.858ZM282.393 270.21C265.173 298.262 229.689 289.913 219.021 286.619C216.41 285.812 213.766 285.108 211.09 284.536L93.4569 259.371C52.9288 252.715 44.5581 221.729 44.5581 221.729C37.7165 201.365 40.7068 188.225 46.2372 179.908C52.0285 171.201 62.1105 166.332 72.5569 166.86L86.4617 167.575L206.56 183.62C208.989 183.945 211.436 184.159 213.887 184.241C267.295 186.053 283.911 215.42 288.134 235.659C290.613 247.488 288.727 259.899 282.393 270.21Z" fill="#E1DEE5"/>
<path d="M1.51119 229.56C5.90912 232.504 12.5864 231.104 12.5864 231.104C12.5864 231.104 22.6577 226.334 25.6337 226.334C28.6097 226.334 35.8479 223.387 35.8479 223.387L35.6014 221.4L34.8654 215.416C39.4491 218.989 44.5437 217.756 47.0517 217.496C49.7455 217.217 64.1397 208.66 65.5259 208.096C65.901 207.946 66.3405 207.456 66.787 206.824C67.7142 205.406 68.5289 203.918 69.2236 202.373C70.1239 201.579 70.7813 200.944 70.7348 200.804C70.6884 200.665 71.0921 199.622 71.6173 198.446C73.6608 198.089 75.4221 197.332 75.983 196.874C76.444 196.506 76.813 196.035 77.0609 195.499C77.3089 194.963 77.4291 194.378 77.4121 193.788C77.4121 193.788 91.4562 179.622 89.6091 173.731C87.762 167.839 94.1499 167.696 94.1499 167.696C94.1499 167.696 103.935 163.488 105.297 160.966C106.136 159.412 113.478 156 119.001 153.606L119.68 153.313C121.824 158.011 132.713 154.385 134.857 152.409C137.125 150.305 143.788 149.322 143.788 149.322C143.788 149.322 144.074 121.813 146.2 118.319C147.211 116.658 147.454 111.227 147.429 105.983C147.429 105.797 147.429 105.625 147.429 105.425C150.408 104.843 157.497 103.496 160.787 103.171C162.873 102.964 165.049 101.663 166.718 100.399L166.914 100.645C167.487 100.88 168.107 100.982 168.725 100.942C169.273 101.003 169.827 100.9 170.315 100.645C171.594 99.9305 176.274 98.5407 177.975 97.8405C179.676 97.1403 177.693 92.0885 176.417 91.1061C175.142 90.1236 174.274 88.8624 174.988 88.3015C175.703 87.7406 173.288 86.3366 171.869 86.0543C170.451 85.7721 166.196 83.8107 166.196 83.8107C166.196 83.8107 164.635 80.5953 162.084 80.5953C159.533 80.5953 156.125 78.0695 156.125 78.0695C155.985 76.9477 153.288 76.8083 153.288 76.8083C153.288 76.8083 143.077 68.9485 141.373 69.9346C139.669 70.9206 134.992 68.3912 134.992 68.3912C134.992 68.3912 129.251 69.0342 127.901 67.9767C127.888 67.6295 127.763 67.2958 127.543 67.0264C127.24 66.0761 125.757 64.7757 124.328 63.6931C124.437 63.0222 124.492 62.3436 124.492 61.6639C124.492 61.3709 124.492 61.078 124.46 60.7886C124.46 60.7386 124.46 60.6921 124.46 60.6421L124.664 58.6664C124.678 58.0167 124.847 57.3798 125.157 56.8087C125.396 56.4514 125.75 56.1477 126.018 55.794C126.08 55.7107 126.138 55.6236 126.189 55.5332L126.232 55.4582C126.272 55.3898 126.307 55.3194 126.339 55.2474L126.372 55.176C126.451 54.9819 126.512 54.781 126.554 54.5757V54.5293C126.572 54.4364 126.586 54.3435 126.597 54.2471C126.595 54.234 126.595 54.2208 126.597 54.2078C126.655 53.3916 126.546 52.572 126.275 51.7998C125.85 50.4743 125.186 49.1953 125.114 47.8127C125.078 47.1268 125.193 46.4265 125.043 45.7549C124.685 44.2222 123.124 43.254 121.606 42.611C119.509 41.7321 118.451 40.771 116.768 39.4634C115.339 38.3559 112.974 38.9133 111.174 39.0276C107.058 39.292 102.996 40.5317 99.1231 41.8107C97.619 42.3109 96.0863 42.8825 94.9145 43.9007C94.1256 44.5717 93.5836 45.4872 93.3747 46.5016C93.3341 46.7374 93.3185 46.977 93.3282 47.2161C93.3282 47.2375 93.3282 47.259 93.3282 47.2768C93.3282 47.3697 93.3282 47.459 93.3604 47.5484C93.3584 47.5781 93.3584 47.6079 93.3604 47.6377C93.3781 47.7467 93.4044 47.8542 93.439 47.9592C93.6033 48.4772 93.907 48.9453 94.0821 49.4597C94.1217 49.5767 94.1539 49.696 94.1785 49.817C94.1785 49.817 94.1785 49.842 94.1785 49.8527C94.2035 49.967 94.2214 50.0778 94.2357 50.21C94.3929 51.4854 93.9213 52.818 93.7141 54.1184C93.6855 54.3007 93.6641 54.4757 93.6498 54.6758C93.5878 55.4282 93.6543 56.1857 93.8463 56.9158C93.8447 56.9241 93.8447 56.9326 93.8463 56.9408C93.8677 57.0302 93.8998 57.1195 93.9284 57.2052C93.9382 57.244 93.9501 57.2821 93.9642 57.3195C93.9892 57.3946 94.0213 57.4696 94.0499 57.541L94.1106 57.6911C94.1392 57.7554 94.1714 57.8197 94.2035 57.884C94.2357 57.9483 94.2571 57.9912 94.2857 58.0412C94.3149 58.1 94.3471 58.1572 94.3822 58.2127C94.4143 58.2699 94.45 58.3235 94.4858 58.377C94.5215 58.4306 94.5536 58.4807 94.5929 58.5307C94.6322 58.5807 94.6751 58.6414 94.718 58.695L94.8288 58.8308L94.9788 58.988L95.0967 59.1059L95.2718 59.2559C95.3146 59.2881 95.3503 59.3238 95.3932 59.3524C95.4361 59.381 95.5397 59.456 95.6147 59.5024L95.7183 59.5739C95.8327 59.6418 95.9541 59.7025 96.0756 59.7597C96.8902 60.1169 97.9191 60.2634 98.4085 60.9815C98.5253 61.1491 98.6067 61.3388 98.6479 61.5388C98.6479 61.5853 98.6479 61.6353 98.6479 61.6817V61.8068C98.6479 62.2212 98.6765 62.6321 98.7194 63.0358C98.7162 63.2579 98.7293 63.48 98.7587 63.7003C98.7825 63.8663 98.8281 64.0285 98.8944 64.1826C99.4662 67.0058 100.977 69.5521 103.182 71.4065C103.224 71.6244 103.274 71.8781 103.328 72.1639C102.08 73.1005 100.686 73.8248 99.2017 74.3075C95.7969 75.3042 90.9846 79.9022 90.9846 79.9022C90.9846 79.9022 88.5909 97.1546 88.0157 99.2588C87.4405 101.363 87.0154 109.502 87.0154 109.502C87.0154 109.502 86.4473 112.867 85.5863 114.55C84.9825 115.736 85.0933 120.834 86.7724 123.932C86.4987 124.541 86.1481 125.112 85.7292 125.632C82.3245 129.562 72.1103 129.419 68.7055 129.419C65.5723 129.419 64.6041 131.32 64.472 131.62C58.2377 133.406 38.0522 139.151 35.6586 140.194C32.8219 141.434 31.2606 153.685 31.2606 153.685C31.2606 153.685 25.3336 174.02 25.6158 176.685C25.8981 179.35 23.6295 186.774 23.6295 186.774C23.6295 186.774 23.6295 195.167 22.6684 195.735C22.6601 195.742 22.6504 195.748 22.6398 195.752C21.6466 196.174 21.786 200.243 21.786 200.243C21.786 200.243 22.5184 200.454 23.658 200.743C23.3544 202.798 22.229 205.674 21.3608 207.717C20.9178 207.156 20.4855 206.924 20.2283 207.574C19.5138 209.361 8.88157 221.986 6.18422 221.986C4.90164 221.986 2.77948 223.037 1.38258 224.455C-0.146515 226.016 -0.796736 228.021 1.51119 229.56ZM50.2957 156.475C62.3534 157.597 75.2614 155.621 75.2614 155.621C75.2614 155.621 74.2682 159.14 73.4179 160.544C72.5676 161.948 70.1525 169.944 70.1525 171.619C70.1525 173.295 66.3226 187.75 65.1901 188.45C64.7149 188.747 64.2898 189.482 63.9539 190.236C63.6557 190.933 63.405 191.649 63.2037 192.38C63.2203 192.744 63.2525 193.091 63.3001 193.42C62.4534 194.195 61.5567 195.009 60.76 195.731C60.76 195.731 55.6868 198.553 53.9719 200.097C52.2571 201.64 44.3258 203.534 44.3258 203.534C42.3593 204.379 40.4498 205.352 38.6096 206.445C36.148 207.928 33.6865 209.814 33.0434 211.676C33.322 208.539 33.7758 204.763 34.0794 202.362L34.5296 202.344C38.506 202.098 37.9129 198.303 37.7021 197.364C37.6735 197.228 37.6521 197.153 37.6521 197.153C40.4888 194.066 46.8695 171.073 46.0192 168.536C45.1689 165.999 46.7338 163.767 47.066 163.767C47.3983 163.767 47.8627 160.962 47.1553 159.419C46.448 157.875 50.2957 156.475 50.2957 156.475ZM147.793 94.5894L147.039 94.7752V94.6144C147.039 94.6144 147.315 94.6144 147.793 94.5894ZM106.579 73.4215C106.465 73.5644 106.351 73.7001 106.222 73.8323L106.075 73.9824C106.075 73.7216 106.075 73.4572 106.075 73.2035C106.247 73.2714 106.411 73.3536 106.579 73.4215ZM92.3708 100.638L92.4208 101.427C92.4208 101.427 92.3458 101.91 92.2029 102.735L92.3708 100.638ZM157.554 92.7995L155.078 93.2246C155.435 93.0925 155.775 92.9496 156.11 92.7888C156.359 92.6722 156.626 92.5997 156.9 92.5744C157.213 92.6077 157.522 92.6736 157.822 92.7709C157.732 92.7734 157.642 92.7829 157.554 92.7995Z" fill="url(#paint0_linear)"/>
<path d="M73.8502 194.077C73.8502 194.077 70.9921 199.975 71.1386 200.393C71.2851 200.811 65.0115 205.817 65.0115 205.817L58.1913 200.947L58.9058 197.603C58.9058 197.603 66.562 190.704 67.1229 189.908C67.6838 189.111 73.8502 194.077 73.8502 194.077Z" fill="#EFB7B9"/>
<path d="M34.944 214.034C39.6778 218.628 45.244 217.249 47.8913 216.96C50.5387 216.67 64.6613 208.189 66.0189 207.632C66.3762 207.482 66.8228 206.996 67.2586 206.367C68.1695 204.958 68.9686 203.481 69.6487 201.947C69.5559 201.972 64.9257 203.298 63.7575 201.947C63.7575 201.947 61.8068 199.557 61.3888 199.557C60.9708 199.557 61.3566 195.363 61.3566 195.363C61.3566 195.363 56.3764 198.164 54.7079 199.697C53.0395 201.229 45.2404 203.105 45.2404 203.105C43.3116 203.944 41.4403 204.91 39.6385 205.995C35.9515 208.246 32.236 211.422 34.944 214.034Z" fill="#67647E"/>
<path opacity="0.1" d="M34.9441 214.034C39.6778 218.628 45.244 217.249 47.8914 216.96C50.5387 216.67 64.6614 208.189 66.019 207.632C66.3762 207.481 66.8228 206.996 67.2587 206.367C65.6117 205.384 54.8509 212.226 51.8391 213.48C48.8274 214.734 41.2069 214.034 36.8805 212.226C34.7369 211.322 36.909 208.546 39.6314 205.995C35.9516 208.246 32.236 211.422 34.9441 214.034Z" fill="black"/>
<path d="M35.5014 199.557C35.5014 199.557 33.5186 214.452 34.0223 216.402C34.5261 218.353 21.5788 209.722 21.5788 209.722C21.5788 209.722 26.1089 200.386 24.7942 198.243C23.4794 196.099 35.5014 199.557 35.5014 199.557Z" fill="#EFB7B9"/>
<path d="M23.1115 199.836C23.1115 199.836 31.1856 202.201 35.6372 201.922C39.5385 201.68 38.9561 197.914 38.7525 196.982C38.7239 196.849 38.7025 196.774 38.7025 196.774C41.4856 193.709 47.752 170.88 46.9196 168.375C46.0871 165.871 47.5984 163.659 47.9556 163.659C48.3129 163.659 48.7381 160.873 48.0414 159.344C47.3447 157.815 51.1067 156.421 51.1067 156.421C62.9393 157.532 75.6079 155.571 75.6079 155.571C75.6079 155.571 74.6326 159.065 73.7966 160.458C72.9606 161.852 70.5812 169.783 70.5812 171.455C70.5812 173.127 66.8228 187.464 65.7081 188.161C65.2437 188.454 64.8257 189.182 64.497 189.947C64.2034 190.644 63.9575 191.36 63.761 192.091C64.179 201.419 74.7576 197.807 76.2903 196.546C76.5084 196.364 76.7072 196.161 76.8834 195.938C77.4209 195.234 77.702 194.366 77.6801 193.48C77.6801 193.48 91.4633 179.422 89.652 173.574C87.8407 167.725 94.1071 167.589 94.1071 167.589C94.1071 167.589 103.714 163.413 105.05 160.905C105.875 159.365 113.078 155.982 118.501 153.602C121.899 152.113 124.596 151.023 124.596 151.023L122.338 142.927L120.552 136.543L117.201 135.285L106.483 131.256L87.2548 128.558L85.4934 128.787L66.8121 131.205C66.8121 131.205 39.5385 139.008 36.7518 140.23C33.9652 141.452 32.4361 153.617 32.4361 153.617C32.4361 153.617 26.5912 173.802 26.877 176.46C27.1628 179.118 24.9264 186.464 24.9264 186.464C24.9264 186.464 24.9264 194.791 23.9796 195.356C23.9703 195.359 23.9603 195.359 23.951 195.356C22.9721 195.813 23.1115 199.836 23.1115 199.836Z" fill="#444053"/>
<path opacity="0.1" d="M51.0924 156.403C62.925 157.514 75.5936 155.553 75.5936 155.553C76.4296 152.92 88.13 145.682 88.13 145.682C78.5303 143.317 51.0924 156.403 51.0924 156.403Z" fill="black"/>
<path d="M63.761 192.041C64.179 201.369 74.7577 197.757 76.2903 196.496C76.5084 196.314 76.7072 196.111 76.8834 195.888C73.1857 197.249 66.6299 198.303 64.497 189.911C64.204 190.604 63.9582 191.315 63.761 192.041Z" fill="#444053"/>
<path d="M23.1114 199.836C23.1114 199.836 31.1856 202.201 35.6371 201.922C39.5385 201.68 38.9561 197.914 38.7525 196.982C34.6654 196.853 27.6273 196.471 23.9724 195.363C23.9631 195.366 23.9532 195.366 23.9439 195.363C22.9721 195.813 23.1114 199.836 23.1114 199.836Z" fill="#444053"/>
<path opacity="0.1" d="M63.761 192.041C64.179 201.369 74.7577 197.757 76.2903 196.496C76.5084 196.314 76.7072 196.111 76.8834 195.888C73.1857 197.249 66.6299 198.303 64.497 189.911C64.204 190.604 63.9582 191.315 63.761 192.041Z" fill="black"/>
<path opacity="0.1" d="M23.1114 199.836C23.1114 199.836 31.1856 202.201 35.6371 201.922C39.5385 201.68 38.9561 197.914 38.7525 196.982C34.6654 196.853 27.6273 196.471 23.9724 195.363C23.9631 195.366 23.9532 195.366 23.9439 195.363C22.9721 195.813 23.1114 199.836 23.1114 199.836Z" fill="black"/>
<path d="M3.20109 228.932C7.51685 231.854 14.0619 230.461 14.0619 230.461C14.0619 230.461 23.9439 225.731 26.8699 225.731C29.7959 225.731 36.8804 222.805 36.8804 222.805L36.6411 220.836L35.4907 211.39C35.4907 211.39 24.6477 211.111 24.2118 210.136C24.2118 210.136 22.2647 205.342 21.5681 207.114C20.8714 208.886 10.4321 221.404 7.7848 221.404C6.52365 221.404 4.4408 222.447 3.07248 223.855C1.58268 225.416 0.94318 227.403 3.20109 228.932Z" fill="#67647E"/>
<path opacity="0.1" d="M40.6496 146.657C40.6496 146.657 49.6991 152.373 47.1947 153.617C44.6903 154.86 40.6496 146.657 40.6496 146.657Z" fill="black"/>
<path opacity="0.1" d="M36.8804 157.654C36.8804 157.654 44.6759 165.056 41.7535 165.253C38.8311 165.449 36.8804 157.654 36.8804 157.654Z" fill="black"/>
<path opacity="0.1" d="M28.5383 181.165C28.5383 181.165 32.4968 188.607 31.007 189.897C29.5172 191.187 28.5383 181.165 28.5383 181.165Z" fill="black"/>
<path opacity="0.1" d="M72.1139 188.7C70.7206 190.09 85.3327 184.106 81.9958 183.827C78.659 183.548 72.1139 188.7 72.1139 188.7Z" fill="black"/>
<path d="M101.345 84.2895L101.813 84.2216C103.543 83.9572 109.82 82.9712 115.45 81.7493C116.822 81.4492 118.151 81.1384 119.38 80.8169C123.692 79.6879 126.586 78.4696 124.739 77.4693C122.295 76.1438 121.009 73.7359 120.33 71.6637C120.266 71.4601 120.205 71.2636 120.148 71.0671C119.848 70.0181 119.66 68.9403 119.587 67.8517C119.587 67.8517 103.868 62.282 106.919 67.8517C108.423 70.5848 107.412 72.8141 105.993 74.3754C105.018 75.4075 103.871 76.2622 102.603 76.9012L101.345 84.2895Z" fill="#EFB7B9"/>
<path opacity="0.1" d="M118.19 79.9738C118.19 79.9738 112.563 84.0108 106.815 80.6704C101.067 77.33 93.5497 110.184 93.5497 110.184L85.7542 129.394C85.7542 129.394 80.7061 133.571 86.9904 135.382C93.2747 137.193 107.215 133.571 110.756 138.862C114.296 144.153 120.998 144.985 121.684 144.985C122.37 144.985 125.021 125.075 125.021 125.075L125.711 96.2579L118.19 79.9738Z" fill="black"/>
<path d="M87.2547 134.267C93.539 136.075 107.483 132.456 111.024 137.747C112.515 139.903 114.598 141.582 117.022 142.581C118.587 143.283 120.256 143.725 121.963 143.888C122.052 143.888 122.185 143.531 122.338 142.892C123.317 138.862 125.3 123.978 125.3 123.978L125.986 95.1611L119.373 80.8169L118.469 78.8591C117.583 79.4502 116.622 79.9201 115.611 80.256C113.435 80.992 110.288 81.4064 107.101 79.5415C105.414 78.5626 103.575 80.699 101.82 84.2073C97.5904 92.6531 93.8355 109.055 93.8355 109.055L86.0329 128.29C85.8474 128.449 85.6709 128.619 85.5041 128.798C84.3966 129.955 82.3209 132.845 87.2547 134.267Z" fill="#F3F5F9"/>
<path opacity="0.1" d="M117.208 135.235C116.9 137.667 116.838 140.123 117.022 142.566C117.247 146.043 117.684 149.503 118.33 152.927C118.37 153.142 118.427 153.354 118.501 153.56C121.899 152.07 124.596 150.98 124.596 150.98L122.338 142.884C123.317 138.855 125.3 123.971 125.3 123.971L125.986 95.1539L119.373 80.8169C123.685 79.6879 126.579 78.4696 124.732 77.4693C122.052 76.0152 120.763 73.2571 120.141 71.0671C119.008 72.6461 117.682 74.0768 116.193 75.3257L116.107 75.3972L115.607 80.256L115.454 81.7493L115.132 84.8468C115.132 84.8468 116.665 121.459 117.776 123.549C118.887 125.639 118.333 129.673 117.361 134.407C117.301 134.675 117.265 134.95 117.208 135.235Z" fill="black"/>
<path d="M117.912 133.849C116.94 138.583 117.772 146.379 118.887 152.363C120.002 158.347 131.834 154.453 134.064 152.363C136.293 150.273 142.831 149.301 142.831 149.301C142.831 149.301 143.11 122.017 145.2 118.537C146.189 116.886 146.429 111.499 146.404 106.293C146.386 101.62 146.153 97.0939 146.068 95.5755C146.046 95.2182 146.036 95.0217 146.036 95.0217C146.036 95.0217 155.081 79.7094 154.942 78.5876C154.803 77.4658 152.159 77.3371 152.159 77.3371C152.159 77.3371 142.156 69.5416 140.466 70.5134C138.776 71.4851 134.199 68.9843 134.199 68.9843C134.199 68.9843 128.379 69.6452 127.176 68.5198C127.102 68.4574 127.045 68.3787 127.007 68.2899C126.97 68.2012 126.954 68.105 126.961 68.009C127.097 66.2226 121.031 62.4213 120.841 62.2927C125.957 66.8943 117.687 73.986 116.747 74.7648L116.661 74.8363L115.686 84.2859C115.686 84.2859 117.219 120.898 118.33 122.988C119.441 125.078 118.887 129.116 117.912 133.849Z" fill="#67647E"/>
<path d="M118.451 94.7752C118.836 94.7752 119.148 94.4633 119.148 94.0786C119.148 93.6938 118.836 93.3819 118.451 93.3819C118.066 93.3819 117.754 93.6938 117.754 94.0786C117.754 94.4633 118.066 94.7752 118.451 94.7752Z" fill="#444053"/>
<path opacity="0.1" d="M117.026 75.3257L121.256 79.4164L127.454 69.0557C127.381 68.9933 127.323 68.9145 127.286 68.8258C127.249 68.7371 127.233 68.6408 127.24 68.5448C127.376 66.7585 121.306 62.9572 121.12 62.8286C126.236 67.4552 117.98 74.5469 117.026 75.3257Z" fill="black"/>
<path opacity="0.1" d="M119.844 117.047C120.229 117.047 120.541 116.735 120.541 116.35C120.541 115.966 120.229 115.654 119.844 115.654C119.46 115.654 119.148 115.966 119.148 116.35C119.148 116.735 119.46 117.047 119.844 117.047Z" fill="black"/>
<path d="M119.844 116.768C120.229 116.768 120.541 116.457 120.541 116.072C120.541 115.687 120.229 115.375 119.844 115.375C119.46 115.375 119.148 115.687 119.148 116.072C119.148 116.457 119.46 116.768 119.844 116.768Z" fill="#444053"/>
<path d="M116.747 74.7683L120.977 78.859L127.176 68.4983C127.102 68.4359 127.045 68.3572 127.008 68.2684C126.97 68.1797 126.954 68.0834 126.961 67.9874C127.097 66.2011 121.031 62.3998 120.841 62.2712C125.957 66.8978 117.687 73.9859 116.747 74.7683Z" fill="#67647E"/>
<path d="M112.968 113.751L121.44 113.945C121.776 113.953 122.054 113.687 122.061 113.352L122.502 94.1004C122.509 93.765 122.244 93.487 121.908 93.4793L113.436 93.2856C113.101 93.2779 112.823 93.5435 112.815 93.8789L112.375 113.13C112.367 113.466 112.633 113.744 112.968 113.751Z" fill="#D1D9EC"/>
<path d="M113.018 114.204L121.49 114.398C121.825 114.406 122.103 114.14 122.111 113.805L122.551 94.553C122.559 94.2177 122.293 93.9396 121.958 93.9319L113.486 93.7382C113.15 93.7305 112.872 93.9962 112.865 94.3315L112.424 113.583C112.417 113.918 112.682 114.196 113.018 114.204Z" fill="#DFE6F5"/>
<path d="M117.74 101.352C118.581 101.352 119.262 100.671 119.262 99.8305C119.262 98.99 118.581 98.3086 117.74 98.3086C116.9 98.3086 116.218 98.99 116.218 99.8305C116.218 100.671 116.9 101.352 117.74 101.352Z" fill="white"/>
<path opacity="0.1" d="M65.2901 132.595C68.7699 134.128 91.6027 130.094 94.9431 129.115C98.2835 128.137 103.16 120.623 100.792 115.182C98.4229 109.741 101.624 104.464 101.624 104.464C101.624 104.464 106.626 93.7463 107.751 91.6563C108.876 89.5663 111.188 83.4892 111.509 82.471C111.523 82.3566 111.512 82.2408 111.478 82.1307C111.444 82.0207 111.388 81.9188 111.313 81.8315C110.406 80.4632 106.904 78.0266 106.904 78.0266C105.922 78.3839 105.8 75.5651 105.833 73.4965C105.854 72.339 105.922 71.4172 105.922 71.4172C105.922 71.4172 105.461 71.8853 104.707 72.5248C104.432 72.757 104.118 73.0142 103.768 73.2786C102.462 74.3244 100.985 75.1356 99.4018 75.6758C96.0613 76.6655 91.3276 81.2277 91.3276 81.2277L92.7209 102.606C92.7209 102.606 89.5055 122.713 86.1758 126.611C82.8461 130.509 72.8106 130.369 69.4701 130.369C66.1297 130.369 65.2901 132.595 65.2901 132.595Z" fill="black"/>
<path d="M65.0114 131.763C68.4912 133.292 91.324 129.262 94.6644 128.28C98.0048 127.297 102.881 119.787 100.513 114.346C98.1442 108.905 101.345 103.628 101.345 103.628C101.345 103.628 106.347 92.9103 107.472 90.8203C108.598 88.7303 110.909 82.6532 111.231 81.635C111.244 81.5207 111.233 81.4049 111.199 81.2949C111.165 81.1849 111.109 81.083 111.034 80.9955C110.12 79.6308 106.636 77.2014 106.636 77.2014C105.654 77.5586 105.532 74.7434 105.565 72.6748C105.586 71.5137 105.654 70.592 105.654 70.592C105.654 70.592 105.193 71.06 104.439 71.7031C104.164 71.9317 103.85 72.189 103.5 72.4533C102.188 73.5013 100.703 74.3126 99.1124 74.8506C95.7719 75.8402 91.0382 80.4025 91.0382 80.4025L92.4315 101.781C92.4315 101.781 89.2161 121.888 85.8864 125.786C82.5567 129.684 72.5247 129.544 69.1807 129.544C65.8367 129.544 65.0114 131.763 65.0114 131.763Z" fill="#67647E"/>
<path opacity="0.1" d="M102.878 71.1278C102.878 71.1278 103.01 71.8602 103.235 72.9892C103.985 76.8119 105.772 85.1576 107.062 84.8361C107.987 84.6038 109.562 82.9676 110.763 81.5528C109.859 80.1737 106.365 77.7372 106.365 77.7372C105.382 78.0945 105.261 75.2792 105.293 73.2107L104.168 72.2389L102.878 71.1278Z" fill="black"/>
<path d="M103.157 70.5812C103.157 70.5812 103.289 71.3136 103.514 72.4426C104.264 76.2653 106.05 84.611 107.34 84.2895C108.265 84.0573 109.841 82.421 111.041 81.0062C110.12 79.6308 106.636 77.2014 106.636 77.2014C105.654 77.5586 105.532 74.7434 105.565 72.6748L104.439 71.703L103.157 70.5812Z" fill="#67647E"/>
<path d="M94.2464 111.574C94.2464 111.574 101.21 110.184 103.157 107.122C105.104 104.06 118.365 101.406 116.733 104.621C115.1 107.837 103.157 118.301 103.157 118.301L97.9727 125.721L91.0489 123.964L88.1301 118.287L94.2464 111.574Z" fill="#EFB7B9"/>
<path opacity="0.1" d="M110.716 119.519C110.716 119.519 103.975 122.02 102.96 125.364C101.945 128.708 110.716 119.519 110.716 119.519Z" fill="black"/>
<path opacity="0.1" d="M114.85 123.41C114.85 123.41 115.464 126.886 107.015 126.625L114.85 123.41Z" fill="black"/>
<path opacity="0.1" d="M151.323 78.8591L154.388 78.5804C154.388 78.5804 157.729 81.0812 160.233 81.0812C162.738 81.0812 164.27 84.2966 164.27 84.2966C164.27 84.2966 168.447 86.2473 169.84 86.526C171.233 86.8046 173.599 88.1944 172.902 88.7517C172.205 89.309 173.041 90.563 174.295 91.5348C175.549 92.5066 177.511 97.5226 175.824 98.2192C174.138 98.9159 169.561 100.306 168.322 101.002C167.082 101.699 165.539 101.002 165.539 101.002C165.539 101.002 158.165 91.3955 154.403 93.2068C150.641 95.0181 145.489 95.0074 145.489 95.0074L141.452 86.5188L151.323 78.8591Z" fill="black"/>
<path d="M87.2547 124.668C87.9121 125.646 88.7624 126.332 89.8521 126.472C92.5769 126.79 95.3383 126.535 97.9584 125.721C97.9584 125.721 83.9358 121.266 97.4368 110.434H93.8284L92.6137 109.977L93.1639 107.094L93.957 81.0884L91.0346 80.3917C91.0346 80.3917 88.6802 97.5154 88.1193 99.6019C87.5584 101.688 87.1369 109.766 87.1369 109.766C87.1369 109.766 86.5795 113.106 85.7435 114.768C85.1112 116.032 85.2862 121.695 87.2547 124.668Z" fill="#67647E"/>
<path opacity="0.1" d="M87.8228 124.668C88.4766 125.646 89.3305 126.332 90.4201 126.472C93.145 126.79 95.9064 126.535 98.5265 125.721C98.5265 125.721 84.5038 121.266 98.0049 110.427H94.4001L93.1961 109.97C91.1847 113.489 88.0765 119.737 87.8228 124.668Z" fill="black"/>
<path d="M87.2547 124.668C87.9121 125.646 88.7624 126.332 89.852 126.472C92.5769 126.79 95.3383 126.535 97.9584 125.721C97.9584 125.721 83.9357 121.266 97.4368 110.434H93.8284L92.6137 109.977C90.6416 113.489 87.5191 119.737 87.2547 124.668Z" fill="#67647E"/>
<path opacity="0.1" d="M105.99 74.3861C108.369 75.4654 111.023 75.7832 113.589 75.2958C116.156 74.8085 118.509 73.5399 120.327 71.6637C120.262 71.4601 120.202 71.2636 120.145 71.0671C119.845 70.0181 119.657 68.9403 119.584 67.8517C119.584 67.8517 103.864 62.282 106.915 67.8517C108.419 70.5955 107.408 72.8249 105.99 74.3861Z" fill="black"/>
<path d="M98.5622 62.2927V62.4177C98.5622 62.8286 98.5908 63.2358 98.6337 63.636C98.6765 64.0361 98.7337 64.4005 98.8051 64.7757C99.3515 67.5053 100.781 69.9791 102.874 71.8148C104.967 73.6506 107.606 74.7462 110.383 74.9324C113.161 75.1186 115.922 74.3851 118.241 72.845C120.56 71.305 122.308 69.0442 123.213 66.4119C123.299 66.1654 123.374 65.9189 123.442 65.6688C123.748 64.5695 123.901 63.4336 123.899 62.2927C123.899 62.0033 123.899 61.7103 123.867 61.4245C123.634 58.1539 122.142 55.1011 119.704 52.908C117.266 50.7149 114.073 49.5523 110.796 49.6648C107.519 49.7772 104.414 51.1558 102.132 53.5108C99.8504 55.8658 98.5708 59.0137 98.5622 62.2927Z" fill="#EFB7B9"/>
<path opacity="0.1" d="M98.5622 62.4177C98.6315 62.8198 98.6555 63.2285 98.6337 63.636C98.6294 63.8569 98.6414 64.0778 98.6694 64.2969C98.6932 64.4618 98.7388 64.6228 98.8051 64.7757C99.316 65.9761 100.988 66.7549 102.092 65.9796C102.517 65.6313 102.855 65.1884 103.078 64.6863C104.25 62.5106 105.875 60.0097 108.437 59.9669C109.53 59.9454 110.556 60.4063 111.613 60.6814C112.671 60.9565 113.921 60.9815 114.707 60.2634C115.314 59.7096 115.6 58.7665 116.411 58.5735C117.222 58.3806 117.972 59.1237 118.344 59.8525C118.715 60.5814 119.012 61.4388 119.773 61.8175C120.109 61.9818 120.488 62.0319 120.845 62.2105C122.36 63.0393 121.663 65.9439 123.235 66.4155C123.284 66.4308 123.334 66.4427 123.385 66.4512C123.41 66.194 123.439 65.9296 123.464 65.6724C123.606 64.2576 123.748 62.8429 123.889 61.4281C123.655 58.1574 122.163 55.1046 119.725 52.9116C117.288 50.7185 114.095 49.5559 110.818 49.6683C107.541 49.7808 104.435 51.1594 102.153 53.5144C99.8718 55.8694 98.5922 59.0173 98.5836 62.2962L98.5622 62.4177Z" fill="black"/>
<path d="M121.066 43.3826C122.556 44.015 124.107 44.9868 124.439 46.5051C124.585 47.1732 124.475 47.8663 124.51 48.5451C124.582 49.917 125.225 51.1889 125.65 52.5036C126.075 53.8183 126.218 55.3617 125.382 56.4692C125.121 56.8265 124.775 57.1087 124.539 57.4732C124.231 58.0475 124.065 58.6867 124.053 59.3381L123.364 66.1904C121.599 65.8582 122.385 62.7964 120.82 61.9461C120.495 61.7675 120.105 61.7175 119.766 61.5495C119.012 61.1923 118.719 60.317 118.337 59.5882C117.955 58.8593 117.229 58.1127 116.404 58.3092C115.579 58.5056 115.307 59.4488 114.703 59.999C113.914 60.7135 112.66 60.685 111.606 60.417C110.552 60.1491 109.523 59.7025 108.433 59.7025C105.868 59.7454 104.239 62.2462 103.074 64.4219C102.85 64.9255 102.511 65.3696 102.085 65.7188C100.842 66.5905 98.8695 65.4902 98.6658 64.0325C98.5443 63.2144 98.8016 62.3034 98.33 61.6103C97.8584 60.9172 96.8366 60.7707 96.0399 60.3992C94.0035 59.4631 93.3747 56.923 93.7106 54.7937C93.9571 53.2574 94.568 51.6783 94.0678 50.1992C93.8928 49.6884 93.5962 49.2239 93.4355 48.713C92.9889 47.284 93.7177 45.6977 94.8645 44.6795C96.0113 43.6613 97.5154 43.1004 98.9945 42.6074C102.792 41.3319 106.779 40.1065 110.82 39.8421C112.588 39.7278 114.907 39.1741 116.311 40.278C117.98 41.557 119.008 42.5109 121.066 43.3826Z" fill="#585268"/>
<path opacity="0.1" d="M117.754 83.775C118.139 83.775 118.451 83.4631 118.451 83.0783C118.451 82.6936 118.139 82.3817 117.754 82.3817C117.37 82.3817 117.058 82.6936 117.058 83.0783C117.058 83.4631 117.37 83.775 117.754 83.775Z" fill="black"/>
<path d="M117.754 83.4964C118.139 83.4964 118.451 83.1845 118.451 82.7997C118.451 82.415 118.139 82.1031 117.754 82.1031C117.37 82.1031 117.058 82.415 117.058 82.7997C117.058 83.1845 117.37 83.4964 117.754 83.4964Z" fill="#444053"/>
<path opacity="0.1" d="M122.21 127.49C122.594 127.49 122.906 127.178 122.906 126.793C122.906 126.409 122.594 126.097 122.21 126.097C121.825 126.097 121.513 126.409 121.513 126.793C121.513 127.178 121.825 127.49 122.21 127.49Z" fill="black"/>
<path d="M122.21 127.211C122.594 127.211 122.906 126.899 122.906 126.515C122.906 126.13 122.594 125.818 122.21 125.818C121.825 125.818 121.513 126.13 121.513 126.515C121.513 126.899 121.825 127.211 122.21 127.211Z" fill="#444053"/>
<path opacity="0.1" d="M119.844 139.044C120.229 139.044 120.541 138.732 120.541 138.347C120.541 137.962 120.229 137.651 119.844 137.651C119.46 137.651 119.148 137.962 119.148 138.347C119.148 138.732 119.46 139.044 119.844 139.044Z" fill="black"/>
<path d="M119.844 138.765C120.229 138.765 120.541 138.453 120.541 138.069C120.541 137.684 120.229 137.372 119.844 137.372C119.46 137.372 119.148 137.684 119.148 138.069C119.148 138.453 119.46 138.765 119.844 138.765Z" fill="#444053"/>
<path opacity="0.1" d="M95.9184 94.0785C95.9184 94.0785 94.3858 104.475 95.9184 106.286C97.4511 108.098 95.9184 94.0785 95.9184 94.0785Z" fill="black"/>
<path opacity="0.1" d="M141.441 113.385C141.441 113.385 144.364 119.684 141.441 125.721C138.519 131.759 136.707 134.214 137.683 138.069C138.658 141.923 141.441 113.385 141.441 113.385Z" fill="black"/>
<path opacity="0.1" d="M3.20109 228.932C7.51685 231.854 14.0619 230.461 14.0619 230.461C14.0619 230.461 23.9439 225.731 26.8699 225.731C29.7959 225.731 36.8804 222.805 36.8804 222.805L36.6411 220.836C33.7579 221.39 27.1986 222.715 26.4412 223.362C25.4658 224.198 13.4939 228.235 13.4939 228.235C13.4939 228.235 5.34111 227.217 3.07248 223.866C1.58268 225.416 0.94318 227.403 3.20109 228.932Z" fill="black"/>
<g opacity="0.1">
<path opacity="0.1" d="M124.51 47.4305C124.51 47.2805 124.51 47.1304 124.51 46.9768C124.51 47.1518 124.51 47.334 124.51 47.4984C124.517 47.4769 124.51 47.4555 124.51 47.4305Z" fill="black"/>
<path opacity="0.1" d="M96.0435 59.2738C96.8402 59.6311 97.8298 59.774 98.3335 60.4814C98.8373 61.1887 98.5479 62.0855 98.6694 62.9036C98.8802 64.3613 100.845 65.4652 102.088 64.5899C102.515 64.2407 102.854 63.7966 103.078 63.293C104.246 61.1173 105.875 58.6164 108.437 58.5736C109.53 58.5557 110.556 59.0166 111.613 59.2881C112.671 59.5596 113.921 59.5882 114.711 58.8701C115.314 58.3199 115.6 57.3732 116.411 57.1802C117.222 56.9873 117.969 57.7304 118.344 58.4592C118.719 59.1881 119.012 60.0455 119.773 60.4242C120.109 60.5885 120.488 60.6386 120.827 60.8172C122.392 61.6711 121.606 64.7471 123.371 65.0615C123.609 62.775 123.839 60.4909 124.06 58.2092C124.075 57.565 124.241 56.9334 124.546 56.3657C124.782 56.0084 125.128 55.7083 125.389 55.3582C125.705 54.9258 125.902 54.4184 125.961 53.8863C126.109 54.7899 125.904 55.7158 125.389 56.4729C125.128 56.8301 124.782 57.1124 124.546 57.4768C124.237 58.0494 124.068 58.6874 124.053 59.3381C123.815 61.6222 123.585 63.9063 123.364 66.1905C121.599 65.8582 122.385 62.7964 120.82 61.9462C120.495 61.7675 120.105 61.7175 119.766 61.5496C119.012 61.1923 118.719 60.317 118.337 59.5882C117.955 58.8594 117.229 58.1127 116.404 58.3092C115.579 58.5057 115.307 59.4489 114.703 59.9991C113.914 60.7136 112.66 60.685 111.606 60.4171C110.552 60.1491 109.523 59.7025 108.43 59.7025C105.868 59.7454 104.239 62.2463 103.071 64.422C102.847 64.9256 102.508 65.3697 102.081 65.7189C100.838 66.5906 98.8659 65.4902 98.6622 64.0326C98.5407 63.2144 98.798 62.3034 98.3264 61.6103C97.8548 60.9172 96.833 60.7708 96.0363 60.3992C94.175 59.5418 93.489 57.3446 93.6462 55.3475C93.7891 56.9802 94.5251 58.5736 96.0435 59.2738Z" fill="black"/>
<path opacity="0.1" d="M93.439 47.5841C93.5998 48.095 93.8963 48.563 94.0714 49.0703C94.2558 49.6627 94.3094 50.288 94.2286 50.9031C94.2008 50.6602 94.1481 50.4207 94.0714 50.1886C93.8963 49.6777 93.5998 49.2132 93.439 48.7024C93.2979 48.2308 93.2698 47.7327 93.3568 47.2483C93.3776 47.3618 93.405 47.4739 93.439 47.5841Z" fill="black"/>
</g>
<path d="M171.977 162.248L143.281 158.658C143.079 158.633 142.887 158.552 142.729 158.424C142.57 158.296 142.45 158.127 142.382 157.935C142.314 157.742 142.301 157.535 142.344 157.336C142.388 157.137 142.486 156.954 142.627 156.807L154.663 144.303C154.78 144.181 154.924 144.088 155.082 144.031C155.241 143.974 155.411 143.955 155.578 143.974L177.518 146.432C177.685 146.451 177.845 146.508 177.986 146.598C178.128 146.688 178.246 146.81 178.333 146.954C178.42 147.097 178.473 147.259 178.488 147.426C178.503 147.593 178.479 147.762 178.418 147.918L173.138 161.562C173.048 161.789 172.885 161.98 172.674 162.104C172.464 162.228 172.219 162.279 171.977 162.248Z" fill="#746D83"/>
<path opacity="0.1" d="M171.977 162.248L143.281 158.658C143.079 158.633 142.887 158.552 142.729 158.424C142.57 158.296 142.45 158.127 142.382 157.935C142.314 157.742 142.301 157.535 142.344 157.336C142.388 157.137 142.486 156.954 142.627 156.807L154.663 144.303C154.78 144.181 154.924 144.088 155.082 144.031C155.241 143.974 155.411 143.955 155.578 143.974L177.518 146.432C177.685 146.451 177.845 146.508 177.986 146.598C178.128 146.688 178.246 146.81 178.333 146.954C178.42 147.097 178.473 147.259 178.488 147.426C178.503 147.593 178.479 147.762 178.418 147.918L173.138 161.562C173.048 161.789 172.885 161.98 172.674 162.104C172.464 162.228 172.219 162.279 171.977 162.248Z" fill="black"/>
<path d="M171.651 161.927L142.959 158.322C142.757 158.296 142.566 158.215 142.407 158.086C142.249 157.958 142.129 157.789 142.061 157.596C141.993 157.404 141.98 157.197 142.023 156.997C142.067 156.798 142.164 156.615 142.306 156.468L154.342 143.963C154.459 143.842 154.602 143.749 154.761 143.691C154.919 143.634 155.089 143.613 155.257 143.631L177.193 146.089C177.36 146.108 177.521 146.165 177.662 146.255C177.804 146.346 177.923 146.468 178.011 146.612C178.098 146.756 178.151 146.918 178.166 147.085C178.181 147.253 178.157 147.422 178.096 147.579L172.812 161.223C172.725 161.453 172.563 161.647 172.353 161.774C172.143 161.902 171.896 161.955 171.651 161.927Z" fill="#746D83"/>
<path d="M154.553 148.861L163.17 149.555L175.46 148.754H175.249L163.863 147.654C161.255 146.696 163.063 141.059 163.063 141.059L154.342 141.502L153.645 141.538C150.562 148.754 154.553 148.861 154.553 148.861Z" fill="#D1D9EC"/>
<path opacity="0.1" d="M154.553 148.862L163.17 149.555L175.46 148.754H175.249L162.823 149.197L154.499 148.293C152.134 147.672 153.488 143.57 154.342 141.505L153.645 141.541C150.562 148.754 154.553 148.862 154.553 148.862Z" fill="black"/>
<path d="M139.458 97.619L142.095 135.435L142.452 140.398C142.488 140.946 142.732 141.459 143.135 141.832C143.538 142.205 144.068 142.409 144.617 142.402H145.417L185.11 142.163C185.264 142.161 185.417 142.127 185.558 142.063C185.699 141.999 185.825 141.907 185.929 141.792C186.032 141.677 186.111 141.541 186.159 141.394C186.207 141.247 186.225 141.091 186.21 140.937L185.853 135.971L183.059 102.717C183.015 102.284 182.848 101.871 182.578 101.53C182.308 101.188 181.945 100.93 181.533 100.788L143.703 95.1146C142.416 94.668 141.105 94.8252 140.287 95.5076C139.986 95.7639 139.752 96.0909 139.608 96.4592C139.463 96.8276 139.412 97.226 139.458 97.619Z" fill="#4C4C56"/>
<path d="M142.095 135.435L142.452 140.398C142.488 140.946 142.732 141.459 143.135 141.832C143.538 142.205 144.068 142.409 144.617 142.402H145.417L185.11 142.163C185.264 142.161 185.417 142.127 185.558 142.063C185.699 141.999 185.825 141.907 185.929 141.792C186.032 141.677 186.111 141.541 186.159 141.394C186.208 141.247 186.225 141.091 186.21 140.937L185.853 135.971L142.095 135.435Z" fill="#DFE6F5"/>
<path d="M168.704 140.616C168.998 140.616 169.236 140.139 169.236 139.551C169.236 138.963 168.998 138.487 168.704 138.487C168.41 138.487 168.172 138.963 168.172 139.551C168.172 140.139 168.41 140.616 168.704 140.616Z" fill="white"/>
<path d="M167.161 153.702C167.161 153.702 156.307 149.605 153.381 152.584C153.381 152.584 152.902 153.492 154.871 153.702L162.823 154.342C162.823 154.342 166.096 154.66 167.161 153.702Z" fill="#D1D9EC"/>
<path d="M166.871 152.638C164.728 151.766 158.322 149.512 154.213 152.005C154.213 152.005 158.758 151.502 161.255 152.945C163.752 154.388 167.161 153.702 167.161 153.702L167.211 153.613C167.258 153.528 167.288 153.434 167.296 153.336C167.305 153.239 167.293 153.141 167.261 153.049C167.228 152.957 167.177 152.872 167.11 152.802C167.043 152.731 166.962 152.675 166.871 152.638Z" fill="#DFE6F5"/>
<path d="M139.458 97.619L142.438 140.405C142.474 140.953 142.718 141.466 143.121 141.839C143.524 142.212 144.054 142.416 144.603 142.409H145.403C144.855 141.886 144.388 141.284 144.017 140.623C144.017 140.623 141.091 97.6297 140.877 96.5651C140.783 96.1666 140.578 95.8025 140.287 95.5147C139.987 95.7704 139.754 96.0961 139.609 96.4632C139.465 96.8302 139.413 97.2272 139.458 97.619Z" fill="#DFE6F5"/>
<path opacity="0.1" d="M139.458 97.619L142.438 140.405C142.474 140.953 142.718 141.466 143.121 141.839C143.524 142.212 144.054 142.416 144.603 142.409H145.403C144.855 141.886 144.388 141.284 144.017 140.623C144.017 140.623 141.091 97.6297 140.877 96.5651C140.783 96.1666 140.578 95.8025 140.287 95.5147C139.987 95.7704 139.754 96.0961 139.609 96.4632C139.465 96.8302 139.413 97.2272 139.458 97.619Z" fill="black"/>
<path opacity="0.1" d="M134.339 109.48C137.554 108.766 145.057 106.565 145.057 106.565L146.4 106.293C146.382 101.62 146.15 97.0939 146.064 95.5755H146.032C146.032 95.5755 139.626 97.6655 138.097 98.7909C136.568 99.9163 131.831 99.6233 131.831 99.6233C131.831 99.6233 124.457 100.02 118.337 106.854C112.217 113.689 131.138 110.184 134.339 109.48Z" fill="black"/>
<path d="M165.632 97.0581C165.918 97.189 166.166 97.3902 166.353 97.6431C166.541 97.8959 166.661 98.1921 166.702 98.504C166.744 98.8159 166.706 99.1332 166.592 99.4265C166.478 99.7197 166.291 99.9791 166.049 100.181C164.352 101.585 161.877 103.264 159.512 103.5C155.582 103.896 146.078 105.8 145.135 106C145.084 106.009 145.034 106.021 144.985 106.036C144.203 106.265 137.358 108.269 134.339 108.93C131.123 109.645 112.188 113.114 118.33 106.293C123.967 100.013 130.666 99.1481 131.698 99.066C131.781 99.0589 131.863 99.0589 131.945 99.066C132.66 99.0981 136.704 99.2375 138.101 98.2264C138.828 97.7699 139.599 97.3858 140.401 97.0796C143.429 95.827 146.586 94.9163 149.815 94.3644L156.364 93.2211C156.737 93.1569 157.12 93.2067 157.464 93.364L165.632 97.0581Z" fill="#EFB7B9"/>
<path d="M151.88 78.8591L154.942 78.5804C154.942 78.5804 158.286 81.0812 160.791 81.0812C163.295 81.0812 164.828 84.2966 164.828 84.2966C164.828 84.2966 169.004 86.2473 170.397 86.526C171.791 86.8046 174.156 88.1944 173.459 88.7517C172.763 89.309 173.599 90.563 174.853 91.5348C176.107 92.5066 178.068 97.5226 176.382 98.2192C174.695 98.9159 170.119 100.306 168.879 101.002C167.639 101.699 166.096 101.002 166.096 101.002C166.096 101.002 158.708 91.3883 154.946 93.1997C151.184 95.011 146.036 95.0074 146.036 95.0074L141.998 86.5188L151.88 78.8591Z" fill="#67647E"/>
<path d="M335.196 253.919C334.854 254.388 334.58 254.904 334.385 255.451C334.332 255.584 334.285 255.737 334.235 255.884C334.145 255.842 334.05 255.809 333.953 255.784C333.537 255.679 333.106 255.642 332.678 255.677C332.678 255.509 332.678 255.337 332.703 255.151C332.753 253.269 332.531 250.646 330.738 251.757C329.012 252.829 330.241 254.615 331.352 255.759L331.638 256.041C330.627 256.756 330.434 258.445 330.263 260.2C330.091 261.954 328.605 263.872 327.619 264.962C327.519 265.076 327.426 265.173 327.34 265.266C326.942 264.949 326.482 264.719 325.99 264.592C325.497 264.464 324.984 264.442 324.482 264.526L324.35 264.044C323.55 261.153 321.888 256.148 319.77 255.051C319.859 254.941 319.952 254.826 320.048 254.694C320.949 253.519 321.96 251.768 320.463 251.322C318.966 250.875 318.834 252.84 318.916 254.308C318.916 254.494 318.93 254.669 318.959 254.833C318.659 254.847 318.365 254.922 318.095 255.053C317.826 255.185 317.586 255.37 317.39 255.598L317.162 255.323C315.947 253.894 313.718 251.618 313.046 253.336C312.417 254.937 314.379 257.016 315.758 258.22L315.843 258.295C314.915 262.05 318.959 265.112 321.134 266.452L321.413 266.623C318.412 270.16 316.562 276.791 316.562 276.791L324.964 278.291C324.964 278.291 330.534 273.483 329.823 268.967H329.88C335.447 267.852 336.715 261.914 335.847 258.392L335.947 258.349C336.96 257.933 337.847 257.261 338.523 256.398C340.062 254.237 336.793 251.793 335.196 253.919Z" fill="#FF6F00"/>
<path opacity="0.1" d="M335.196 253.919C334.854 254.388 334.58 254.904 334.385 255.451C334.332 255.584 334.285 255.737 334.235 255.884C334.145 255.842 334.05 255.809 333.953 255.784C333.537 255.679 333.106 255.642 332.678 255.677C332.678 255.509 332.678 255.337 332.703 255.151C332.753 253.269 332.531 250.646 330.738 251.757C329.012 252.829 330.241 254.615 331.352 255.759L331.638 256.041C330.627 256.756 330.434 258.445 330.263 260.2C330.091 261.954 328.605 263.872 327.619 264.962C327.519 265.076 327.426 265.173 327.34 265.266C326.942 264.949 326.482 264.719 325.99 264.592C325.497 264.464 324.984 264.442 324.482 264.526L324.35 264.044C323.55 261.153 321.888 256.148 319.77 255.051C319.859 254.941 319.952 254.826 320.048 254.694C320.949 253.519 321.96 251.768 320.463 251.322C318.966 250.875 318.834 252.84 318.916 254.308C318.916 254.494 318.93 254.669 318.959 254.833C318.659 254.847 318.365 254.922 318.095 255.053C317.826 255.185 317.586 255.37 317.39 255.598L317.162 255.323C315.947 253.894 313.718 251.618 313.046 253.336C312.417 254.937 314.379 257.016 315.758 258.22L315.843 258.295C314.915 262.05 318.959 265.112 321.134 266.452L321.413 266.623C318.412 270.16 316.562 276.791 316.562 276.791L324.964 278.291C324.964 278.291 330.534 273.483 329.823 268.967H329.88C335.447 267.852 336.715 261.914 335.847 258.392L335.947 258.349C336.96 257.933 337.847 257.261 338.523 256.398C340.062 254.237 336.793 251.793 335.196 253.919Z" fill="black"/>
<path d="M318.466 256.341L317.483 259.217C317.483 259.217 316.94 258.831 316.251 258.224C314.872 257.02 312.91 254.941 313.539 253.34C314.211 251.622 316.44 253.89 317.655 255.326C318.144 255.898 318.466 256.341 318.466 256.341Z" fill="#FF6F00"/>
<path d="M320.549 254.698C320.248 255.094 319.926 255.473 319.584 255.834C319.498 255.332 319.44 254.827 319.409 254.319C319.327 252.851 319.48 250.893 320.956 251.332C322.431 251.772 321.442 253.522 320.549 254.698Z" fill="#FF6F00"/>
<path d="M333.214 255.151C333.182 256.098 333.089 256.855 333.089 256.855C332.656 256.517 332.247 256.151 331.863 255.759C330.752 254.608 329.523 252.826 331.249 251.757C333.053 250.646 333.264 253.269 333.214 255.151Z" fill="#FF6F00"/>
<path d="M339.016 256.391C338.341 257.254 337.453 257.926 336.44 258.342C336.159 258.466 335.87 258.571 335.575 258.656L334.418 257.031C334.539 256.493 334.699 255.966 334.896 255.451C335.091 254.904 335.365 254.388 335.707 253.919C337.308 251.793 340.577 254.237 339.016 256.391Z" fill="#FF6F00"/>
<path opacity="0.1" d="M317.655 255.326C318.144 255.898 318.466 256.341 318.466 256.341L317.483 259.217C317.483 259.217 316.94 258.831 316.251 258.224C316.403 257.303 316.782 256.435 317.355 255.698C317.455 255.562 317.558 255.441 317.655 255.326Z" fill="black"/>
<path opacity="0.1" d="M320.549 254.698C320.248 255.094 319.926 255.473 319.584 255.834C319.498 255.332 319.44 254.827 319.409 254.319C319.819 254.324 320.217 254.457 320.549 254.698Z" fill="black"/>
<path d="M325.372 266.116L322.928 267.188C322.482 266.964 322.048 266.719 321.628 266.452C319.059 264.873 313.893 260.896 317.34 256.209C320.788 251.522 323.689 259.928 324.843 264.04C325.193 265.273 325.372 266.116 325.372 266.116Z" fill="#FF6F00"/>
<path opacity="0.1" d="M331.863 255.759C332.221 255.393 332.703 255.176 333.214 255.151C333.181 256.098 333.089 256.856 333.089 256.856C332.656 256.517 332.247 256.151 331.863 255.759Z" fill="black"/>
<path opacity="0.1" d="M336.44 258.335C336.159 258.458 335.87 258.563 335.575 258.649L334.418 257.023C334.539 256.486 334.699 255.958 334.896 255.444C335.643 255.887 336.193 256.973 336.44 258.335Z" fill="black"/>
<path d="M330.373 268.96C330.238 268.988 330.102 269.013 329.963 269.035C321.77 270.278 327.262 265.859 327.262 265.859C327.262 265.859 327.619 265.519 328.13 264.962C329.116 263.89 330.606 261.964 330.774 260.199C331.031 257.545 331.331 255.055 334.464 255.784C337.54 256.505 338.126 267.409 330.373 268.96Z" fill="#FF6F00"/>
<path d="M330.22 289.356H314.568V293.472H330.22V289.356Z" fill="#D4DFEC"/>
<path d="M332.531 275.98H312.081V290.342H332.531V275.98Z" fill="#D4DFEC"/>
<path opacity="0.1" d="M330.22 289.356H314.568V293.472H330.22V289.356Z" fill="black"/>
<path opacity="0.1" d="M332.531 275.98H312.081V290.342H332.531V275.98Z" fill="black"/>
<path d="M331.249 289.356H315.597V293.472H331.249V289.356Z" fill="#D4DFEC"/>
<path opacity="0.1" d="M324.836 264.051C325.193 265.28 325.365 266.123 325.365 266.123L322.921 267.195C322.475 266.971 322.041 266.726 321.62 266.459C322.585 265.24 323.664 264.326 324.836 264.051Z" fill="black"/>
<path opacity="0.1" d="M330.373 268.96C330.238 268.988 330.102 269.013 329.963 269.035C321.77 270.278 327.262 265.859 327.262 265.859C327.262 265.859 327.619 265.519 328.13 264.962C329.659 266.194 330.291 267.566 330.373 268.96Z" fill="black"/>
<path d="M317.055 276.794C317.055 276.794 321.642 260.36 328.073 265.433C334.503 270.507 325.457 278.295 325.457 278.295L317.055 276.794Z" fill="#FF6F00"/>
<path opacity="0.1" d="M319.37 259.299C319.654 259.299 319.884 259.069 319.884 258.785C319.884 258.501 319.654 258.27 319.37 258.27C319.085 258.27 318.855 258.501 318.855 258.785C318.855 259.069 319.085 259.299 319.37 259.299Z" fill="black"/>
<path opacity="0.1" d="M319.327 261.7C319.611 261.7 319.841 261.47 319.841 261.186C319.841 260.901 319.611 260.671 319.327 260.671C319.043 260.671 318.812 260.901 318.812 261.186C318.812 261.47 319.043 261.7 319.327 261.7Z" fill="black"/>
<path opacity="0.1" d="M334.246 259.771C334.53 259.771 334.761 259.54 334.761 259.256C334.761 258.972 334.53 258.742 334.246 258.742C333.962 258.742 333.732 258.972 333.732 259.256C333.732 259.54 333.962 259.771 334.246 259.771Z" fill="black"/>
<path opacity="0.1" d="M322.242 272.079C322.526 272.079 322.756 271.848 322.756 271.564C322.756 271.28 322.526 271.05 322.242 271.05C321.958 271.05 321.728 271.28 321.728 271.564C321.728 271.848 321.958 272.079 322.242 272.079Z" fill="black"/>
<path opacity="0.1" d="M333.174 263.758C333.458 263.758 333.689 263.528 333.689 263.243C333.689 262.959 333.458 262.729 333.174 262.729C332.89 262.729 332.66 262.959 332.66 263.243C332.66 263.528 332.89 263.758 333.174 263.758Z" fill="black"/>
<path opacity="0.1" d="M327.858 269.078C328.142 269.078 328.373 268.847 328.373 268.563C328.373 268.279 328.142 268.049 327.858 268.049C327.574 268.049 327.344 268.279 327.344 268.563C327.344 268.847 327.574 269.078 327.858 269.078Z" fill="black"/>
<path opacity="0.1" d="M321.127 260.328C321.412 260.328 321.642 260.098 321.642 259.814C321.642 259.529 321.412 259.299 321.127 259.299C320.843 259.299 320.613 259.529 320.613 259.814C320.613 260.098 320.843 260.328 321.127 260.328Z" fill="black"/>
<path opacity="0.1" d="M332.831 261.314C333.115 261.314 333.346 261.084 333.346 260.8C333.346 260.516 333.115 260.285 332.831 260.285C332.547 260.285 332.317 260.516 332.317 260.8C332.317 261.084 332.547 261.314 332.831 261.314Z" fill="black"/>
<path opacity="0.1" d="M331.074 265.301C331.358 265.301 331.588 265.071 331.588 264.787C331.588 264.503 331.358 264.272 331.074 264.272C330.79 264.272 330.559 264.503 330.559 264.787C330.559 265.071 330.79 265.301 331.074 265.301Z" fill="black"/>
<path opacity="0.1" d="M325.672 271.693C325.956 271.693 326.186 271.462 326.186 271.178C326.186 270.894 325.956 270.664 325.672 270.664C325.388 270.664 325.157 270.894 325.157 271.178C325.157 271.462 325.388 271.693 325.672 271.693Z" fill="black"/>
<path opacity="0.1" d="M324.557 269.163C324.841 269.163 325.072 268.933 325.072 268.649C325.072 268.365 324.841 268.134 324.557 268.134C324.273 268.134 324.043 268.365 324.043 268.649C324.043 268.933 324.273 269.163 324.557 269.163Z" fill="black"/>
<path opacity="0.1" d="M321.899 263.458C322.183 263.458 322.414 263.227 322.414 262.943C322.414 262.659 322.183 262.429 321.899 262.429C321.615 262.429 321.385 262.659 321.385 262.943C321.385 263.227 321.615 263.458 321.899 263.458Z" fill="black"/>
<path opacity="0.1" d="M331.249 289.356H315.597V290.86H331.249V289.356Z" fill="black"/>
<path d="M333.56 275.98H313.11V290.342H333.56V275.98Z" fill="#D4DFEC"/>
<path opacity="0.1" d="M326.358 274.008C326.642 274.008 326.872 273.777 326.872 273.493C326.872 273.209 326.642 272.979 326.358 272.979C326.074 272.979 325.843 273.209 325.843 273.493C325.843 273.777 326.074 274.008 326.358 274.008Z" fill="black"/>
<path opacity="0.1" d="M323.271 274.651C323.555 274.651 323.785 274.421 323.785 274.136C323.785 273.852 323.555 273.622 323.271 273.622C322.987 273.622 322.757 273.852 322.757 274.136C322.757 274.421 322.987 274.651 323.271 274.651Z" fill="black"/>
</g>
<defs>
<linearGradient id="paint0_linear" x1="89.3054" y1="231.436" x2="89.3054" y2="38.7668" gradientUnits="userSpaceOnUse">
<stop stop-color="#808080" stop-opacity="0.25"/>
<stop offset="0.54" stop-color="#808080" stop-opacity="0.12"/>
<stop offset="1" stop-color="#808080" stop-opacity="0.1"/>
</linearGradient>
<clipPath id="clip0">
<rect width="356" height="295.879" fill="white"/>
</clipPath>
</defs>
</svg>
